  0
SECTION
  2
HEADER
  9
$ACADVER
  1
AC1009
  9
$DWGCODEPAGE
  3
dos850
  9
$INSBASE
 10
0.0
 20
0.0
 30
0.0
  9
$EXTMIN
 10
0.0
 20
0.0
 30
0.0
  9
$EXTMAX
 10
1000.0
 20
1000.0
 30
1000.0
  9
$LIMMIN
 10
0.0
 20
0.0
  9
$LIMMAX
 10
420.0
 20
297.0
  9
$ORTHOMODE
 70
     0
  9
$REGENMODE
 70
     1
  9
$FILLMODE
 70
     1
  9
$QTEXTMODE
 70
     0
  9
$MIRRTEXT
 70
     1
  9
$DRAGMODE
 70
     2
  9
$LTSCALE
 40
1.0
  9
$OSMODE
 70
    37
  9
$ATTMODE
 70
     1
  9
$TEXTSIZE
 40
2.5
  9
$TRACEWID
 40
1.0
  9
$TEXTSTYLE
  7
STANDARD
  9
$CLAYER
  8
0
  9
$CELTYPE
  6
BYLAYER
  9
$CECOLOR
 62
   256
  9
$DIMSCALE
 40
1.0
  9
$DIMASZ
 40
2.5
  9
$DIMEXO
 40
0.625
  9
$DIMDLI
 40
3.75
  9
$DIMRND
 40
0.0
  9
$DIMDLE
 40
0.0
  9
$DIMEXE
 40
1.25
  9
$DIMTP
 40
0.0
  9
$DIMTM
 40
0.0
  9
$DIMTXT
 40
2.5
  9
$DIMCEN
 40
2.5
  9
$DIMTSZ
 40
0.0
  9
$DIMTOL
 70
     0
  9
$DIMLIM
 70
     0
  9
$DIMTIH
 70
     0
  9
$DIMTOH
 70
     0
  9
$DIMSE1
 70
     0
  9
$DIMSE2
 70
     0
  9
$DIMTAD
 70
     1
  9
$DIMZIN
 70
     8
  9
$DIMBLK
  1

  9
$DIMASO
 70
     1
  9
$DIMSHO
 70
     1
  9
$DIMPOST
  1

  9
$DIMAPOST
  1

  9
$DIMALT
 70
     0
  9
$DIMALTD
 70
     3
  9
$DIMALTF
 40
0.03937007874016
  9
$DIMLFAC
 40
1.0
  9
$DIMTOFL
 70
     1
  9
$DIMTVP
 40
0.0
  9
$DIMTIX
 70
     0
  9
$DIMSOXD
 70
     0
  9
$DIMSAH
 70
     0
  9
$DIMBLK1
  1

  9
$DIMBLK2
  1

  9
$DIMSTYLE
  2
ISO-25
  9
$DIMCLRD
 70
     0
  9
$DIMCLRE
 70
     0
  9
$DIMCLRT
 70
     0
  9
$DIMTFAC
 40
1.0
  9
$DIMGAP
 40
0.625
  9
$LUNITS
 70
     2
  9
$LUPREC
 70
     4
  9
$SKETCHINC
 40
1.0
  9
$FILLETRAD
 40
10.0
  9
$AUNITS
 70
     0
  9
$AUPREC
 70
     0
  9
$MENU
  1
.
  9
$ELEVATION
 40
0.0
  9
$PELEVATION
 40
0.0
  9
$THICKNESS
 40
0.0
  9
$LIMCHECK
 70
     0
  9
$CHAMFERA
 40
10.0
  9
$CHAMFERB
 40
10.0
  9
$SKPOLY
 70
     0
  9
$TDCREATE
 40
2456620.920706018
  9
$TDUPDATE
 40
2456620.920706018
  9
$TDINDWG
 40
0.0000000116
  9
$TDUSRTIMER
 40
0.0000000116
  9
$USRTIMER
 70
     1
  9
$ANGBASE
 50
0.0
  9
$ANGDIR
 70
     0
  9
$PDMODE
 70
     0
  9
$PDSIZE
 40
0.0
  9
$PLINEWID
 40
0.0
  9
$COORDS
 70
     1
  9
$SPLFRAME
 70
     0
  9
$SPLINETYPE
 70
     6
  9
$SPLINESEGS
 70
     8
  9
$ATTDIA
 70
     0
  9
$ATTREQ
 70
     1
  9
$HANDLING
 70
     1
  9
$HANDSEED
  5
1F6
  9
$SURFTAB1
 70
     6
  9
$SURFTAB2
 70
     6
  9
$SURFTYPE
 70
     6
  9
$SURFU
 70
     6
  9
$SURFV
 70
     6
  9
$UCSNAME
  2

  9
$UCSORG
 10
0.0
 20
0.0
 30
0.0
  9
$UCSXDIR
 10
1.0
 20
0.0
 30
0.0
  9
$UCSYDIR
 10
0.0
 20
1.0
 30
0.0
  9
$PUCSNAME
  2

  9
$PUCSORG
 10
0.0
 20
0.0
 30
0.0
  9
$PUCSXDIR
 10
1.0
 20
0.0
 30
0.0
  9
$PUCSYDIR
 10
0.0
 20
1.0
 30
0.0
  9
$USERI1
 70
     0
  9
$USERI2
 70
     0
  9
$USERI3
 70
     0
  9
$USERI4
 70
     0
  9
$USERI5
 70
     0
  9
$USERR1
 40
0.0
  9
$USERR2
 40
0.0
  9
$USERR3
 40
0.0
  9
$USERR4
 40
0.0
  9
$USERR5
 40
0.0
  9
$WORLDVIEW
 70
     1
  9
$SHADEDGE
 70
     3
  9
$SHADEDIF
 70
    70
  9
$TILEMODE
 70
     1
  9
$MAXACTVP
 70
    64
  9
$PLIMCHECK
 70
     0
  9
$PEXTMIN
 10
0.0
 20
0.0
 30
0.0
  9
$PEXTMAX
 10
1000.0
 20
1000.0
 30
0.0
  9
$PLIMMIN
 10
0.0
 20
0.0
  9
$PLIMMAX
 10
100.0
 20
100.0
  9
$UNITMODE
 70
     0
  9
$VISRETAIN
 70
     1
  9
$PLINEGEN
 70
     0
  9
$PSLTSCALE
 70
     1
  0
ENDSEC
  0
SECTION
  2
TABLES
  0
TABLE
  2
VPORT
 70
     1
  0
VPORT
  2
*ACTIVE
 70
     0
 10
0.0
 20
0.0
 11
1.0
 21
1.0
 12
0.0
 22
0.0
 13
0.0
 23
0.0
 14
10.0
 24
10.0
 15
10.0
 25
10.0
 16
0.0
 26
0.0
 36
1.0
 17
0.0
 27
0.0
 37
0.0
 40
62.4902092853487
 41
1.972972972850329
 42
50.0
 43
0.0
 44
0.0
 50
0.0
 51
0.0
 71
     0
 72
   100
 73
     1
 74
     3
 75
     0
 76
     0
 77
     0
 78
     0
  0
ENDTAB
  0
TABLE
  2
LTYPE
 70
     4
  0
LTYPE
  2
CONTINUOUS
 70
     0
  3
Solid line
 72
    65
 73
     0
 40
0.0
  0
LTYPE
  2
CNS_SOLID
 70
     0
  3

 72
    65
 73
     0
 40
0.0
  0
LTYPE
  2
CNS_DASHED
 70
     0
  3

 72
    65
 73
     2
 40
2.0
 49
1.0
 49
-1.0
  0
LTYPE
  2
CNS_CENTER
 70
     0
  3

 72
    65
 73
     4
 40
2.0
 49
0.45
 49
-0.5
 49
0.05
 49
-0.5
  0
ENDTAB
  0
TABLE
  2
LAYER
 70
     8
  0
LAYER
  2
0
 70
     0
 62
     7
  6
CONTINUOUS
  0
LAYER
  2
VIS
 70
     0
 62
     7
  6
CNS_SOLID
  0
LAYER
  2
THIN
 70
     0
 62
     7
  6
CNS_SOLID
  0
LAYER
  2
HIDDEN
 70
     0
 62
     7
  6
CNS_DASHED
  0
LAYER
  2
CENTER
 70
     0
 62
     7
  6
CNS_CENTER
  0
LAYER
  2
CENTER1
 70
     0
 62
     7
  6
CNS_CENTER
  0
LAYER
  2
THREAD
 70
     0
 62
     7
  6
CNS_SOLID
  0
LAYER
  2
ATTRIB
 70
     0
 62
     7
  6
CNS_SOLID
  0
ENDTAB
  0
TABLE
  2
STYLE
 70
     1
  0
STYLE
  2
STANDARD
 70
     0
 40
0.0
 41
1.0
 50
0.0
 71
     0
 42
2.5
  3
txt
  4

  0
ENDTAB
  0
TABLE
  2
VIEW
 70
     0
  0
ENDTAB
  0
TABLE
  2
UCS
 70
     0
  0
ENDTAB
  0
TABLE
  2
APPID
 70
     1
  0
APPID
  2
ACAD
 70
     0
  0
ENDTAB
  0
TABLE
  2
DIMSTYLE
 70
     1
  0
DIMSTYLE
  2
ISO-25
 70
     0
  3

  4

  5

  6

  7

 40
1.0
 41
2.5
 42
0.625
 43
3.75
 44
1.25
 45
0.0
 46
0.0
 47
0.0
 48
0.0
140
2.5
141
2.5
142
0.0
143
0.03937007874016
144
1.0
145
0.0
146
1.0
147
0.625
 71
     0
 72
     0
 73
     0
 74
     0
 75
     0
 76
     0
 77
     1
 78
     8
170
     0
171
     3
172
     1
173
     0
174
     0
175
     0
176
     0
177
     0
178
     0
  0
ENDTAB
  0
ENDSEC
  0
SECTION
  2
BLOCKS
  0
BLOCK
  8
0
  2
$MODEL_SPACE
 70
     0
 10
0.0
 20
0.0
 30
0.0
  3
$MODEL_SPACE
  1

  0
ENDBLK
  5
21
  8
0
  0
BLOCK
 67
     1
  8
0
  2
$PAPER_SPACE
 70
     0
 10
0.0
 20
0.0
 30
0.0
  3
$PAPER_SPACE
  1

  0
ENDBLK
  5
1D
 67
     1
  8
0
  0
ENDSEC
  0
SECTION
  2
ENTITIES
  0
LINE
  5
34
  8
VIS
 62
     1
 10
-10.0000000000001
 20
16.7
 30
0.0
 11
-10.0
 21
3.300000000000008
 31
0.0
  0
ARC
  5
35
  8
VIS
 62
     1
 10
-9.700000000000198
 20
16.7000000000001
 30
0.0
 40
0.2999999999999012
 50
90.0
 51
180.0
  0
LINE
  5
36
  8
VIS
 62
     1
 10
-7.99999999999988
 20
17.0
 30
0.0
 11
-9.700000000000159
 21
17.0
 31
0.0
  0
LINE
  5
37
  8
VIS
 62
     1
 10
-7.99999999999988
 20
14.0
 30
0.0
 11
-7.99999999999988
 21
17.0
 31
0.0
  0
LINE
  5
38
  8
VIS
 62
     1
 10
-7.06066906002058
 20
14.0
 30
0.0
 11
-7.99999999999988
 21
14.0
 31
0.0
  0
LINE
  5
39
  8
VIS
 62
     1
 10
-3.99999999999988
 20
17.060669372961
 30
0.0
 11
-7.06066906002058
 21
14.0
 31
0.0
  0
LINE
  5
3A
  8
VIS
 62
     1
 10
-3.99999999999988
 20
19.4803847577293
 30
0.0
 11
-3.99999999999988
 21
17.060669372961
 31
0.0
  0
LINE
  5
3B
  8
VIS
 62
     1
 10
-3.69999999999982
 20
20.0
 30
0.0
 11
-3.99999999999988
 21
19.4803847577293
 31
0.0
  0
LINE
  5
3C
  8
VIS
 62
     1
 10
-3.99999999999977
 20
20.5196152422707
 30
0.0
 11
-3.69999999999982
 21
20.0
 31
0.0
  0
LINE
  5
3D
  8
VIS
 62
     1
 10
-3.99999999999977
 20
22.9393556729733
 30
0.0
 11
-3.99999999999977
 21
20.5196152422707
 31
0.0
  0
LINE
  5
3E
  8
VIS
 62
     1
 10
-7.06064401408901
 20
26.0
 30
0.0
 11
-3.99999999999977
 21
22.9393556729733
 31
0.0
  0
LINE
  5
3F
  8
VIS
 62
     1
 10
-7.99999999999988
 20
26.0
 30
0.0
 11
-7.06064401408901
 21
26.0
 31
0.0
  0
LINE
  5
40
  8
VIS
 62
     1
 10
-7.99999999999988
 20
23.0
 30
0.0
 11
-7.99999999999988
 21
26.0
 31
0.0
  0
LINE
  5
41
  8
VIS
 62
     1
 10
-9.700000000000159
 20
23.0
 30
0.0
 11
-7.99999999999988
 21
23.0
 31
0.0
  0
ARC
  5
42
  8
VIS
 62
     1
 10
-9.700000000000209
 20
23.29999999999989
 30
0.0
 40
0.2999999999998906
 50
179.9999991462264
 51
270.0
  0
LINE
  5
43
  8
VIS
 62
     1
 10
-10.0
 20
29.00000000000002
 30
0.0
 11
-10.0000000000001
 21
23.3
 31
0.0
  0
ARC
  5
44
  8
VIS
 62
     1
 10
-8.999999999999995
 20
29.0
 30
0.0
 40
1.000000000000004
 50
90.0
 51
180.0
  0
LINE
  5
45
  8
VIS
 62
     1
 10
-3.299999999999945
 20
29.9999999999999
 30
0.0
 11
-8.999999999999982
 21
30.0
 31
0.0
  0
ARC
  5
46
  8
VIS
 62
     1
 10
-3.299999999999915
 20
29.69999999999999
 30
0.0
 40
0.2999999999999146
 50
0.0000008537736463
 51
90.0
  0
LINE
  5
47
  8
VIS
 62
     1
 10
-3.0
 20
28.0
 30
0.0
 11
-3.0
 21
29.6999999999999
 31
0.0
  0
LINE
  5
48
  8
VIS
 62
     1
 10
-6.0
 20
27.9999999999999
 30
0.0
 11
-3.0
 21
28.0
 31
0.0
  0
LINE
  5
49
  8
VIS
 62
     1
 10
-6.0
 20
27.0606823129386
 30
0.0
 11
-6.0
 21
27.9999999999999
 31
0.0
  0
LINE
  5
4A
  8
VIS
 62
     1
 10
-2.93931800000269
 20
24.0
 30
0.0
 11
-5.999999999999999
 21
27.0606823129386
 31
0.0
  0
LINE
  5
4B
  8
VIS
 62
     1
 10
-0.519616242252141
 20
24.0
 30
0.0
 11
-2.93931800000269
 21
24.0
 31
0.0
  0
LINE
  5
4C
  8
VIS
 62
     1
 10
-0.0000009999814736
 20
23.7
 30
0.0
 11
-0.519616242252141
 21
24.0
 31
0.0
  0
LINE
  5
4D
  8
VIS
 62
     1
 10
0.5196142422892081
 20
24.0
 30
0.0
 11
-0.0000009999814735
 21
23.7
 31
0.0
  0
LINE
  5
4E
  8
VIS
 62
     1
 10
2.93931600003964
 20
24.0
 30
0.0
 11
0.5196142422892081
 21
24.0
 31
0.0
  0
LINE
  5
4F
  8
VIS
 62
     1
 10
5.99999999999989
 20
27.06068431290214
 30
0.0
 11
2.93931600003964
 21
24.0
 31
0.0
  0
LINE
  5
50
  8
VIS
 62
     1
 10
5.99999999999989
 20
27.9999999999999
 30
0.0
 11
5.99999999999989
 21
27.06068431290214
 31
0.0
  0
LINE
  5
51
  8
VIS
 62
     1
 10
3.00000000000001
 20
28.0
 30
0.0
 11
5.99999999999989
 21
27.9999999999999
 31
0.0
  0
LINE
  5
52
  8
VIS
 62
     1
 10
3.00000000000012
 20
29.69999999999992
 30
0.0
 11
3.00000000000001
 21
28.0
 31
0.0
  0
ARC
  5
53
  8
VIS
 62
     1
 10
3.300000000000035
 20
29.69999999999999
 30
0.0
 40
0.2999999999999119
 50
90.0
 51
180.0
  0
LINE
  5
54
  8
VIS
 62
     1
 10
9.0
 20
29.9999999999999
 30
0.0
 11
3.30000000000007
 21
29.9999999999999
 31
0.0
  0
ARC
  5
55
  8
VIS
 62
     1
 10
8.999999999999995
 20
28.9999999999999
 30
0.0
 40
1.000000000000005
 50
0.0
 51
90.0
  0
LINE
  5
56
  8
VIS
 62
     1
 10
10.0
 20
23.3
 30
0.0
 11
10.0
 21
28.9999999999999
 31
0.0
  0
ARC
  5
57
  8
VIS
 62
     1
 10
9.700000000000085
 20
23.29999999999992
 30
0.0
 40
0.2999999999999155
 50
270.0
 51
360.0
  0
LINE
  5
58
  8
VIS
 62
     1
 10
7.99999999999989
 20
23.0
 30
0.0
 11
9.700000000000051
 21
23.0
 31
0.0
  0
LINE
  5
59
  8
VIS
 62
     1
 10
7.99999999999989
 20
26.0
 30
0.0
 11
7.99999999999989
 21
23.0
 31
0.0
  0
LINE
  5
5A
  8
VIS
 62
     1
 10
7.06063751403146
 20
26.0
 30
0.0
 11
7.99999999999989
 21
26.0
 31
0.0
  0
LINE
  5
5B
  8
VIS
 62
     1
 10
3.99999999999978
 20
22.9393621730311
 30
0.0
 11
7.060637514031461
 21
26.0
 31
0.0
  0
LINE
  5
5C
  8
VIS
 62
     1
 10
3.99999999999978
 20
20.5196064922879
 30
0.0
 11
3.99999999999978
 21
22.9393621730311
 31
0.0
  0
LINE
  5
5D
  8
VIS
 62
     1
 10
3.70000000000039
 20
19.9999912500184
 30
0.0
 11
3.99999999999978
 21
20.5196064922879
 31
0.0
  0
LINE
  5
5E
  8
VIS
 62
     1
 10
3.99999999999989
 20
19.4803760077486
 30
0.0
 11
3.70000000000039
 21
19.9999912500184
 31
0.0
  0
LINE
  5
5F
  8
VIS
 62
     1
 10
3.99999999999989
 20
17.0606585230007
 30
0.0
 11
3.99999999999989
 21
19.4803760077486
 31
0.0
  0
LINE
  5
60
  8
VIS
 62
     1
 10
7.060658210061408
 20
14.0
 30
0.0
 11
3.99999999999989
 21
17.0606585230007
 31
0.0
  0
LINE
  5
61
  8
VIS
 62
     1
 10
7.99999999999989
 20
14.0
 30
0.0
 11
7.060658210061408
 21
14.0
 31
0.0
  0
LINE
  5
62
  8
VIS
 62
     1
 10
7.99999999999989
 20
17.0
 30
0.0
 11
7.99999999999989
 21
14.0
 31
0.0
  0
LINE
  5
63
  8
VIS
 62
     1
 10
9.700000000000159
 20
17.0
 30
0.0
 11
7.99999999999989
 21
17.0
 31
0.0
  0
ARC
  5
64
  8
VIS
 62
     1
 10
9.700000000000195
 20
16.70000000000009
 30
0.0
 40
0.2999999999999048
 50
0.0
 51
90.0
  0
LINE
  5
65
  8
VIS
 62
     1
 10
10.0000000000001
 20
3.30000000000001
 30
0.0
 11
10.0000000000001
 21
16.7
 31
0.0
  0
ARC
  5
66
  8
VIS
 62
     1
 10
9.700000000000181
 20
3.299999999999918
 30
0.0
 40
0.2999999999999181
 50
270.0
 51
360.0
  0
LINE
  5
67
  8
VIS
 62
     1
 10
7.99999999999989
 20
3.0
 30
0.0
 11
9.700000000000159
 21
3.0
 31
0.0
  0
LINE
  5
68
  8
VIS
 62
     1
 10
7.99999999999989
 20
6.0
 30
0.0
 11
7.99999999999989
 21
3.0
 31
0.0
  0
LINE
  5
69
  8
VIS
 62
     1
 10
7.06065708701424
 20
6.0
 30
0.0
 11
7.99999999999989
 21
6.0
 31
0.0
  0
LINE
  5
6A
  8
VIS
 62
     1
 10
3.99999999999978
 20
2.93934260004644
 30
0.0
 11
7.06065708701424
 21
6.000000000000001
 31
0.0
  0
LINE
  5
6B
  8
VIS
 62
     1
 10
3.99999999999978
 20
0.519606492287956
 30
0.0
 11
3.99999999999978
 21
2.93934260004644
 31
0.0
  0
LINE
  5
6C
  8
VIS
 62
     1
 10
3.70000000000039
 20
-0.0000087499815891
 30
0.0
 11
3.99999999999978
 21
0.519606492287956
 31
0.0
  0
LINE
  5
6D
  8
VIS
 62
     1
 10
3.99999999999978
 20
-0.5196239922512551
 30
0.0
 11
3.70000000000039
 21
-0.0000087499815891
 31
0.0
  0
LINE
  5
6E
  8
VIS
 62
     1
 10
3.99999999999978
 20
-2.93934814997209
 30
0.0
 11
3.99999999999978
 21
-0.5196239922512551
 31
0.0
  0
LINE
  5
6F
  8
VIS
 62
     1
 10
7.06065153708949
 20
-5.99999999999997
 30
0.0
 11
3.999999999999781
 21
-2.939348149972091
 31
0.0
  0
LINE
  5
70
  8
VIS
 62
     1
 10
7.99999999999932
 20
-6.0
 30
0.0
 11
7.06065153708949
 21
-5.99999999999997
 31
0.0
  0
LINE
  5
71
  8
VIS
 62
     1
 10
7.99999999999944
 20
-3.0
 30
0.0
 11
7.99999999999932
 21
-6.0
 31
0.0
  0
LINE
  5
72
  8
VIS
 62
     1
 10
9.700000000000159
 20
-3.0
 30
0.0
 11
7.99999999999944
 21
-3.0
 31
0.0
  0
ARC
  5
73
  8
VIS
 62
     1
 10
9.700000000000186
 20
-3.299999999999913
 30
0.0
 40
0.2999999999999137
 50
0.0
 51
90.0
  0
LINE
  5
74
  8
VIS
 62
     1
 10
9.99999999999989
 20
-16.7
 30
0.0
 11
10.0000000000001
 21
-3.300000000000015
 31
0.0
  0
ARC
  5
75
  8
VIS
 62
     1
 10
9.699999999999964
 20
-16.70000000000008
 30
0.0
 40
0.2999999999999226
 50
270.0
 51
360.0
  0
LINE
  5
76
  8
VIS
 62
     1
 10
8.000000000000011
 20
-17.0
 30
0.0
 11
9.69999999999993
 21
-17.0
 31
0.0
  0
LINE
  5
77
  8
VIS
 62
     1
 10
7.99999999999977
 20
-14.0
 30
0.0
 11
8.000000000000011
 21
-17.0
 31
0.0
  0
LINE
  5
78
  8
VIS
 62
     1
 10
7.060655187032811
 20
-14.0
 30
0.0
 11
7.99999999999977
 21
-14.0
 31
0.0
  0
LINE
  5
79
  8
VIS
 62
     1
 10
4.00000000000012
 20
-17.060661089965
 30
0.0
 11
7.060655187032811
 21
-14.0
 31
0.0
  0
LINE
  5
7A
  8
VIS
 62
     1
 10
4.00000000000035
 20
-19.4803935077111
 30
0.0
 11
4.00000000000012
 21
-17.060661089965
 31
0.0
  0
LINE
  5
7B
  8
VIS
 62
     1
 10
3.70000000000039
 20
-20.0000087499816
 30
0.0
 11
4.00000000000035
 21
-19.4803935077111
 31
0.0
  0
LINE
  5
7C
  8
VIS
 62
     1
 10
4.00000000000035
 20
-20.5196239922522
 30
0.0
 11
3.70000000000039
 21
-20.0000087499816
 31
0.0
  0
LINE
  5
7D
  8
VIS
 62
     1
 10
4.00000000000057
 20
-22.9393564099981
 30
0.0
 11
4.00000000000035
 21
-20.5196239922522
 31
0.0
  0
LINE
  5
7E
  8
VIS
 62
     1
 10
7.06063768706269
 20
-26.0
 30
0.0
 11
4.00000000000057
 21
-22.9393564099981
 31
0.0
  0
LINE
  5
7F
  8
VIS
 62
     1
 10
7.99999999999989
 20
-26.0
 30
0.0
 11
7.06063768706269
 21
-26.0
 31
0.0
  0
LINE
  5
80
  8
VIS
 62
     1
 10
7.99999999999989
 20
-23.0
 30
0.0
 11
7.99999999999989
 21
-26.0
 31
0.0
  0
LINE
  5
81
  8
VIS
 62
     1
 10
9.69999999999993
 20
-23.0
 30
0.0
 11
7.99999999999989
 21
-23.0
 31
0.0
  0
ARC
  5
82
  8
VIS
 62
     1
 10
9.699999999999957
 20
-23.29999999999993
 30
0.0
 40
0.2999999999999332
 50
0.0
 51
90.0
  0
LINE
  5
83
  8
VIS
 62
     1
 10
9.99999999999989
 20
-29.0
 30
0.0
 11
9.99999999999989
 21
-23.3
 31
0.0
  0
ARC
  5
84
  8
VIS
 62
     1
 10
8.999999999999892
 20
-29.0
 30
0.0
 40
0.9999999999999965
 50
270.0
 51
360.0
  0
LINE
  5
85
  8
VIS
 62
     1
 10
3.30000000000007
 20
-30.0
 30
0.0
 11
8.99999999999989
 21
-30.0
 31
0.0
  0
ARC
  5
86
  8
VIS
 62
     1
 10
3.300000000000032
 20
-29.70000000000009
 30
0.0
 40
0.2999999999999119
 50
180.0
 51
270.0
  0
LINE
  5
87
  8
VIS
 62
     1
 10
3.00000000000001
 20
-28.0
 30
0.0
 11
3.00000000000012
 21
-29.70000000000002
 31
0.0
  0
LINE
  5
88
  8
VIS
 62
     1
 10
5.99999999999989
 20
-28.0
 30
0.0
 11
3.00000000000001
 21
-28.0
 31
0.0
  0
LINE
  5
89
  8
VIS
 62
     1
 10
5.99999999999989
 20
-27.0606824029386
 30
0.0
 11
5.99999999999989
 21
-28.0
 31
0.0
  0
LINE
  5
8A
  8
VIS
 62
     1
 10
2.93931800000269
 20
-24.0
 30
0.0
 11
5.99999999999989
 21
-27.0606824029386
 31
0.0
  0
LINE
  5
8B
  8
VIS
 62
     1
 10
0.518577868129448
 20
-24.0
 30
0.0
 11
2.93931800000269
 21
-24.0
 31
0.0
  0
LINE
  5
8C
  8
VIS
 62
     1
 10
0.0000009999818076
 20
-23.7
 30
0.0
 11
0.5185778681294481
 21
-24.0
 31
0.0
  0
LINE
  5
8D
  8
VIS
 62
     1
 10
-0.5190950552274671
 20
-24.0
 30
0.0
 11
0.0000009999818076
 21
-23.7
 31
0.0
  0
LINE
  5
8E
  8
VIS
 62
     1
 10
-2.9393160000393
 20
-24.0
 30
0.0
 11
-0.5190950552274671
 21
-24.0
 31
0.0
  0
LINE
  5
8F
  8
VIS
 62
     1
 10
-6.0
 20
-27.06068340790186
 30
0.0
 11
-2.939316000039301
 21
-24.0
 31
0.0
  0
LINE
  5
90
  8
VIS
 62
     1
 10
-6.0
 20
-28.0
 30
0.0
 11
-6.0
 21
-27.06068340790186
 31
0.0
  0
LINE
  5
91
  8
VIS
 62
     1
 10
-3.0
 20
-28.0
 30
0.0
 11
-6.0
 21
-28.0
 31
0.0
  0
LINE
  5
92
  8
VIS
 62
     1
 10
-3.0
 20
-29.7
 30
0.0
 11
-3.0
 21
-28.0
 31
0.0
  0
ARC
  5
93
  8
VIS
 62
     1
 10
-3.299999999999919
 20
-29.70000000000008
 30
0.0
 40
0.299999999999919
 50
270.0
 51
360.0
  0
LINE
  5
94
  8
VIS
 62
     1
 10
-8.999999999999879
 20
-30.0
 30
0.0
 11
-3.29999999999995
 21
-30.0
 31
0.0
  0
ARC
  5
95
  8
VIS
 62
     1
 10
-8.999999999999863
 20
-28.99999999999998
 30
0.0
 40
1.000000000000027
 50
180.0
 51
270.0
  0
LINE
  5
96
  8
VIS
 62
     1
 10
-9.99999999999989
 20
-23.3
 30
0.0
 11
-9.99999999999989
 21
-29.0
 31
0.0
  0
ARC
  5
97
  8
VIS
 62
     1
 10
-9.699999999999955
 20
-23.29999999999993
 30
0.0
 40
0.2999999999999332
 50
90.0
 51
180.0
  0
LINE
  5
98
  8
VIS
 62
     1
 10
-7.99999999999977
 20
-23.0
 30
0.0
 11
-9.69999999999993
 21
-23.0
 31
0.0
  0
LINE
  5
99
  8
VIS
 62
     1
 10
-7.99999999999988
 20
-26.0
 30
0.0
 11
-7.99999999999977
 21
-23.0
 31
0.0
  0
LINE
  5
9A
  8
VIS
 62
     1
 10
-7.06064303704208
 20
-26.0
 30
0.0
 11
-7.99999999999988
 21
-26.0
 31
0.0
  0
LINE
  5
9B
  8
VIS
 62
     1
 10
-3.99999999999988
 20
-22.9393566500201
 30
0.0
 11
-7.06064303704208
 21
-26.0
 31
0.0
  0
LINE
  5
9C
  8
VIS
 62
     1
 10
-3.99999999999988
 20
-20.5196152422707
 30
0.0
 11
-3.99999999999988
 21
-22.9393566500201
 31
0.0
  0
LINE
  5
9D
  8
VIS
 62
     1
 10
-3.69999999999982
 20
-20.0
 30
0.0
 11
-3.99999999999988
 21
-20.5196152422707
 31
0.0
  0
LINE
  5
9E
  8
VIS
 62
     1
 10
-3.99999999999977
 20
-19.4803847577293
 30
0.0
 11
-3.69999999999982
 21
-20.0
 31
0.0
  0
LINE
  5
9F
  8
VIS
 62
     1
 10
-3.99999999999977
 20
-17.0606732000343
 30
0.0
 11
-3.99999999999977
 21
-19.4803847577293
 31
0.0
  0
LINE
  5
A0
  8
VIS
 62
     1
 10
-7.06067288709369
 20
-14.0
 30
0.0
 11
-3.99999999999977
 21
-17.0606732000343
 31
0.0
  0
LINE
  5
A1
  8
VIS
 62
     1
 10
-7.99999999999988
 20
-14.0
 30
0.0
 11
-7.06067288709369
 21
-14.0
 31
0.0
  0
LINE
  5
A2
  8
VIS
 62
     1
 10
-7.99999999999988
 20
-17.0
 30
0.0
 11
-7.99999999999988
 21
-14.0
 31
0.0
  0
LINE
  5
A3
  8
VIS
 62
     1
 10
-9.69999999999993
 20
-17.0
 30
0.0
 11
-7.99999999999988
 21
-17.0
 31
0.0
  0
ARC
  5
A4
  8
VIS
 62
     1
 10
-9.699999999999957
 20
-16.70000000000007
 30
0.0
 40
0.2999999999999332
 50
180.0
 51
270.0
  0
LINE
  5
A5
  8
VIS
 62
     1
 10
-10.0
 20
-3.300000000000013
 30
0.0
 11
-9.99999999999989
 21
-16.7
 31
0.0
  0
ARC
  5
A6
  8
VIS
 62
     1
 10
-9.700000000000053
 20
-3.299999999999947
 30
0.0
 40
0.2999999999999465
 50
90.0
 51
180.0
  0
LINE
  5
A7
  8
VIS
 62
     1
 10
-7.99999999999988
 20
-3.0
 30
0.0
 11
-9.70000000000004
 21
-3.0
 31
0.0
  0
LINE
  5
A8
  8
VIS
 62
     1
 10
-7.99999999999988
 20
-6.0
 30
0.0
 11
-7.99999999999988
 21
-3.0
 31
0.0
  0
LINE
  5
A9
  8
VIS
 62
     1
 10
-7.06064948703761
 20
-6.0
 30
0.0
 11
-7.99999999999988
 21
-6.0
 31
0.0
  0
LINE
  5
AA
  8
VIS
 62
     1
 10
-3.99999999999988
 20
-2.93935020002394
 30
0.0
 11
-7.06064948703761
 21
-6.0
 31
0.0
  0
LINE
  5
AB
  8
VIS
 62
     1
 10
-3.99999999999988
 20
-0.519615242270682
 30
0.0
 11
-3.99999999999988
 21
-2.93935020002394
 31
0.0
  0
LINE
  5
AC
  8
VIS
 62
     1
 10
-3.69999999999982
 20
0.0
 30
0.0
 11
-3.99999999999988
 21
-0.519615242270682
 31
0.0
  0
LINE
  5
AD
  8
VIS
 62
     1
 10
-3.99999999999977
 20
0.519615242270667
 30
0.0
 11
-3.69999999999982
 21
0.0
 31
0.0
  0
LINE
  5
AE
  8
VIS
 62
     1
 10
-3.99999999999977
 20
2.93934900000045
 30
0.0
 11
-3.99999999999977
 21
0.519615242270667
 31
0.0
  0
LINE
  5
AF
  8
VIS
 62
     1
 10
-7.06065068706096
 20
6.0
 30
0.0
 11
-3.99999999999977
 21
2.93934900000045
 31
0.0
  0
LINE
  5
B0
  8
VIS
 62
     1
 10
-7.99999999999988
 20
6.0
 30
0.0
 11
-7.06065068706096
 21
6.0
 31
0.0
  0
LINE
  5
B1
  8
VIS
 62
     1
 10
-7.99999999999988
 20
3.0
 30
0.0
 11
-7.99999999999988
 21
6.0
 31
0.0
  0
LINE
  5
B2
  8
VIS
 62
     1
 10
-9.700000000000042
 20
3.0
 30
0.0
 11
-7.99999999999988
 21
3.0
 31
0.0
  0
ARC
  5
B3
  8
VIS
 62
     1
 10
-9.700000000000054
 20
3.299999999999944
 30
0.0
 40
0.2999999999999456
 50
180.0
 51
270.0
  0
CIRCLE
  5
B4
  8
VIS
 62
     1
 10
0.0
 20
20.0000131229788
 30
0.0
 40
2.0999999
  0
CIRCLE
  5
B5
  8
VIS
 62
     1
 10
0.0
 20
0.0000000000000001
 30
0.0
 40
2.0999999
  0
CIRCLE
  5
B6
  8
VIS
 62
     1
 10
0.0
 20
-20.0000135250082
 30
0.0
 40
2.0999999
  0
LINE
  5
B7
  8
VIS
 62
     1
 10
-7.99999999999988
 20
11.7
 30
0.0
 11
-7.99999999999988
 21
8.30000000000004
 31
0.0
  0
ARC
  5
B8
  8
VIS
 62
     1
 10
-7.699999999999949
 20
8.29999999999996
 30
0.0
 40
0.2999999999999314
 50
180.0
 51
270.0
  0
LINE
  5
B9
  8
VIS
 62
     1
 10
-7.69999999999993
 20
8.00000000000003
 30
0.0
 11
-7.06359432515387
 21
8.00000000000003
 31
0.0
  0
ARC
  5
BA
  8
VIS
 62
     1
 10
-7.063594325153901
 20
7.699999999999998
 30
0.0
 40
0.3000000000000318
 50
44.99999707087459
 51
90.0
  0
LINE
  5
BB
  8
VIS
 62
     1
 10
-6.851462279953113
 20
7.912132023511184
 30
0.0
 11
-2.939330656440651
 21
3.99999999999997
 31
0.0
  0
LINE
  5
BC
  8
VIS
 62
     1
 10
-2.939330656440652
 20
3.99999999999997
 30
0.0
 11
2.939337056393929
 21
4.0
 31
0.0
  0
LINE
  5
BD
  8
VIS
 62
     1
 10
2.939337056393929
 20
4.0
 30
0.0
 11
6.851468679906354
 21
7.912132023511154
 31
0.0
  0
ARC
  5
BE
  8
VIS
 62
     1
 10
7.063600725107135
 20
7.699999999999983
 30
0.0
 40
0.3000000000000167
 50
90.0
 51
135.0000029291266
  0
LINE
  5
BF
  8
VIS
 62
     1
 10
7.06360072510711
 20
8.0
 30
0.0
 11
7.70000000000005
 21
8.0
 31
0.0
  0
ARC
  5
C0
  8
VIS
 62
     1
 10
7.700000000000063
 20
8.299999999999947
 30
0.0
 40
0.2999999999999474
 50
270.0
 51
360.0
  0
LINE
  5
C1
  8
VIS
 62
     1
 10
8.000000000000011
 20
8.30000000000001
 30
0.0
 11
8.000000000000011
 21
11.7
 31
0.0
  0
ARC
  5
C2
  8
VIS
 62
     1
 10
7.700000000000079
 20
11.70000000000007
 30
0.0
 40
0.2999999999999314
 50
0.0
 51
90.0
  0
LINE
  5
C3
  8
VIS
 62
     1
 10
7.70000000000005
 20
12.0
 30
0.0
 11
7.06360184815446
 21
12.0
 31
0.0
  0
ARC
  5
C4
  8
VIS
 62
     1
 10
7.063601848154491
 20
12.30000000000016
 30
0.0
 40
0.3000000000001549
 50
224.9999970708935
 51
270.0
  0
LINE
  5
C5
  8
VIS
 62
     1
 10
6.851469802953687
 20
12.08786797648881
 30
0.0
 11
2.939338179441112
 21
16.0
 31
0.0
  0
LINE
  5
C6
  8
VIS
 62
     1
 10
2.939338179441112
 20
16.0
 30
0.0
 11
-2.939349029400304
 21
16.0
 31
0.0
  0
LINE
  5
C7
  8
VIS
 62
     1
 10
-2.939349029400304
 20
16.0
 30
0.0
 11
-6.851480652912838
 21
12.08786797648891
 31
0.0
  0
ARC
  5
C8
  8
VIS
 62
     1
 10
-7.06361269811364
 20
12.30000000000025
 30
0.0
 40
0.3000000000001517
 50
270.0
 51
315.0000029291066
  0
LINE
  5
C9
  8
VIS
 62
     1
 10
-7.063612698113563
 20
12.0000000000001
 30
0.0
 11
-7.699999999999977
 21
12.0
 31
0.0
  0
ARC
  5
CA
  8
VIS
 62
     1
 10
-7.699999999999964
 20
11.70000000000008
 30
0.0
 40
0.2999999999999172
 50
90.0
 51
180.0
  0
ARC
  5
CB
  8
VIS
 62
     1
 10
-7.699999999999952
 20
-8.299999999999928
 30
0.0
 40
0.2999999999999279
 50
90.0
 51
180.0
  0
LINE
  5
CC
  8
VIS
 62
     1
 10
-7.99999999999988
 20
-8.300000000000019
 30
0.0
 11
-7.99999999999977
 21
-11.70000000000001
 31
0.0
  0
ARC
  5
CD
  8
VIS
 62
     1
 10
-7.699999999999851
 20
-11.70000000000008
 30
0.0
 40
0.299999999999919
 50
180.0
 51
270.0
  0
LINE
  5
CE
  8
VIS
 62
     1
 10
-7.69999999999982
 20
-12.0
 30
0.0
 11
-7.0636165251866
 21
-12.0
 31
0.0
  0
ARC
  5
CF
  8
VIS
 62
     1
 10
-7.063616525186515
 20
-12.29999999999958
 30
0.0
 40
0.2999999999995828
 50
44.99999707083393
 51
90.0
  0
LINE
  5
D0
  8
VIS
 62
     1
 10
-6.851484479985894
 20
-12.08786797648887
 30
0.0
 11
-2.939352856473104
 21
-16.0
 31
0.0
  0
LINE
  5
D1
  8
VIS
 62
     1
 10
-2.939352856473104
 20
-16.0
 30
0.0
 11
2.939340746402726
 21
-16.0
 31
0.0
  0
LINE
  5
D2
  8
VIS
 62
     1
 10
2.939340746402726
 20
-16.0
 30
0.0
 11
6.851465031076428
 21
-12.08786817020815
 31
0.0
  0
ARC
  5
D3
  8
VIS
 62
     1
 10
7.063597269996297
 20
-12.29999999999997
 30
0.0
 40
0.299999999999967
 50
90.0
 51
135.0000552516994
  0
LINE
  5
D4
  8
VIS
 62
     1
 10
7.06359726999631
 20
-12.0
 30
0.0
 11
7.70000000000005
 21
-12.0
 31
0.0
  0
ARC
  5
D5
  8
VIS
 62
     1
 10
7.700000000000079
 20
-11.70000000000007
 30
0.0
 40
0.2999999999999314
 50
270.0
 51
360.0
  0
LINE
  5
D6
  8
VIS
 62
     1
 10
8.000000000000011
 20
-11.7
 30
0.0
 11
8.000000000000011
 21
-8.29999999999999
 31
0.0
  0
ARC
  5
D7
  8
VIS
 62
     1
 10
7.700000000000062
 20
-8.299999999999926
 30
0.0
 40
0.2999999999999483
 50
0.0
 51
90.0
  0
LINE
  5
D8
  8
VIS
 62
     1
 10
7.70000000000005
 20
-7.99999999999998
 30
0.0
 11
7.06359517518252
 21
-7.99999999999998
 31
0.0
  0
ARC
  5
D9
  8
VIS
 62
     1
 10
7.063595175182543
 20
-7.699999999999967
 30
0.0
 40
0.3000000000000124
 50
224.9999970708767
 51
270.0
  0
LINE
  5
DA
  8
VIS
 62
     1
 10
6.851463129981776
 20
-7.912132023511147
 30
0.0
 11
2.939331506468867
 21
-3.999999999999972
 31
0.0
  0
LINE
  5
DB
  8
VIS
 62
     1
 10
2.939331506468866
 20
-3.99999999999997
 30
0.0
 11
-2.939329456417305
 21
-4.0
 31
0.0
  0
LINE
  5
DC
  8
VIS
 62
     1
 10
-2.939329456417305
 20
-4.0
 30
0.0
 11
-6.851461079929888
 21
-7.912132023511139
 31
0.0
  0
ARC
  5
DD
  8
VIS
 62
     1
 10
-7.063593125130673
 20
-7.699999999999939
 30
0.0
 40
0.3000000000000407
 50
270.0
 51
315.0000029291229
  0
LINE
  5
DE
  8
VIS
 62
     1
 10
-7.06359312513063
 20
-7.99999999999998
 30
0.0
 11
-7.69999999999994
 21
-8.0
 31
0.0
  0
LINE
  5
DF
  8
CENTER
 62
     4
 10
-2.732455432033676
 20
20.0000131229788
 30
0.0
 11
2.732455432033676
 21
20.0000131229788
 31
0.0
  0
LINE
  5
E0
  8
CENTER
 62
     4
 10
0.0
 20
17.26755769094512
 30
0.0
 11
0.0
 21
22.73246855501248
 31
0.0
  0
LINE
  5
E1
  8
CENTER
 62
     4
 10
-2.732455432033676
 20
0.0000000000000001
 30
0.0
 11
2.732455432033676
 21
0.0000000000000001
 31
0.0
  0
LINE
  5
E2
  8
CENTER
 62
     4
 10
0.0
 20
-2.732455432033676
 30
0.0
 11
0.0
 21
2.732455432033676
 31
0.0
  0
LINE
  5
E3
  8
CENTER
 62
     4
 10
-2.732455432033676
 20
-20.0000135250082
 30
0.0
 11
2.732455432033676
 21
-20.0000135250082
 31
0.0
  0
LINE
  5
E4
  8
CENTER
 62
     4
 10
0.0
 20
-22.73246895704188
 30
0.0
 11
0.0
 21
-17.26755809297452
 31
0.0
  0
LINE
  5
E5
  8
CENTER
 62
     4
 10
-10.63245553203378
 20
16.7000000000001
 30
0.0
 11
-8.767544467966621
 21
16.7000000000001
 31
0.0
  0
LINE
  5
E6
  8
CENTER
 62
     4
 10
-9.700000000000198
 20
15.76754446796652
 30
0.0
 11
-9.700000000000198
 21
17.63245553203368
 31
0.0
  0
LINE
  5
E7
  8
CENTER
 62
     4
 10
-10.63245553203378
 20
23.2999999999999
 30
0.0
 11
-8.76754446796663
 21
23.2999999999999
 31
0.0
  0
LINE
  5
E8
  8
CENTER
 62
     4
 10
-9.700000000000204
 20
22.36754446796632
 30
0.0
 11
-9.700000000000204
 21
24.23245553203347
 31
0.0
  0
LINE
  5
E9
  8
CENTER
 62
     4
 10
-10.63245553203367
 20
29.0
 30
0.0
 11
-7.367544467966329
 21
29.0
 31
0.0
  0
LINE
  5
EA
  8
CENTER
 62
     4
 10
-9.000000000000002
 20
27.36754446796633
 30
0.0
 11
-9.000000000000002
 21
30.63245553203367
 31
0.0
  0
LINE
  5
EB
  8
CENTER
 62
     4
 10
-4.232455532033507
 20
29.69999999999999
 30
0.0
 11
-2.367544467966323
 21
29.69999999999999
 31
0.0
  0
LINE
  5
EC
  8
CENTER
 62
     4
 10
-3.299999999999915
 20
28.76754446796639
 30
0.0
 11
-3.299999999999915
 21
30.63245553203358
 31
0.0
  0
LINE
  5
ED
  8
CENTER
 62
     4
 10
2.367544467966444
 20
29.69999999999999
 30
0.0
 11
4.232455532033628
 21
29.69999999999999
 31
0.0
  0
LINE
  5
EE
  8
CENTER
 62
     4
 10
3.300000000000036
 20
28.76754446796639
 30
0.0
 11
3.300000000000036
 21
30.63245553203358
 31
0.0
  0
LINE
  5
EF
  8
CENTER
 62
     4
 10
8.767544467966493
 20
23.29999999999992
 30
0.0
 11
10.63245553203368
 21
23.29999999999992
 31
0.0
  0
LINE
  5
F0
  8
CENTER
 62
     4
 10
9.700000000000085
 20
22.36754446796632
 30
0.0
 11
9.700000000000085
 21
24.23245553203351
 31
0.0
  0
LINE
  5
F1
  8
CENTER
 62
     4
 10
8.767544467966621
 20
16.7000000000001
 30
0.0
 11
10.63245553203378
 21
16.7000000000001
 31
0.0
  0
LINE
  5
F2
  8
CENTER
 62
     4
 10
9.700000000000198
 20
15.76754446796652
 30
0.0
 11
9.700000000000198
 21
17.63245553203368
 31
0.0
  0
LINE
  5
F3
  8
CENTER
 62
     4
 10
8.767544467966589
 20
3.299999999999917
 30
0.0
 11
10.63245553203378
 21
3.299999999999917
 31
0.0
  0
LINE
  5
F4
  8
CENTER
 62
     4
 10
9.700000000000182
 20
2.367544467966323
 30
0.0
 11
9.700000000000182
 21
4.23245553203351
 31
0.0
  0
LINE
  5
F5
  8
CENTER
 62
     4
 10
8.7675444679666
 20
-3.299999999999912
 30
0.0
 11
10.63245553203378
 21
-3.299999999999912
 31
0.0
  0
LINE
  5
F6
  8
CENTER
 62
     4
 10
9.700000000000188
 20
-4.232455532033501
 30
0.0
 11
9.700000000000188
 21
-2.367544467966324
 31
0.0
  0
LINE
  5
F7
  8
CENTER
 62
     4
 10
8.767544467966362
 20
-16.70000000000008
 30
0.0
 11
10.63245553203356
 21
-16.70000000000008
 31
0.0
  0
LINE
  5
F8
  8
CENTER
 62
     4
 10
9.699999999999962
 20
-17.63245553203368
 30
0.0
 11
9.699999999999962
 21
-15.76754446796648
 31
0.0
  0
LINE
  5
F9
  8
CENTER
 62
     4
 10
8.767544467966346
 20
-23.29999999999993
 30
0.0
 11
10.63245553203357
 21
-23.29999999999993
 31
0.0
  0
LINE
  5
FA
  8
CENTER
 62
     4
 10
9.699999999999957
 20
-24.23245553203354
 30
0.0
 11
9.699999999999957
 21
-22.36754446796632
 31
0.0
  0
LINE
  5
FB
  8
CENTER
 62
     4
 10
7.367544467966221
 20
-29.00000000000001
 30
0.0
 11
10.63245553203356
 21
-29.00000000000001
 31
0.0
  0
LINE
  5
FC
  8
CENTER
 62
     4
 10
8.999999999999892
 20
-30.63245553203368
 30
0.0
 11
8.999999999999892
 21
-27.36754446796634
 31
0.0
  0
LINE
  5
FD
  8
CENTER
 62
     4
 10
2.367544467966442
 20
-29.70000000000009
 30
0.0
 11
4.232455532033618
 21
-29.70000000000009
 31
0.0
  0
LINE
  5
FE
  8
CENTER
 62
     4
 10
3.30000000000003
 20
-30.63245553203367
 30
0.0
 11
3.30000000000003
 21
-28.7675444679665
 31
0.0
  0
LINE
  5
FF
  8
CENTER
 62
     4
 10
-4.232455532033514
 20
-29.70000000000008
 30
0.0
 11
-2.367544467966323
 21
-29.70000000000008
 31
0.0
  0
LINE
  5
100
  8
CENTER
 62
     4
 10
-3.299999999999918
 20
-30.63245553203368
 30
0.0
 11
-3.299999999999918
 21
-28.76754446796648
 31
0.0
  0
LINE
  5
101
  8
CENTER
 62
     4
 10
-10.63245553203357
 20
-23.29999999999993
 30
0.0
 11
-8.767544467966351
 21
-23.29999999999993
 31
0.0
  0
LINE
  5
102
  8
CENTER
 62
     4
 10
-9.699999999999958
 20
-24.23245553203354
 30
0.0
 11
-9.699999999999958
 21
-22.36754446796632
 31
0.0
  0
LINE
  5
103
  8
CENTER
 62
     4
 10
-10.63245553203357
 20
-16.70000000000007
 30
0.0
 11
-8.767544467966346
 21
-16.70000000000007
 31
0.0
  0
LINE
  5
104
  8
CENTER
 62
     4
 10
-9.699999999999957
 20
-17.63245553203368
 30
0.0
 11
-9.699999999999957
 21
-15.76754446796646
 31
0.0
  0
LINE
  5
105
  8
CENTER
 62
     4
 10
-10.63245553203368
 20
-3.299999999999948
 30
0.0
 11
-8.767544467966426
 21
-3.299999999999948
 31
0.0
  0
LINE
  5
106
  8
CENTER
 62
     4
 10
-9.700000000000051
 20
-4.232455532033574
 30
0.0
 11
-9.700000000000051
 21
-2.367544467966323
 31
0.0
  0
LINE
  5
107
  8
CENTER
 62
     4
 10
-10.63245553203368
 20
3.299999999999944
 30
0.0
 11
-8.767544467966436
 21
3.299999999999944
 31
0.0
  0
LINE
  5
108
  8
CENTER
 62
     4
 10
-9.700000000000056
 20
2.367544467966323
 30
0.0
 11
-9.700000000000056
 21
4.232455532033565
 31
0.0
  0
LINE
  5
109
  8
CENTER
 62
     4
 10
-8.632455532033555
 20
8.299999999999962
 30
0.0
 11
-6.76754446796634
 21
8.299999999999962
 31
0.0
  0
LINE
  5
10A
  8
CENTER
 62
     4
 10
-7.699999999999948
 20
7.367544467966353
 30
0.0
 11
-7.699999999999948
 21
9.232455532033569
 31
0.0
  0
LINE
  5
10B
  8
CENTER
 62
     4
 10
6.767544467966442
 20
8.299999999999947
 30
0.0
 11
8.632455532033688
 21
8.299999999999947
 31
0.0
  0
LINE
  5
10C
  8
CENTER
 62
     4
 10
7.700000000000065
 20
7.367544467966324
 30
0.0
 11
7.700000000000065
 21
9.232455532033571
 31
0.0
  0
LINE
  5
10D
  8
CENTER
 62
     4
 10
6.767544467966469
 20
11.70000000000007
 30
0.0
 11
8.632455532033688
 21
11.70000000000007
 31
0.0
  0
LINE
  5
10E
  8
CENTER
 62
     4
 10
7.700000000000078
 20
10.76754446796646
 30
0.0
 11
7.700000000000078
 21
12.63245553203368
 31
0.0
  0
LINE
  5
10F
  8
CENTER
 62
     4
 10
-8.632455532033559
 20
11.70000000000008
 30
0.0
 11
-6.76754446796637
 21
11.70000000000008
 31
0.0
  0
LINE
  5
110
  8
CENTER
 62
     4
 10
-7.699999999999964
 20
10.76754446796649
 30
0.0
 11
-7.699999999999964
 21
12.63245553203368
 31
0.0
  0
LINE
  5
111
  8
CENTER
 62
     4
 10
-8.632455532033557
 20
-8.29999999999993
 30
0.0
 11
-6.767544467966347
 21
-8.29999999999993
 31
0.0
  0
LINE
  5
112
  8
CENTER
 62
     4
 10
-7.699999999999952
 20
-9.232455532033535
 30
0.0
 11
-7.699999999999952
 21
-7.367544467966324
 31
0.0
  0
LINE
  5
113
  8
CENTER
 62
     4
 10
-8.632455532033447
 20
-11.70000000000008
 30
0.0
 11
-6.767544467966259
 21
-11.70000000000008
 31
0.0
  0
LINE
  5
114
  8
CENTER
 62
     4
 10
-7.699999999999853
 20
-12.63245553203368
 30
0.0
 11
-7.699999999999853
 21
-10.76754446796649
 31
0.0
  0
LINE
  5
115
  8
CENTER
 62
     4
 10
6.767544467966471
 20
-11.70000000000007
 30
0.0
 11
8.632455532033687
 21
-11.70000000000007
 31
0.0
  0
LINE
  5
116
  8
CENTER
 62
     4
 10
7.700000000000079
 20
-12.63245553203368
 30
0.0
 11
7.700000000000079
 21
-10.76754446796646
 31
0.0
  0
LINE
  5
117
  8
CENTER
 62
     4
 10
6.767544467966434
 20
-8.299999999999928
 30
0.0
 11
8.632455532033687
 21
-8.299999999999928
 31
0.0
  0
LINE
  5
118
  8
CENTER
 62
     4
 10
7.70000000000006
 20
-9.232455532033555
 30
0.0
 11
7.70000000000006
 21
-7.367544467966302
 31
0.0
  0
ATTDEF
  5
119
  8
0
 10
0.0
 20
0.0
 30
0.0
 40
1.0
  1
Misumi
  3

  2
Company
 70
     9
  0
ATTDEF
  5
11A
  8
0
 10
0.0
 20
0.0
 30
0.0
 40
1.0
  1
HFS5-2060-150
  3

  2
NB
 70
     9
  0
ATTDEF
  5
11B
  8
0
 10
0.0
 20
0.0
 30
0.0
 40
1.0
  1
HFS5-2060, HFS5-2080, HFS5-4060, HFS5-4080
  3

  2
NN
 70
     9
  0
ATTDEF
  5
11C
  8
0
 10
0.0
 20
0.0
 30
0.0
 40
1.0
  1
HFS5 Series Aluminum Extrusions 20mm Square -3 or more slots-
  3

  2
NT
 70
     9
  0
ATTDEF
  5
11D
  8
0
 10
0.0
 20
0.0
 30
0.0
 40
1.0
  1
HFS5-2060-150
  3

  2
LINA
 70
     9
  0
ATTDEF
  5
11E
  8
0
 10
0.0
 20
0.0
 30
0.0
 40
1.0
  1
HFS5-2060-150
  3

  2
PN
 70
     9
  0
ATTDEF
  5
11F
  8
0
 10
0.0
 20
0.0
 30
0.0
 40
1.0
  1
HFS5-2060
  3

  2
TPS
 70
     9
  0
ATTDEF
  5
120
  8
0
 10
0.0
 20
0.0
 30
0.0
 40
1.0
  1
A6N01SS-T5 Aluminum Alloy or 6005A-T5 Aluminum Alloy
  3

  2
MAT
 70
     9
  0
ATTDEF
  5
121
  8
0
 10
0.0
 20
0.0
 30
0.0
 40
1.0
  1
Clear Anodize
  3

  2
ST
 70
     9
  0
ATTDEF
  5
122
  8
0
 10
0.0
 20
0.0
 30
0.0
 40
1.0
  1
20
  3

  2
FRMW
 70
     9
  0
ATTDEF
  5
123
  8
0
 10
0.0
 20
0.0
 30
0.0
 40
1.0
  1
60
  3

  2
FRMH
 70
     9
  0
ATTDEF
  5
124
  8
0
 10
0.0
 20
0.0
 30
0.0
 40
1.0
  1
150
  3

  2
L
 70
     9
  0
ATTDEF
  5
125
  8
0
 10
0.0
 20
0.0
 30
0.0
 40
1.0
  1
1.26
  3

  2
MASS
 70
     9
  0
ATTDEF
  5
126
  8
0
 10
0.0
 20
0.0
 30
0.0
 40
1.0
  1
464
  3

  2
SA
 70
     9
  0
ATTDEF
  5
127
  8
0
 10
0.0
 20
0.0
 30
0.0
 40
1.0
  1
1.97x10^ 4
  3

  2
LX
 70
     9
  0
ATTDEF
  5
128
  8
0
 10
0.0
 20
0.0
 30
0.0
 40
1.0
  1
15.98x10^ 4
  3

  2
LY
 70
     9
  0
ATTDEF
  5
129
  8
0
 10
0.0
 20
0.0
 30
0.0
 40
1.0
  1

  3

  2
ALT1
 70
     9
  0
ATTDEF
  5
12A
  8
0
 10
0.0
 20
0.0
 30
0.0
 40
1.0
  1

  3

  2
ALT2
 70
     9
  0
ATTDEF
  5
12B
  8
0
 10
0.0
 20
0.0
 30
0.0
 40
1.0
  1
 '', 'w/o SC (High Precision Cut)', '-SC', 'with SC (High Precision Cut)' 
  3

  2
ALT2ALG
 70
     9
  0
ATTDEF
  5
12C
  8
0
 10
0.0
 20
0.0
 30
0.0
 40
1.0
  1

  3

  2
ALT3
 70
     9
  0
ATTDEF
  5
12D
  8
0
 10
0.0
 20
0.0
 30
0.0
 40
1.0
  1
 '','w/o 45 Degree Cut','1','with 45 Degree Cut' 
  3

  2
ALT3ALG
 70
     9
  0
ATTDEF
  5
12E
  8
0
 10
0.0
 20
0.0
 30
0.0
 40
1.0
  1

  3

  2
CPS
 70
     9
  0
ATTDEF
  5
12F
  8
0
 10
0.0
 20
0.0
 30
0.0
 40
1.0
  1
 '','N/A' 
  3

  2
CPSALG
 70
     9
  0
ATTDEF
  5
130
  8
0
 10
0.0
 20
0.0
 30
0.0
 40
1.0
  1

  3

  2
CDSL
 70
     9
  0
ATTDEF
  5
131
  8
0
 10
0.0
 20
0.0
 30
0.0
 40
1.0
  1
 '','N/A' 
  3

  2
CDSLALG
 70
     9
  0
ATTDEF
  5
132
  8
0
 10
0.0
 20
0.0
 30
0.0
 40
1.0
  1

  3

  2
CDSR
 70
     9
  0
ATTDEF
  5
133
  8
0
 10
0.0
 20
0.0
 30
0.0
 40
1.0
  1
 '','N/A' 
  3

  2
CDSRALG
 70
     9
  0
ATTDEF
  5
134
  8
0
 10
0.0
 20
0.0
 30
0.0
 40
1.0
  1

  3

  2
ALT3PN
 70
     9
  0
ATTDEF
  5
135
  8
0
 10
0.0
 20
0.0
 30
0.0
 40
1.0
  1

  3

  2
ALT4
 70
     9
  0
ATTDEF
  5
136
  8
0
 10
0.0
 20
0.0
 30
0.0
 40
1.0
  1
 '','w/o Fastening Location Wrench Access Hole Alterations','1','with Fastening Location Wrench Access Hole Alterations' 
  3

  2
ALT4ALG
 70
     9
  0
ATTDEF
  5
137
  8
0
 10
0.0
 20
0.0
 30
0.0
 40
1.0
  1
10
  3

  2
HL
 70
     9
  0
ATTDEF
  5
138
  8
0
 10
0.0
 20
0.0
 30
0.0
 40
1.0
  1
10
  3

  2
HR
 70
     9
  0
ATTDEF
  5
139
  8
0
 10
0.0
 20
0.0
 30
0.0
 40
1.0
  1
20
  3

  2
J
 70
     9
  0
ATTDEF
  5
13A
  8
0
 10
0.0
 20
0.0
 30
0.0
 40
1.0
  1
20
  3

  2
K
 70
     9
  0
ATTDEF
  5
13B
  8
0
 10
0.0
 20
0.0
 30
0.0
 40
1.0
  1
7.35
  3

  2
DD4
 70
     9
  0
ATTDEF
  5
13C
  8
0
 10
0.0
 20
0.0
 30
0.0
 40
1.0
  1

  3

  2
HPS
 70
     9
  0
ATTDEF
  5
13D
  8
0
 10
0.0
 20
0.0
 30
0.0
 40
1.0
  1
 '','N/A' 
  3

  2
HPSALG
 70
     9
  0
ATTDEF
  5
13E
  8
0
 10
0.0
 20
0.0
 30
0.0
 40
1.0
  1

  3

  2
NOHL
 70
     9
  0
ATTDEF
  5
13F
  8
0
 10
0.0
 20
0.0
 30
0.0
 40
1.0
  1
 '','N/A' 
  3

  2
NOHLALG
 70
     9
  0
ATTDEF
  5
140
  8
0
 10
0.0
 20
0.0
 30
0.0
 40
1.0
  1

  3

  2
HDL
 70
     9
  0
ATTDEF
  5
141
  8
0
 10
0.0
 20
0.0
 30
0.0
 40
1.0
  1
 '','N/A' 
  3

  2
HDLALG
 70
     9
  0
ATTDEF
  5
142
  8
0
 10
0.0
 20
0.0
 30
0.0
 40
1.0
  1

  3

  2
NOHR
 70
     9
  0
ATTDEF
  5
143
  8
0
 10
0.0
 20
0.0
 30
0.0
 40
1.0
  1
 '','N/A' 
  3

  2
NOHRALG
 70
     9
  0
ATTDEF
  5
144
  8
0
 10
0.0
 20
0.0
 30
0.0
 40
1.0
  1

  3

  2
HDR
 70
     9
  0
ATTDEF
  5
145
  8
0
 10
0.0
 20
0.0
 30
0.0
 40
1.0
  1
 '','N/A' 
  3

  2
HDRALG
 70
     9
  0
ATTDEF
  5
146
  8
0
 10
0.0
 20
0.0
 30
0.0
 40
1.0
  1

  3

  2
ALT41
 70
     9
  0
ATTDEF
  5
147
  8
0
 10
0.0
 20
0.0
 30
0.0
 40
1.0
  1
 '','N/A' 
  3

  2
ALT41ALG
 70
     9
  0
ATTDEF
  5
148
  8
0
 10
0.0
 20
0.0
 30
0.0
 40
1.0
  1

  3

  2
ALT42
 70
     9
  0
ATTDEF
  5
149
  8
0
 10
0.0
 20
0.0
 30
0.0
 40
1.0
  1
 '','N/A' 
  3

  2
ALT42ALG
 70
     9
  0
ATTDEF
  5
14A
  8
0
 10
0.0
 20
0.0
 30
0.0
 40
1.0
  1

  3

  2
ALT4PN
 70
     9
  0
ATTDEF
  5
14B
  8
0
 10
0.0
 20
0.0
 30
0.0
 40
1.0
  1

  3

  2
ALT5H
 70
     9
  0
ATTDEF
  5
14C
  8
0
 10
0.0
 20
0.0
 30
0.0
 40
1.0
  1
 '','w/o Location Specified Wrench Access Hole Alteratons (Horizontal)','1','with Location Specified Wrench Access Hole Alterato
  3

  2
ALT5HALG
 70
     9
  0
ATTDEF
  5
14D
  8
0
 10
0.0
 20
0.0
 30
0.0
 40
1.0
  1
0
  3

  2
NOMH5H
 70
     9
  0
ATTDEF
  5
14E
  8
0
 10
0.0
 20
0.0
 30
0.0
 40
1.0
  1
5.000
  3

  2
NOMH5HMAX
 70
     9
  0
ATTDEF
  5
14F
  8
0
 10
0.0
 20
0.0
 30
0.0
 40
1.0
  1
[0]
  3

  2
NOMH5HALG
 70
     9
  0
ATTDEF
  5
150
  8
0
 10
0.0
 20
0.0
 30
0.0
 40
1.0
  1
0
  3

  2
AH
 70
     9
  0
ATTDEF
  5
151
  8
0
 10
0.0
 20
0.0
 30
0.0
 40
1.0
  1
7.000
  3

  2
AHMIN
 70
     9
  0
ATTDEF
  5
152
  8
0
 10
0.0
 20
0.0
 30
0.0
 40
1.0
  1
152.350
  3

  2
AHMAX
 70
     9
  0
ATTDEF
  5
153
  8
0
 10
0.0
 20
0.0
 30
0.0
 40
1.0
  1
[0]
  3

  2
AHALG
 70
     9
  0
ATTDEF
  5
154
  8
0
 10
0.0
 20
0.0
 30
0.0
 40
1.0
  1
0
  3

  2
BH
 70
     9
  0
ATTDEF
  5
155
  8
0
 10
0.0
 20
0.0
 30
0.0
 40
1.0
  1
10.000
  3

  2
BHMIN
 70
     9
  0
ATTDEF
  5
156
  8
0
 10
0.0
 20
0.0
 30
0.0
 40
1.0
  1
161.700
  3

  2
BHMAX
 70
     9
  0
ATTDEF
  5
157
  8
0
 10
0.0
 20
0.0
 30
0.0
 40
1.0
  1
[0]
  3

  2
BHALG
 70
     9
  0
ATTDEF
  5
158
  8
0
 10
0.0
 20
0.0
 30
0.0
 40
1.0
  1
0
  3

  2
CH
 70
     9
  0
ATTDEF
  5
159
  8
0
 10
0.0
 20
0.0
 30
0.0
 40
1.0
  1
10.000
  3

  2
CHMIN
 70
     9
  0
ATTDEF
  5
15A
  8
0
 10
0.0
 20
0.0
 30
0.0
 40
1.0
  1
171.050
  3

  2
CHMAX
 70
     9
  0
ATTDEF
  5
15B
  8
0
 10
0.0
 20
0.0
 30
0.0
 40
1.0
  1
[0]
  3

  2
CHALG
 70
     9
  0
ATTDEF
  5
15C
  8
0
 10
0.0
 20
0.0
 30
0.0
 40
1.0
  1
0
  3

  2
DH
 70
     9
  0
ATTDEF
  5
15D
  8
0
 10
0.0
 20
0.0
 30
0.0
 40
1.0
  1
10.000
  3

  2
DHMIN
 70
     9
  0
ATTDEF
  5
15E
  8
0
 10
0.0
 20
0.0
 30
0.0
 40
1.0
  1
180.400
  3

  2
DHMAX
 70
     9
  0
ATTDEF
  5
15F
  8
0
 10
0.0
 20
0.0
 30
0.0
 40
1.0
  1
[0]
  3

  2
DHALG
 70
     9
  0
ATTDEF
  5
160
  8
0
 10
0.0
 20
0.0
 30
0.0
 40
1.0
  1
0
  3

  2
EH
 70
     9
  0
ATTDEF
  5
161
  8
0
 10
0.0
 20
0.0
 30
0.0
 40
1.0
  1
10.000
  3

  2
EHMIN
 70
     9
  0
ATTDEF
  5
162
  8
0
 10
0.0
 20
0.0
 30
0.0
 40
1.0
  1
143.000
  3

  2
EHMAX
 70
     9
  0
ATTDEF
  5
163
  8
0
 10
0.0
 20
0.0
 30
0.0
 40
1.0
  1
[0]
  3

  2
EHALG
 70
     9
  0
ATTDEF
  5
164
  8
0
 10
0.0
 20
0.0
 30
0.0
 40
1.0
  1

  3

  2
ALT5V
 70
     9
  0
ATTDEF
  5
165
  8
0
 10
0.0
 20
0.0
 30
0.0
 40
1.0
  1
 '','w/o Location Specified Wrench Access Hole Alteratons (Vertical)','1','with Location Specified Wrench Access Hole Alteratons
  3

  2
ALT5VALG
 70
     9
  0
ATTDEF
  5
166
  8
0
 10
0.0
 20
0.0
 30
0.0
 40
1.0
  1
0
  3

  2
NOMH5V
 70
     9
  0
ATTDEF
  5
167
  8
0
 10
0.0
 20
0.0
 30
0.0
 40
1.0
  1
5.000
  3

  2
NOMH5VMAX
 70
     9
  0
ATTDEF
  5
168
  8
0
 10
0.0
 20
0.0
 30
0.0
 40
1.0
  1
[0]
  3

  2
NOMH5VALG
 70
     9
  0
ATTDEF
  5
169
  8
0
 10
0.0
 20
0.0
 30
0.0
 40
1.0
  1
0
  3

  2
AV
 70
     9
  0
ATTDEF
  5
16A
  8
0
 10
0.0
 20
0.0
 30
0.0
 40
1.0
  1
7.000
  3

  2
AVMIN
 70
     9
  0
ATTDEF
  5
16B
  8
0
 10
0.0
 20
0.0
 30
0.0
 40
1.0
  1
152.350
  3

  2
AVMAX
 70
     9
  0
ATTDEF
  5
16C
  8
0
 10
0.0
 20
0.0
 30
0.0
 40
1.0
  1
[0]
  3

  2
AVALG
 70
     9
  0
ATTDEF
  5
16D
  8
0
 10
0.0
 20
0.0
 30
0.0
 40
1.0
  1
0
  3

  2
BV
 70
     9
  0
ATTDEF
  5
16E
  8
0
 10
0.0
 20
0.0
 30
0.0
 40
1.0
  1
10.000
  3

  2
BVMIN
 70
     9
  0
ATTDEF
  5
16F
  8
0
 10
0.0
 20
0.0
 30
0.0
 40
1.0
  1
161.700
  3

  2
BVMAX
 70
     9
  0
ATTDEF
  5
170
  8
0
 10
0.0
 20
0.0
 30
0.0
 40
1.0
  1
[0]
  3

  2
BVALG
 70
     9
  0
ATTDEF
  5
171
  8
0
 10
0.0
 20
0.0
 30
0.0
 40
1.0
  1
0
  3

  2
CV
 70
     9
  0
ATTDEF
  5
172
  8
0
 10
0.0
 20
0.0
 30
0.0
 40
1.0
  1
10.000
  3

  2
CVMIN
 70
     9
  0
ATTDEF
  5
173
  8
0
 10
0.0
 20
0.0
 30
0.0
 40
1.0
  1
171.050
  3

  2
CVMAX
 70
     9
  0
ATTDEF
  5
174
  8
0
 10
0.0
 20
0.0
 30
0.0
 40
1.0
  1
[0]
  3

  2
CVALG
 70
     9
  0
ATTDEF
  5
175
  8
0
 10
0.0
 20
0.0
 30
0.0
 40
1.0
  1
0
  3

  2
DV
 70
     9
  0
ATTDEF
  5
176
  8
0
 10
0.0
 20
0.0
 30
0.0
 40
1.0
  1
10.000
  3

  2
DVMIN
 70
     9
  0
ATTDEF
  5
177
  8
0
 10
0.0
 20
0.0
 30
0.0
 40
1.0
  1
180.400
  3

  2
DVMAX
 70
     9
  0
ATTDEF
  5
178
  8
0
 10
0.0
 20
0.0
 30
0.0
 40
1.0
  1
[0]
  3

  2
DVALG
 70
     9
  0
ATTDEF
  5
179
  8
0
 10
0.0
 20
0.0
 30
0.0
 40
1.0
  1
0
  3

  2
EV
 70
     9
  0
ATTDEF
  5
17A
  8
0
 10
0.0
 20
0.0
 30
0.0
 40
1.0
  1
10.000
  3

  2
EVMIN
 70
     9
  0
ATTDEF
  5
17B
  8
0
 10
0.0
 20
0.0
 30
0.0
 40
1.0
  1
143.000
  3

  2
EVMAX
 70
     9
  0
ATTDEF
  5
17C
  8
0
 10
0.0
 20
0.0
 30
0.0
 40
1.0
  1
[0]
  3

  2
EVALG
 70
     9
  0
ATTDEF
  5
17D
  8
0
 10
0.0
 20
0.0
 30
0.0
 40
1.0
  1

  3

  2
ALT5P
 70
     9
  0
ATTDEF
  5
17E
  8
0
 10
0.0
 20
0.0
 30
0.0
 40
1.0
  1
 '','w/o Location Specified Wrench Access Hole Alteratons (Crisscross)','1','with Location Specified Wrench Access Hole Alterato
  3

  2
ALT5PALG
 70
     9
  0
ATTDEF
  5
17F
  8
0
 10
0.0
 20
0.0
 30
0.0
 40
1.0
  1
0
  3

  2
NOMH5P
 70
     9
  0
ATTDEF
  5
180
  8
0
 10
0.0
 20
0.0
 30
0.0
 40
1.0
  1
5.000
  3

  2
NOMH5PMAX
 70
     9
  0
ATTDEF
  5
181
  8
0
 10
0.0
 20
0.0
 30
0.0
 40
1.0
  1
[0]
  3

  2
NOMH5PALG
 70
     9
  0
ATTDEF
  5
182
  8
0
 10
0.0
 20
0.0
 30
0.0
 40
1.0
  1
0
  3

  2
AP
 70
     9
  0
ATTDEF
  5
183
  8
0
 10
0.0
 20
0.0
 30
0.0
 40
1.0
  1
7.000
  3

  2
APMIN
 70
     9
  0
ATTDEF
  5
184
  8
0
 10
0.0
 20
0.0
 30
0.0
 40
1.0
  1
152.350
  3

  2
APMAX
 70
     9
  0
ATTDEF
  5
185
  8
0
 10
0.0
 20
0.0
 30
0.0
 40
1.0
  1
[0]
  3

  2
APALG
 70
     9
  0
ATTDEF
  5
186
  8
0
 10
0.0
 20
0.0
 30
0.0
 40
1.0
  1
0
  3

  2
BP
 70
     9
  0
ATTDEF
  5
187
  8
0
 10
0.0
 20
0.0
 30
0.0
 40
1.0
  1
10.000
  3

  2
BPMIN
 70
     9
  0
ATTDEF
  5
188
  8
0
 10
0.0
 20
0.0
 30
0.0
 40
1.0
  1
161.700
  3

  2
BPMAX
 70
     9
  0
ATTDEF
  5
189
  8
0
 10
0.0
 20
0.0
 30
0.0
 40
1.0
  1
[0]
  3

  2
BPALG
 70
     9
  0
ATTDEF
  5
18A
  8
0
 10
0.0
 20
0.0
 30
0.0
 40
1.0
  1
0
  3

  2
CP
 70
     9
  0
ATTDEF
  5
18B
  8
0
 10
0.0
 20
0.0
 30
0.0
 40
1.0
  1
10.000
  3

  2
CPMIN
 70
     9
  0
ATTDEF
  5
18C
  8
0
 10
0.0
 20
0.0
 30
0.0
 40
1.0
  1
171.050
  3

  2
CPMAX
 70
     9
  0
ATTDEF
  5
18D
  8
0
 10
0.0
 20
0.0
 30
0.0
 40
1.0
  1
[0]
  3

  2
CPALG
 70
     9
  0
ATTDEF
  5
18E
  8
0
 10
0.0
 20
0.0
 30
0.0
 40
1.0
  1
0
  3

  2
DP
 70
     9
  0
ATTDEF
  5
18F
  8
0
 10
0.0
 20
0.0
 30
0.0
 40
1.0
  1
10.000
  3

  2
DPMIN
 70
     9
  0
ATTDEF
  5
190
  8
0
 10
0.0
 20
0.0
 30
0.0
 40
1.0
  1
180.400
  3

  2
DPMAX
 70
     9
  0
ATTDEF
  5
191
  8
0
 10
0.0
 20
0.0
 30
0.0
 40
1.0
  1
[0]
  3

  2
DPALG
 70
     9
  0
ATTDEF
  5
192
  8
0
 10
0.0
 20
0.0
 30
0.0
 40
1.0
  1
0
  3

  2
EP
 70
     9
  0
ATTDEF
  5
193
  8
0
 10
0.0
 20
0.0
 30
0.0
 40
1.0
  1
10.000
  3

  2
EPMIN
 70
     9
  0
ATTDEF
  5
194
  8
0
 10
0.0
 20
0.0
 30
0.0
 40
1.0
  1
143.000
  3

  2
EPMAX
 70
     9
  0
ATTDEF
  5
195
  8
0
 10
0.0
 20
0.0
 30
0.0
 40
1.0
  1
[0]
  3

  2
EPALG
 70
     9
  0
ATTDEF
  5
196
  8
0
 10
0.0
 20
0.0
 30
0.0
 40
1.0
  1

  3

  2
ALT5HPN
 70
     9
  0
ATTDEF
  5
197
  8
0
 10
0.0
 20
0.0
 30
0.0
 40
1.0
  1

  3

  2
ALT5VPN
 70
     9
  0
ATTDEF
  5
198
  8
0
 10
0.0
 20
0.0
 30
0.0
 40
1.0
  1

  3

  2
ALT5PPN
 70
     9
  0
ATTDEF
  5
199
  8
0
 10
0.0
 20
0.0
 30
0.0
 40
1.0
  1

  3

  2
ALT5PN
 70
     9
  0
ATTDEF
  5
19A
  8
0
 10
0.0
 20
0.0
 30
0.0
 40
1.0
  1

  3

  2
ALT6V
 70
     9
  0
ATTDEF
  5
19B
  8
0
 10
0.0
 20
0.0
 30
0.0
 40
1.0
  1
 '','w/o Counterbore Hole in Specified Position (Vertical)','1','with Counterbore Hole in Specified Position (Vertical)' 
  3

  2
ALT6VALG
 70
     9
  0
ATTDEF
  5
19C
  8
0
 10
0.0
 20
0.0
 30
0.0
 40
1.0
  1

  3

  2
ALT6H
 70
     9
  0
ATTDEF
  5
19D
  8
0
 10
0.0
 20
0.0
 30
0.0
 40
1.0
  1
 '','w/o Counterbore Hole in Specified Position (Horizontal)','1','with Counterbore Hole in Specified Position (Horizontal)' 
  3

  2
ALT6HALG
 70
     9
  0
ATTDEF
  5
19E
  8
0
 10
0.0
 20
0.0
 30
0.0
 40
1.0
  1

  3

  2
Z
 70
     9
  0
ATTDEF
  5
19F
  8
0
 10
0.0
 20
0.0
 30
0.0
 40
1.0
  1
 '','N/A' 
  3

  2
ZALG
 70
     9
  0
ATTDEF
  5
1A0
  8
0
 10
0.0
 20
0.0
 30
0.0
 40
1.0
  1
0
  3

  2
NOMH6V
 70
     9
  0
ATTDEF
  5
1A1
  8
0
 10
0.0
 20
0.0
 30
0.0
 40
1.0
  1
5.000
  3

  2
NOMH6VMAX
 70
     9
  0
ATTDEF
  5
1A2
  8
0
 10
0.0
 20
0.0
 30
0.0
 40
1.0
  1
[0]
  3

  2
NOMH6VALG
 70
     9
  0
ATTDEF
  5
1A3
  8
0
 10
0.0
 20
0.0
 30
0.0
 40
1.0
  1
0
  3

  2
NOMH6H
 70
     9
  0
ATTDEF
  5
1A4
  8
0
 10
0.0
 20
0.0
 30
0.0
 40
1.0
  1
5.000
  3

  2
NOMH6HMAX
 70
     9
  0
ATTDEF
  5
1A5
  8
0
 10
0.0
 20
0.0
 30
0.0
 40
1.0
  1
[0]
  3

  2
NOMH6HALG
 70
     9
  0
ATTDEF
  5
1A6
  8
0
 10
0.0
 20
0.0
 30
0.0
 40
1.0
  1
13.0
  3

  2
DD6
 70
     9
  0
ATTDEF
  5
1A7
  8
0
 10
0.0
 20
0.0
 30
0.0
 40
1.0
  1
19.0
  3

  2
DD16
 70
     9
  0
ATTDEF
  5
1A8
  8
0
 10
0.0
 20
0.0
 30
0.0
 40
1.0
  1
0
  3

  2
XA
 70
     9
  0
ATTDEF
  5
1A9
  8
0
 10
0.0
 20
0.0
 30
0.0
 40
1.0
  1
7.000
  3

  2
XAMIN
 70
     9
  0
ATTDEF
  5
1AA
  8
0
 10
0.0
 20
0.0
 30
0.0
 40
1.0
  1
164.000
  3

  2
XAMAX
 70
     9
  0
ATTDEF
  5
1AB
  8
0
 10
0.0
 20
0.0
 30
0.0
 40
1.0
  1
[0]
  3

  2
XAALG
 70
     9
  0
ATTDEF
  5
1AC
  8
0
 10
0.0
 20
0.0
 30
0.0
 40
1.0
  1
0
  3

  2
XB
 70
     9
  0
ATTDEF
  5
1AD
  8
0
 10
0.0
 20
0.0
 30
0.0
 40
1.0
  1
16.000
  3

  2
XBMIN
 70
     9
  0
ATTDEF
  5
1AE
  8
0
 10
0.0
 20
0.0
 30
0.0
 40
1.0
  1
185.000
  3

  2
XBMAX
 70
     9
  0
ATTDEF
  5
1AF
  8
0
 10
0.0
 20
0.0
 30
0.0
 40
1.0
  1
[0]
  3

  2
XBALG
 70
     9
  0
ATTDEF
  5
1B0
  8
0
 10
0.0
 20
0.0
 30
0.0
 40
1.0
  1
0
  3

  2
XC
 70
     9
  0
ATTDEF
  5
1B1
  8
0
 10
0.0
 20
0.0
 30
0.0
 40
1.0
  1
16.000
  3

  2
XCMIN
 70
     9
  0
ATTDEF
  5
1B2
  8
0
 10
0.0
 20
0.0
 30
0.0
 40
1.0
  1
206.000
  3

  2
XCMAX
 70
     9
  0
ATTDEF
  5
1B3
  8
0
 10
0.0
 20
0.0
 30
0.0
 40
1.0
  1
[0]
  3

  2
XCALG
 70
     9
  0
ATTDEF
  5
1B4
  8
0
 10
0.0
 20
0.0
 30
0.0
 40
1.0
  1
0
  3

  2
XD
 70
     9
  0
ATTDEF
  5
1B5
  8
0
 10
0.0
 20
0.0
 30
0.0
 40
1.0
  1
16.000
  3

  2
XDMIN
 70
     9
  0
ATTDEF
  5
1B6
  8
0
 10
0.0
 20
0.0
 30
0.0
 40
1.0
  1
227.000
  3

  2
XDMAX
 70
     9
  0
ATTDEF
  5
1B7
  8
0
 10
0.0
 20
0.0
 30
0.0
 40
1.0
  1
[0]
  3

  2
XDALG
 70
     9
  0
ATTDEF
  5
1B8
  8
0
 10
0.0
 20
0.0
 30
0.0
 40
1.0
  1
0
  3

  2
XE
 70
     9
  0
ATTDEF
  5
1B9
  8
0
 10
0.0
 20
0.0
 30
0.0
 40
1.0
  1
16.000
  3

  2
XEMIN
 70
     9
  0
ATTDEF
  5
1BA
  8
0
 10
0.0
 20
0.0
 30
0.0
 40
1.0
  1
143.000
  3

  2
XEMAX
 70
     9
  0
ATTDEF
  5
1BB
  8
0
 10
0.0
 20
0.0
 30
0.0
 40
1.0
  1
[0]
  3

  2
XEALG
 70
     9
  0
ATTDEF
  5
1BC
  8
0
 10
0.0
 20
0.0
 30
0.0
 40
1.0
  1
0
  3

  2
YA
 70
     9
  0
ATTDEF
  5
1BD
  8
0
 10
0.0
 20
0.0
 30
0.0
 40
1.0
  1
7.000
  3

  2
YAMIN
 70
     9
  0
ATTDEF
  5
1BE
  8
0
 10
0.0
 20
0.0
 30
0.0
 40
1.0
  1
164.000
  3

  2
YAMAX
 70
     9
  0
ATTDEF
  5
1BF
  8
0
 10
0.0
 20
0.0
 30
0.0
 40
1.0
  1
[0]
  3

  2
YAALG
 70
     9
  0
ATTDEF
  5
1C0
  8
0
 10
0.0
 20
0.0
 30
0.0
 40
1.0
  1
0
  3

  2
YB
 70
     9
  0
ATTDEF
  5
1C1
  8
0
 10
0.0
 20
0.0
 30
0.0
 40
1.0
  1
16.000
  3

  2
YBMIN
 70
     9
  0
ATTDEF
  5
1C2
  8
0
 10
0.0
 20
0.0
 30
0.0
 40
1.0
  1
185.000
  3

  2
YBMAX
 70
     9
  0
ATTDEF
  5
1C3
  8
0
 10
0.0
 20
0.0
 30
0.0
 40
1.0
  1
[0]
  3

  2
YBALG
 70
     9
  0
ATTDEF
  5
1C4
  8
0
 10
0.0
 20
0.0
 30
0.0
 40
1.0
  1
0
  3

  2
YC
 70
     9
  0
ATTDEF
  5
1C5
  8
0
 10
0.0
 20
0.0
 30
0.0
 40
1.0
  1
16.000
  3

  2
YCMIN
 70
     9
  0
ATTDEF
  5
1C6
  8
0
 10
0.0
 20
0.0
 30
0.0
 40
1.0
  1
206.000
  3

  2
YCMAX
 70
     9
  0
ATTDEF
  5
1C7
  8
0
 10
0.0
 20
0.0
 30
0.0
 40
1.0
  1
[0]
  3

  2
YCALG
 70
     9
  0
ATTDEF
  5
1C8
  8
0
 10
0.0
 20
0.0
 30
0.0
 40
1.0
  1
0
  3

  2
YD
 70
     9
  0
ATTDEF
  5
1C9
  8
0
 10
0.0
 20
0.0
 30
0.0
 40
1.0
  1
16.000
  3

  2
YDMIN
 70
     9
  0
ATTDEF
  5
1CA
  8
0
 10
0.0
 20
0.0
 30
0.0
 40
1.0
  1
227.000
  3

  2
YDMAX
 70
     9
  0
ATTDEF
  5
1CB
  8
0
 10
0.0
 20
0.0
 30
0.0
 40
1.0
  1
[0]
  3

  2
YDALG
 70
     9
  0
ATTDEF
  5
1CC
  8
0
 10
0.0
 20
0.0
 30
0.0
 40
1.0
  1
0
  3

  2
YE
 70
     9
  0
ATTDEF
  5
1CD
  8
0
 10
0.0
 20
0.0
 30
0.0
 40
1.0
  1
16.000
  3

  2
YEMIN
 70
     9
  0
ATTDEF
  5
1CE
  8
0
 10
0.0
 20
0.0
 30
0.0
 40
1.0
  1
143.000
  3

  2
YEMAX
 70
     9
  0
ATTDEF
  5
1CF
  8
0
 10
0.0
 20
0.0
 30
0.0
 40
1.0
  1
[0]
  3

  2
YEALG
 70
     9
  0
ATTDEF
  5
1D0
  8
0
 10
0.0
 20
0.0
 30
0.0
 40
1.0
  1

  3

  2
ALT6XPN
 70
     9
  0
ATTDEF
  5
1D1
  8
0
 10
0.0
 20
0.0
 30
0.0
 40
1.0
  1

  3

  2
ALT6YPN
 70
     9
  0
ATTDEF
  5
1D2
  8
0
 10
0.0
 20
0.0
 30
0.0
 40
1.0
  1

  3

  2
ALT6PN
 70
     9
  0
ATTDEF
  5
1D3
  8
0
 10
0.0
 20
0.0
 30
0.0
 40
1.0
  1

  3

  2
ALT7
 70
     9
  0
ATTDEF
  5
1D4
  8
0
 10
0.0
 20
0.0
 30
0.0
 40
1.0
  1
 '','w/o M Type Hole Alteration','1','with M Type Hole Alteration' 
  3

  2
ALT7ALG
 70
     9
  0
ATTDEF
  5
1D5
  8
0
 10
0.0
 20
0.0
 30
0.0
 40
1.0
  1

  3

  2
HPS7
 70
     9
  0
ATTDEF
  5
1D6
  8
0
 10
0.0
 20
0.0
 30
0.0
 40
1.0
  1
 '','N/A' 
  3

  2
HPS7ALG
 70
     9
  0
ATTDEF
  5
1D7
  8
0
 10
0.0
 20
0.0
 30
0.0
 40
1.0
  1

  3

  2
HDL7
 70
     9
  0
ATTDEF
  5
1D8
  8
0
 10
0.0
 20
0.0
 30
0.0
 40
1.0
  1
 '','N/A' 
  3

  2
HDL7ALG
 70
     9
  0
ATTDEF
  5
1D9
  8
0
 10
0.0
 20
0.0
 30
0.0
 40
1.0
  1

  3

  2
HDR7
 70
     9
  0
ATTDEF
  5
1DA
  8
0
 10
0.0
 20
0.0
 30
0.0
 40
1.0
  1
 '','N/A' 
  3

  2
HDR7ALG
 70
     9
  0
ATTDEF
  5
1DB
  8
0
 10
0.0
 20
0.0
 30
0.0
 40
1.0
  1
10
  3

  2
H7
 70
     9
  0
ATTDEF
  5
1DC
  8
0
 10
0.0
 20
0.0
 30
0.0
 40
1.0
  1
7.1
  3

  2
D7
 70
     9
  0
ATTDEF
  5
1DD
  8
0
 10
0.0
 20
0.0
 30
0.0
 40
1.0
  1

  3

  2
ALT7PN
 70
     9
  0
ATTDEF
  5
1DE
  8
0
 10
0.0
 20
0.0
 30
0.0
 40
1.0
  1

  3

  2
ALT8T
 70
     9
  0
ATTDEF
  5
1DF
  8
0
 10
0.0
 20
0.0
 30
0.0
 40
1.0
  1
 '','w/o L Type Hole Alteration (Top)','1','with L Type Hole Alteration (Top)' 
  3

  2
ALT8TALG
 70
     9
  0
ATTDEF
  5
1E0
  8
0
 10
0.0
 20
0.0
 30
0.0
 40
1.0
  1

  3

  2
ALT8B
 70
     9
  0
ATTDEF
  5
1E1
  8
0
 10
0.0
 20
0.0
 30
0.0
 40
1.0
  1
 '','w/o L Type Hole Alteration (Bottom)','1','with L Type Hole Alteration (Bottom)' 
  3

  2
ALT8BALG
 70
     9
  0
ATTDEF
  5
1E2
  8
0
 10
0.0
 20
0.0
 30
0.0
 40
1.0
  1
0
  3

  2
HQ
 70
     9
  0
ATTDEF
  5
1E3
  8
0
 10
0.0
 20
0.0
 30
0.0
 40
1.0
  1
0
  3

  2
HQALG
 70
     9
  0
ATTDEF
  5
1E4
  8
0
 10
0.0
 20
0.0
 30
0.0
 40
1.0
  1
0
  3

  2
JLP
 70
     9
  0
ATTDEF
  5
1E5
  8
0
 10
0.0
 20
0.0
 30
0.0
 40
1.0
  1
12.000
  3

  2
JLPMIN
 70
     9
  0
ATTDEF
  5
1E6
  8
0
 10
0.0
 20
0.0
 30
0.0
 40
1.0
  1
0.000
  3

  2
JLPMAX
 70
     9
  0
ATTDEF
  5
1E7
  8
0
 10
0.0
 20
0.0
 30
0.0
 40
1.0
  1
[0]
  3

  2
JLPALG
 70
     9
  0
ATTDEF
  5
1E8
  8
0
 10
0.0
 20
0.0
 30
0.0
 40
1.0
  1
0
  3

  2
KLP
 70
     9
  0
ATTDEF
  5
1E9
  8
0
 10
0.0
 20
0.0
 30
0.0
 40
1.0
  1
12.000
  3

  2
KLPMIN
 70
     9
  0
ATTDEF
  5
1EA
  8
0
 10
0.0
 20
0.0
 30
0.0
 40
1.0
  1
0.000
  3

  2
KLPMAX
 70
     9
  0
ATTDEF
  5
1EB
  8
0
 10
0.0
 20
0.0
 30
0.0
 40
1.0
  1
[0]
  3

  2
KLPALG
 70
     9
  0
ATTDEF
  5
1EC
  8
0
 10
0.0
 20
0.0
 30
0.0
 40
1.0
  1
0.000
  3

  2
L1
 70
     9
  0
ATTDEF
  5
1ED
  8
0
 10
0.0
 20
0.0
 30
0.0
 40
1.0
  1
7.1
  3

  2
D8
 70
     9
  0
ATTDEF
  5
1EE
  8
0
 10
0.0
 20
0.0
 30
0.0
 40
1.0
  1

  3

  2
ALT8PN
 70
     9
  0
ATTDEF
  5
1EF
  8
0
 10
0.0
 20
0.0
 30
0.0
 40
1.0
  1
DUMMY
  3

  2
KT
 70
     9
  0
ENDSEC
  0
EOF
