  0
SECTION
  2
HEADER
  9
$ACADVER
  1
AC1009
  9
$DWGCODEPAGE
  3
dos850
  9
$INSBASE
 10
0.0
 20
0.0
 30
0.0
  9
$EXTMIN
 10
0.0
 20
0.0
 30
0.0
  9
$EXTMAX
 10
1000.0
 20
1000.0
 30
1000.0
  9
$LIMMIN
 10
0.0
 20
0.0
  9
$LIMMAX
 10
420.0
 20
297.0
  9
$ORTHOMODE
 70
     0
  9
$REGENMODE
 70
     1
  9
$FILLMODE
 70
     1
  9
$QTEXTMODE
 70
     0
  9
$MIRRTEXT
 70
     1
  9
$DRAGMODE
 70
     2
  9
$LTSCALE
 40
1.0
  9
$OSMODE
 70
    37
  9
$ATTMODE
 70
     1
  9
$TEXTSIZE
 40
2.5
  9
$TRACEWID
 40
1.0
  9
$TEXTSTYLE
  7
STANDARD
  9
$CLAYER
  8
0
  9
$CELTYPE
  6
BYLAYER
  9
$CECOLOR
 62
   256
  9
$DIMSCALE
 40
1.0
  9
$DIMASZ
 40
2.5
  9
$DIMEXO
 40
0.625
  9
$DIMDLI
 40
3.75
  9
$DIMRND
 40
0.0
  9
$DIMDLE
 40
0.0
  9
$DIMEXE
 40
1.25
  9
$DIMTP
 40
0.0
  9
$DIMTM
 40
0.0
  9
$DIMTXT
 40
2.5
  9
$DIMCEN
 40
2.5
  9
$DIMTSZ
 40
0.0
  9
$DIMTOL
 70
     0
  9
$DIMLIM
 70
     0
  9
$DIMTIH
 70
     0
  9
$DIMTOH
 70
     0
  9
$DIMSE1
 70
     0
  9
$DIMSE2
 70
     0
  9
$DIMTAD
 70
     1
  9
$DIMZIN
 70
     8
  9
$DIMBLK
  1

  9
$DIMASO
 70
     1
  9
$DIMSHO
 70
     1
  9
$DIMPOST
  1

  9
$DIMAPOST
  1

  9
$DIMALT
 70
     0
  9
$DIMALTD
 70
     3
  9
$DIMALTF
 40
0.03937007874016
  9
$DIMLFAC
 40
1.0
  9
$DIMTOFL
 70
     1
  9
$DIMTVP
 40
0.0
  9
$DIMTIX
 70
     0
  9
$DIMSOXD
 70
     0
  9
$DIMSAH
 70
     0
  9
$DIMBLK1
  1

  9
$DIMBLK2
  1

  9
$DIMSTYLE
  2
ISO-25
  9
$DIMCLRD
 70
     0
  9
$DIMCLRE
 70
     0
  9
$DIMCLRT
 70
     0
  9
$DIMTFAC
 40
1.0
  9
$DIMGAP
 40
0.625
  9
$LUNITS
 70
     2
  9
$LUPREC
 70
     4
  9
$SKETCHINC
 40
1.0
  9
$FILLETRAD
 40
10.0
  9
$AUNITS
 70
     0
  9
$AUPREC
 70
     0
  9
$MENU
  1
.
  9
$ELEVATION
 40
0.0
  9
$PELEVATION
 40
0.0
  9
$THICKNESS
 40
0.0
  9
$LIMCHECK
 70
     0
  9
$CHAMFERA
 40
10.0
  9
$CHAMFERB
 40
10.0
  9
$SKPOLY
 70
     0
  9
$TDCREATE
 40
2456620.923761574
  9
$TDUPDATE
 40
2456620.923761574
  9
$TDINDWG
 40
0.0000000116
  9
$TDUSRTIMER
 40
0.0000000116
  9
$USRTIMER
 70
     1
  9
$ANGBASE
 50
0.0
  9
$ANGDIR
 70
     0
  9
$PDMODE
 70
     0
  9
$PDSIZE
 40
0.0
  9
$PLINEWID
 40
0.0
  9
$COORDS
 70
     1
  9
$SPLFRAME
 70
     0
  9
$SPLINETYPE
 70
     6
  9
$SPLINESEGS
 70
     8
  9
$ATTDIA
 70
     0
  9
$ATTREQ
 70
     1
  9
$HANDLING
 70
     1
  9
$HANDSEED
  5
1AE
  9
$SURFTAB1
 70
     6
  9
$SURFTAB2
 70
     6
  9
$SURFTYPE
 70
     6
  9
$SURFU
 70
     6
  9
$SURFV
 70
     6
  9
$UCSNAME
  2

  9
$UCSORG
 10
0.0
 20
0.0
 30
0.0
  9
$UCSXDIR
 10
1.0
 20
0.0
 30
0.0
  9
$UCSYDIR
 10
0.0
 20
1.0
 30
0.0
  9
$PUCSNAME
  2

  9
$PUCSORG
 10
0.0
 20
0.0
 30
0.0
  9
$PUCSXDIR
 10
1.0
 20
0.0
 30
0.0
  9
$PUCSYDIR
 10
0.0
 20
1.0
 30
0.0
  9
$USERI1
 70
     0
  9
$USERI2
 70
     0
  9
$USERI3
 70
     0
  9
$USERI4
 70
     0
  9
$USERI5
 70
     0
  9
$USERR1
 40
0.0
  9
$USERR2
 40
0.0
  9
$USERR3
 40
0.0
  9
$USERR4
 40
0.0
  9
$USERR5
 40
0.0
  9
$WORLDVIEW
 70
     1
  9
$SHADEDGE
 70
     3
  9
$SHADEDIF
 70
    70
  9
$TILEMODE
 70
     1
  9
$MAXACTVP
 70
    64
  9
$PLIMCHECK
 70
     0
  9
$PEXTMIN
 10
0.0
 20
0.0
 30
0.0
  9
$PEXTMAX
 10
1000.0
 20
1000.0
 30
0.0
  9
$PLIMMIN
 10
0.0
 20
0.0
  9
$PLIMMAX
 10
100.0
 20
100.0
  9
$UNITMODE
 70
     0
  9
$VISRETAIN
 70
     1
  9
$PLINEGEN
 70
     0
  9
$PSLTSCALE
 70
     1
  0
ENDSEC
  0
SECTION
  2
TABLES
  0
TABLE
  2
VPORT
 70
     1
  0
VPORT
  2
*ACTIVE
 70
     0
 10
0.0
 20
0.0
 11
1.0
 21
1.0
 12
0.0
 22
-0.0000000000002558
 13
0.0
 23
0.0
 14
10.0
 24
10.0
 15
10.0
 25
10.0
 16
0.0
 26
0.0
 36
1.0
 17
0.0
 27
0.0
 37
0.0
 40
41.71231573482004
 41
1.972972972850328
 42
50.0
 43
0.0
 44
0.0
 50
0.0
 51
0.0
 71
     0
 72
   100
 73
     1
 74
     3
 75
     0
 76
     0
 77
     0
 78
     0
  0
ENDTAB
  0
TABLE
  2
LTYPE
 70
     4
  0
LTYPE
  2
CONTINUOUS
 70
     0
  3
Solid line
 72
    65
 73
     0
 40
0.0
  0
LTYPE
  2
CNS_SOLID
 70
     0
  3

 72
    65
 73
     0
 40
0.0
  0
LTYPE
  2
CNS_DASHED
 70
     0
  3

 72
    65
 73
     2
 40
2.0
 49
1.0
 49
-1.0
  0
LTYPE
  2
CNS_CENTER
 70
     0
  3

 72
    65
 73
     4
 40
2.0
 49
0.45
 49
-0.5
 49
0.05
 49
-0.5
  0
ENDTAB
  0
TABLE
  2
LAYER
 70
     8
  0
LAYER
  2
0
 70
     0
 62
     7
  6
CONTINUOUS
  0
LAYER
  2
VIS
 70
     0
 62
     7
  6
CNS_SOLID
  0
LAYER
  2
THIN
 70
     0
 62
     7
  6
CNS_SOLID
  0
LAYER
  2
HIDDEN
 70
     0
 62
     7
  6
CNS_DASHED
  0
LAYER
  2
CENTER
 70
     0
 62
     7
  6
CNS_CENTER
  0
LAYER
  2
CENTER1
 70
     0
 62
     7
  6
CNS_CENTER
  0
LAYER
  2
THREAD
 70
     0
 62
     7
  6
CNS_SOLID
  0
LAYER
  2
ATTRIB
 70
     0
 62
     7
  6
CNS_SOLID
  0
ENDTAB
  0
TABLE
  2
STYLE
 70
     1
  0
STYLE
  2
STANDARD
 70
     0
 40
0.0
 41
1.0
 50
0.0
 71
     0
 42
2.5
  3
txt
  4

  0
ENDTAB
  0
TABLE
  2
VIEW
 70
     0
  0
ENDTAB
  0
TABLE
  2
UCS
 70
     0
  0
ENDTAB
  0
TABLE
  2
APPID
 70
     1
  0
APPID
  2
ACAD
 70
     0
  0
ENDTAB
  0
TABLE
  2
DIMSTYLE
 70
     1
  0
DIMSTYLE
  2
ISO-25
 70
     0
  3

  4

  5

  6

  7

 40
1.0
 41
2.5
 42
0.625
 43
3.75
 44
1.25
 45
0.0
 46
0.0
 47
0.0
 48
0.0
140
2.5
141
2.5
142
0.0
143
0.03937007874016
144
1.0
145
0.0
146
1.0
147
0.625
 71
     0
 72
     0
 73
     0
 74
     0
 75
     0
 76
     0
 77
     1
 78
     8
170
     0
171
     3
172
     1
173
     0
174
     0
175
     0
176
     0
177
     0
178
     0
  0
ENDTAB
  0
ENDSEC
  0
SECTION
  2
BLOCKS
  0
BLOCK
  8
0
  2
$MODEL_SPACE
 70
     0
 10
0.0
 20
0.0
 30
0.0
  3
$MODEL_SPACE
  1

  0
ENDBLK
  5
21
  8
0
  0
BLOCK
 67
     1
  8
0
  2
$PAPER_SPACE
 70
     0
 10
0.0
 20
0.0
 30
0.0
  3
$PAPER_SPACE
  1

  0
ENDBLK
  5
1D
 67
     1
  8
0
  0
ENDSEC
  0
SECTION
  2
ENTITIES
  0
LINE
  5
34
  8
VIS
 62
     1
 10
-10.0000000000002
 20
-13.3000005000002
 30
0.0
 11
-10.0000000000002
 21
-19.0000000000003
 31
0.0
  0
ARC
  5
35
  8
VIS
 62
     1
 10
-9.70000000000031
 20
-13.30000050000009
 30
0.0
 40
0.2999999999998906
 50
90.0
 51
179.9999991462264
  0
LINE
  5
36
  8
VIS
 62
     1
 10
-8.00000000000021
 20
-13.0000005000002
 30
0.0
 11
-9.70000000000026
 21
-13.0000005000002
 31
0.0
  0
LINE
  5
37
  8
VIS
 62
     1
 10
-8.00000000000021
 20
-16.0000005000001
 30
0.0
 11
-8.00000000000021
 21
-13.0000005000002
 31
0.0
  0
LINE
  5
38
  8
VIS
 62
     1
 10
-7.06063650001998
 20
-16.0000005000001
 30
0.0
 11
-8.00000000000021
 21
-16.0000005000001
 31
0.0
  0
LINE
  5
39
  8
VIS
 62
     1
 10
-4.00000000000021
 20
-12.9393575000006
 30
0.0
 11
-7.06063650001998
 21
-16.0000005000001
 31
0.0
  0
LINE
  5
3A
  8
VIS
 62
     1
 10
-4.00000000000032
 20
-10.5196157422704
 30
0.0
 11
-4.00000000000021
 21
-12.9393575000006
 31
0.0
  0
LINE
  5
3B
  8
VIS
 62
     1
 10
-3.70000000000048
 20
-10.0000005000002
 30
0.0
 11
-4.00000000000032
 21
-10.5196157422704
 31
0.0
  0
LINE
  5
3C
  8
VIS
 62
     1
 10
-4.00000000000032
 20
-9.48038525772966
 30
0.0
 11
-3.70000000000048
 21
-10.0000005000002
 31
0.0
  0
LINE
  5
3D
  8
VIS
 62
     1
 10
-4.00000000000021
 20
-7.06066880000641
 30
0.0
 11
-4.00000000000032
 21
-9.48038525772966
 31
0.0
  0
LINE
  5
3E
  8
VIS
 62
     1
 10
-7.06066256998882
 20
-4.00000050000009
 30
0.0
 11
-4.00000000000021
 21
-7.06066880000641
 31
0.0
  0
LINE
  5
3F
  8
VIS
 62
     1
 10
-8.00000000000032
 20
-4.00000050000009
 30
0.0
 11
-7.06066256998882
 21
-4.00000050000009
 31
0.0
  0
LINE
  5
40
  8
VIS
 62
     1
 10
-8.00000000000021
 20
-7.00000050000021
 30
0.0
 11
-8.00000000000032
 21
-4.00000050000009
 31
0.0
  0
LINE
  5
41
  8
VIS
 62
     1
 10
-9.700000000000259
 20
-7.00000050000021
 30
0.0
 11
-8.00000000000021
 21
-7.00000050000021
 31
0.0
  0
ARC
  5
42
  8
VIS
 62
     1
 10
-9.700000000000289
 20
-6.700000500000299
 30
0.0
 40
0.2999999999999119
 50
180.0
 51
270.0
  0
LINE
  5
43
  8
VIS
 62
     1
 10
-10.0000000000002
 20
6.69999999999974
 30
0.0
 11
-10.0000000000002
 21
-6.700000500000201
 31
0.0
  0
ARC
  5
44
  8
VIS
 62
     1
 10
-9.700000000000303
 20
6.699999999999841
 30
0.0
 40
0.2999999999998986
 50
90.0
 51
180.0
  0
LINE
  5
45
  8
VIS
 62
     1
 10
-8.00000000000021
 20
6.99999999999974
 30
0.0
 11
-9.70000000000026
 21
6.99999999999974
 31
0.0
  0
LINE
  5
46
  8
VIS
 62
     1
 10
-8.00000000000021
 20
3.99999999999979
 30
0.0
 11
-8.00000000000021
 21
6.99999999999974
 31
0.0
  0
LINE
  5
47
  8
VIS
 62
     1
 10
-7.060658999999202
 20
3.99999999999979
 30
0.0
 11
-8.00000000000021
 21
3.99999999999979
 31
0.0
  0
LINE
  5
48
  8
VIS
 62
     1
 10
-4.00000000000021
 20
7.06065999999801
 30
0.0
 11
-7.060658999999202
 21
3.99999999999979
 31
0.0
  0
LINE
  5
49
  8
VIS
 62
     1
 10
-4.00000000000032
 20
9.48038475772946
 30
0.0
 11
-4.00000000000021
 21
7.06065999999801
 31
0.0
  0
LINE
  5
4A
  8
VIS
 62
     1
 10
-3.70000000000037
 20
9.99999999999973
 30
0.0
 11
-4.00000000000032
 21
9.48038475772946
 31
0.0
  0
LINE
  5
4B
  8
VIS
 62
     1
 10
-3.99999999999987
 20
10.5196152422698
 30
0.0
 11
-3.70000000000037
 21
9.99999999999973
 31
0.0
  0
LINE
  5
4C
  8
VIS
 62
     1
 10
-3.99999999999998
 20
12.9393565000017
 30
0.0
 11
-3.99999999999987
 21
10.5196152422698
 31
0.0
  0
LINE
  5
4D
  8
VIS
 62
     1
 10
-7.060642000001869
 20
15.9999999999997
 30
0.0
 11
-3.99999999999998
 21
12.9393565000017
 31
0.0
  0
LINE
  5
4E
  8
VIS
 62
     1
 10
-8.00000000000021
 20
15.9999999999997
 30
0.0
 11
-7.060642000001869
 21
15.9999999999997
 31
0.0
  0
LINE
  5
4F
  8
VIS
 62
     1
 10
-8.00000000000021
 20
12.9999999999997
 30
0.0
 11
-8.00000000000021
 21
15.9999999999997
 31
0.0
  0
LINE
  5
50
  8
VIS
 62
     1
 10
-9.70000000000026
 20
12.9999999999997
 30
0.0
 11
-8.00000000000021
 21
12.9999999999997
 31
0.0
  0
ARC
  5
51
  8
VIS
 62
     1
 10
-9.700000000000307
 20
13.29999999999959
 30
0.0
 40
0.2999999999998941
 50
180.0
 51
270.0
  0
LINE
  5
52
  8
VIS
 62
     1
 10
-10.0000000000002
 20
18.9999999999997
 30
0.0
 11
-10.0000000000002
 21
13.2999999999997
 31
0.0
  0
ARC
  5
53
  8
VIS
 62
     1
 10
-8.999999999999844
 20
18.99999999999945
 30
0.0
 40
1.000000000000355
 50
90.0
 51
180.0
  0
LINE
  5
54
  8
VIS
 62
     1
 10
-3.29999999999994
 20
19.9999999999998
 30
0.0
 11
-9.000000000000091
 21
19.9999999999998
 31
0.0
  0
ARC
  5
55
  8
VIS
 62
     1
 10
-3.299999999999919
 20
19.69999999999986
 30
0.0
 40
0.2999999999999394
 50
0.0
 51
90.0
  0
LINE
  5
56
  8
VIS
 62
     1
 10
-3.0000000000001
 20
17.9999999999997
 30
0.0
 11
-2.99999999999998
 21
19.69999999999978
 31
0.0
  0
LINE
  5
57
  8
VIS
 62
     1
 10
-6.00000000000009
 20
17.9999999999997
 30
0.0
 11
-3.0000000000001
 21
17.9999999999997
 31
0.0
  0
LINE
  5
58
  8
VIS
 62
     1
 10
-6.00000000000009
 20
17.06067800001243
 30
0.0
 11
-6.00000000000009
 21
17.9999999999997
 31
0.0
  0
LINE
  5
59
  8
VIS
 62
     1
 10
-2.93933500000031
 20
14.0
 30
0.0
 11
-6.000000000000091
 21
17.06067800001243
 31
0.0
  0
LINE
  5
5A
  8
VIS
 62
     1
 10
-0.5196386249571917
 20
14.0
 30
0.0
 11
-2.93933500000031
 21
14.0
 31
0.0
  0
LINE
  5
5B
  8
VIS
 62
     1
 10
-0.0000000000002087
 20
13.6999864999997
 30
0.0
 11
-0.5196386249571916
 21
14.0
 31
0.0
  0
LINE
  5
5C
  8
VIS
 62
     1
 10
0.5196386249567881
 20
14.0
 30
0.0
 11
-0.0000000000002087
 21
13.6999864999997
 31
0.0
  0
LINE
  5
5D
  8
VIS
 62
     1
 10
2.939353999948251
 20
14.0
 30
0.0
 11
0.5196386249567881
 21
14.0
 31
0.0
  0
LINE
  5
5E
  8
VIS
 62
     1
 10
5.99999999999979
 20
17.06065974997375
 30
0.0
 11
2.939353999948251
 21
14.0
 31
0.0
  0
LINE
  5
5F
  8
VIS
 62
     1
 10
5.99999999999991
 20
17.9999999999998
 30
0.0
 11
5.99999999999979
 21
17.06065974997375
 31
0.0
  0
LINE
  5
60
  8
VIS
 62
     1
 10
2.99999999999991
 20
17.9999999999998
 30
0.0
 11
5.99999999999991
 21
17.9999999999998
 31
0.0
  0
LINE
  5
61
  8
VIS
 62
     1
 10
2.99999999999979
 20
19.69999999999978
 30
0.0
 11
2.99999999999991
 21
17.9999999999998
 31
0.0
  0
ARC
  5
62
  8
VIS
 62
     1
 10
3.299999999999721
 20
19.69999999999987
 30
0.0
 40
0.2999999999999332
 50
90.0
 51
180.0
  0
LINE
  5
63
  8
VIS
 62
     1
 10
8.99999999999979
 20
19.9999999999998
 30
0.0
 11
3.29999999999975
 21
19.9999999999998
 31
0.0
  0
ARC
  5
64
  8
VIS
 62
     1
 10
8.999999999999616
 20
18.99999999999963
 30
0.0
 40
1.000000000000174
 50
0.0
 51
90.0
  0
LINE
  5
65
  8
VIS
 62
     1
 10
9.99999999999979
 20
13.2999999999997
 30
0.0
 11
9.99999999999979
 21
18.9999999999997
 31
0.0
  0
ARC
  5
66
  8
VIS
 62
     1
 10
9.699999999999879
 20
13.29999999999961
 30
0.0
 40
0.2999999999999137
 50
270.0
 51
360.0
  0
LINE
  5
67
  8
VIS
 62
     1
 10
7.99999999999979
 20
12.9999999999997
 30
0.0
 11
9.699999999999839
 21
12.9999999999997
 31
0.0
  0
LINE
  5
68
  8
VIS
 62
     1
 10
7.99999999999979
 20
15.9999999999997
 30
0.0
 11
7.99999999999979
 21
12.9999999999997
 31
0.0
  0
LINE
  5
69
  8
VIS
 62
     1
 10
7.0606610000025
 20
15.9999999999997
 30
0.0
 11
7.99999999999979
 21
15.9999999999997
 31
0.0
  0
LINE
  5
6A
  8
VIS
 62
     1
 10
3.99999999999991
 20
12.9393367499955
 30
0.0
 11
7.0606610000025
 21
15.9999999999997
 31
0.0
  0
LINE
  5
6B
  8
VIS
 62
     1
 10
3.99999999999991
 20
10.5196152422701
 30
0.0
 11
3.99999999999991
 21
12.9393367499955
 31
0.0
  0
LINE
  5
6C
  8
VIS
 62
     1
 10
3.69999999999996
 20
9.999999999999631
 30
0.0
 11
3.99999999999991
 21
10.5196152422701
 31
0.0
  0
LINE
  5
6D
  8
VIS
 62
     1
 10
4.00000000000014
 20
9.4803847577287
 30
0.0
 11
3.69999999999996
 21
9.999999999999631
 31
0.0
  0
LINE
  5
6E
  8
VIS
 62
     1
 10
4.00000000000002
 20
7.06068075001425
 30
0.0
 11
4.00000000000014
 21
9.4803847577287
 31
0.0
  0
LINE
  5
6F
  8
VIS
 62
     1
 10
7.06067799998808
 20
3.99999999999979
 30
0.0
 11
4.00000000000002
 21
7.060680750014251
 31
0.0
  0
LINE
  5
70
  8
VIS
 62
     1
 10
8.00000000000013
 20
3.9999999999998
 30
0.0
 11
7.06067799998808
 21
3.99999999999979
 31
0.0
  0
LINE
  5
71
  8
VIS
 62
     1
 10
8.00000000000013
 20
6.99999999999974
 30
0.0
 11
8.00000000000013
 21
3.9999999999998
 31
0.0
  0
LINE
  5
72
  8
VIS
 62
     1
 10
9.700000000000291
 20
6.99999999999974
 30
0.0
 11
8.00000000000013
 21
6.99999999999974
 31
0.0
  0
ARC
  5
73
  8
VIS
 62
     1
 10
9.700000000000355
 20
6.699999999999892
 30
0.0
 40
0.2999999999998462
 50
0.0
 51
90.0
  0
LINE
  5
74
  8
VIS
 62
     1
 10
9.99999999999979
 20
-6.700000500000209
 30
0.0
 11
10.0000000000002
 21
6.699999999999732
 31
0.0
  0
ARC
  5
75
  8
VIS
 62
     1
 10
9.699999999999859
 20
-6.700000500000278
 30
0.0
 40
0.2999999999999323
 50
270.0
 51
360.0
  0
LINE
  5
76
  8
VIS
 62
     1
 10
7.99999999999968
 20
-7.00000050000021
 30
0.0
 11
9.699999999999839
 21
-7.00000050000021
 31
0.0
  0
LINE
  5
77
  8
VIS
 62
     1
 10
7.99999999999979
 20
-4.00000050400022
 30
0.0
 11
7.99999999999968
 21
-7.00000050000021
 31
0.0
  0
LINE
  5
78
  8
VIS
 62
     1
 10
7.060682359995202
 20
-4.000000504000221
 30
0.0
 11
7.99999999999979
 21
-4.00000050400022
 31
0.0
  0
LINE
  5
79
  8
VIS
 62
     1
 10
3.99999999999979
 20
-7.06068365001293
 30
0.0
 11
7.060682359995202
 21
-4.000000504000221
 31
0.0
  0
LINE
  5
7A
  8
VIS
 62
     1
 10
3.99999999999968
 20
-9.480385257730481
 30
0.0
 11
3.99999999999979
 21
-7.06068365001293
 31
0.0
  0
LINE
  5
7B
  8
VIS
 62
     1
 10
3.69999999999984
 20
-10.0000005000002
 30
0.0
 11
3.99999999999968
 21
-9.480385257730481
 31
0.0
  0
LINE
  5
7C
  8
VIS
 62
     1
 10
3.99999999999991
 20
-10.519615742271
 30
0.0
 11
3.69999999999984
 21
-10.0000005000002
 31
0.0
  0
LINE
  5
7D
  8
VIS
 62
     1
 10
3.99999999999979
 20
-12.93934214999842
 30
0.0
 11
3.99999999999991
 21
-10.519615742271
 31
0.0
  0
LINE
  5
7E
  8
VIS
 62
     1
 10
7.06065685000389
 20
-16.0000005000001
 30
0.0
 11
3.99999999999979
 21
-12.93934214999842
 31
0.0
  0
LINE
  5
7F
  8
VIS
 62
     1
 10
7.99999999999979
 20
-16.0000005000001
 30
0.0
 11
7.06065685000389
 21
-16.0000005000001
 31
0.0
  0
LINE
  5
80
  8
VIS
 62
     1
 10
7.99999999999968
 20
-13.0000005000002
 30
0.0
 11
7.99999999999979
 21
-16.0000005000001
 31
0.0
  0
LINE
  5
81
  8
VIS
 62
     1
 10
9.699999999999839
 20
-13.0000005000002
 30
0.0
 11
7.99999999999968
 21
-13.0000005000002
 31
0.0
  0
ARC
  5
82
  8
VIS
 62
     1
 10
9.699999999999877
 20
-13.30000050000011
 30
0.0
 40
0.2999999999999137
 50
0.0
 51
90.0
  0
LINE
  5
83
  8
VIS
 62
     1
 10
9.99999999999968
 20
-19.00000000000032
 30
0.0
 11
9.99999999999979
 21
-13.30000050000021
 31
0.0
  0
ARC
  5
84
  8
VIS
 62
     1
 10
8.999999999999684
 20
-19.0000000000003
 30
0.0
 40
0.9999999999999965
 50
270.0
 51
360.0
  0
LINE
  5
85
  8
VIS
 62
     1
 10
3.29999999999975
 20
-20.0000000000003
 30
0.0
 11
8.99999999999968
 21
-20.0000000000003
 31
0.0
  0
ARC
  5
86
  8
VIS
 62
     1
 10
3.299999999999713
 20
-19.70000000000038
 30
0.0
 40
0.2999999999999234
 50
180.0
 51
270.0
  0
LINE
  5
87
  8
VIS
 62
     1
 10
2.99999999999979
 20
-18.0000000000003
 30
0.0
 11
2.99999999999979
 21
-19.7000000000003
 31
0.0
  0
LINE
  5
88
  8
VIS
 62
     1
 10
5.99999999999979
 20
-18.0000000000003
 30
0.0
 11
2.99999999999979
 21
-18.0000000000003
 31
0.0
  0
LINE
  5
89
  8
VIS
 62
     1
 10
5.99999999999979
 20
-17.0606628000019
 30
0.0
 11
5.99999999999979
 21
-18.0000000000003
 31
0.0
  0
LINE
  5
8A
  8
VIS
 62
     1
 10
2.9393364999984
 20
-14.0000000000003
 30
0.0
 11
5.99999999999979
 21
-17.0606628000019
 31
0.0
  0
LINE
  5
8B
  8
VIS
 62
     1
 10
0.519615242270471
 20
-14.0000000000003
 30
0.0
 11
2.9393364999984
 21
-14.0000000000003
 31
0.0
  0
LINE
  5
8C
  8
VIS
 62
     1
 10
-0.0000000000002105
 20
-13.7000000000003
 30
0.0
 11
0.519615242270471
 21
-14.0000000000003
 31
0.0
  0
LINE
  5
8D
  8
VIS
 62
     1
 10
-0.5196152422707709
 20
-14.0000000000003
 30
0.0
 11
-0.0000000000002105
 21
-13.7000000000003
 31
0.0
  0
LINE
  5
8E
  8
VIS
 62
     1
 10
-2.93931800000267
 20
-14.0000000000003
 30
0.0
 11
-0.5196152422707709
 21
-14.0000000000003
 31
0.0
  0
LINE
  5
8F
  8
VIS
 62
     1
 10
-6.00000000000009
 20
-17.06068250000084
 30
0.0
 11
-2.939318000002671
 21
-14.0000000000003
 31
0.0
  0
LINE
  5
90
  8
VIS
 62
     1
 10
-6.00000000000009
 20
-18.0000000000003
 30
0.0
 11
-6.00000000000009
 21
-17.06068250000084
 31
0.0
  0
LINE
  5
91
  8
VIS
 62
     1
 10
-3.0000000000001
 20
-18.0000000000003
 30
0.0
 11
-6.00000000000009
 21
-18.0000000000003
 31
0.0
  0
LINE
  5
92
  8
VIS
 62
     1
 10
-2.99999999999998
 20
-19.70000000000028
 30
0.0
 11
-3.0000000000001
 21
-18.0000000000003
 31
0.0
  0
ARC
  5
93
  8
VIS
 62
     1
 10
-3.299999999999902
 20
-19.70000000000038
 30
0.0
 40
0.2999999999999226
 50
270.0
 51
360.0
  0
LINE
  5
94
  8
VIS
 62
     1
 10
-9.000000000000091
 20
-20.0000000000003
 30
0.0
 11
-3.29999999999994
 21
-20.0000000000003
 31
0.0
  0
ARC
  5
95
  8
VIS
 62
     1
 10
-9.000000000000014
 20
-19.00000000000011
 30
0.0
 40
1.000000000000187
 50
180.0
 51
270.0
  0
CIRCLE
  5
96
  8
VIS
 62
     1
 10
-0.0000000000002092
 20
9.999999999999799
 30
0.0
 40
2.0999999
  0
CIRCLE
  5
97
  8
VIS
 62
     1
 10
-0.0000000000002101
 20
-10.0000005000002
 30
0.0
 40
2.0999999
  0
ARC
  5
98
  8
VIS
 62
     1
 10
-7.700000000000294
 20
1.699999499999874
 30
0.0
 40
0.2999999999999161
 50
90.0
 51
180.0
  0
LINE
  5
99
  8
VIS
 62
     1
 10
-8.00000000000021
 20
1.6999994999998
 30
0.0
 11
-8.00000000000021
 21
-1.7000002500002
 31
0.0
  0
ARC
  5
9A
  8
VIS
 62
     1
 10
-7.7000000000003
 20
-1.70000025000028
 30
0.0
 40
0.2999999999999101
 50
180.0
 51
270.0
  0
LINE
  5
9B
  8
VIS
 62
     1
 10
-7.70000000000026
 20
-2.00000025000019
 30
0.0
 11
-7.06360453806039
 21
-2.00000025000021
 31
0.0
  0
ARC
  5
9C
  8
VIS
 62
     1
 10
-7.063546122300793
 20
-2.299852987714079
 30
0.0
 40
0.2998527434039964
 50
44.99002533907689
 51
90.01116206730382
  0
LINE
  5
9D
  8
VIS
 62
     1
 10
-6.851481305214014
 20
-2.087861994790196
 30
0.0
 11
-2.939335000000009
 21
-6.000000000000261
 31
0.0
  0
LINE
  5
9E
  8
VIS
 62
     1
 10
-2.93933500000001
 20
-6.00000000000026
 30
0.0
 11
2.93933195000059
 21
-6.00000000000026
 31
0.0
  0
LINE
  5
9F
  8
VIS
 62
     1
 10
2.93933195000059
 20
-6.00000000000026
 30
0.0
 11
6.851479294004272
 21
-2.087861656002131
 31
0.0
  0
ARC
  5
A0
  8
VIS
 62
     1
 10
7.063548579386278
 20
-2.299864591265611
 30
0.0
 40
0.2998643466015376
 50
89.9891909209679
 51
135.008964467715
  0
LINE
  5
A1
  8
VIS
 62
     1
 10
7.06360514999985
 20
-2.00000025000021
 30
0.0
 11
7.70000000000007
 21
-2.00000025000021
 31
0.0
  0
ARC
  5
A2
  8
VIS
 62
     1
 10
7.700000000000107
 20
-1.700000250000297
 30
0.0
 40
0.2999999999999132
 50
270.0
 51
360.0
  0
LINE
  5
A3
  8
VIS
 62
     1
 10
8.00000000000002
 20
-1.70000025000021
 30
0.0
 11
8.00000000000002
 21
1.69999949999979
 31
0.0
  0
ARC
  5
A4
  8
VIS
 62
     1
 10
7.700000000000125
 20
1.699999499999885
 30
0.0
 40
0.299999999999895
 50
0.0
 51
90.0
  0
LINE
  5
A5
  8
VIS
 62
     1
 10
7.700000000000075
 20
1.99999949999978
 30
0.0
 11
7.063599449999866
 21
1.99999949999979
 31
0.0
  0
ARC
  5
A6
  8
VIS
 62
     1
 10
7.063542378912269
 20
2.299858289381645
 30
0.0
 40
0.2998587948129262
 50
224.9902590136734
 51
270.0109049076694
  0
LINE
  5
A7
  8
VIS
 62
     1
 10
6.851474146689719
 20
2.087862153311519
 30
0.0
 11
2.93933550000033
 21
5.999999999999799
 31
0.0
  0
LINE
  5
A8
  8
VIS
 62
     1
 10
2.939335500000329
 20
5.9999999999998
 30
0.0
 11
-2.93933900000023
 21
5.99999999999978
 31
0.0
  0
LINE
  5
A9
  8
VIS
 62
     1
 10
-2.93933900000023
 20
5.99999999999978
 30
0.0
 11
-6.851476943747386
 21
2.087862556253499
 31
0.0
  0
ARC
  5
AA
  8
VIS
 62
     1
 10
-7.063540483475276
 20
2.299845990068231
 30
0.0
 40
0.2998464958838234
 50
269.9887156309503
 51
315.0108236374026
  0
LINE
  5
AB
  8
VIS
 62
     1
 10
-7.06359953806053
 20
1.99999949999979
 30
0.0
 11
-7.70000000000025
 21
1.99999949999979
 31
0.0
  0
LINE
  5
AC
  8
CENTER
 62
     4
 10
-2.54721349550017
 20
9.999999999999799
 30
0.0
 11
2.547213495499751
 21
9.999999999999799
 31
0.0
  0
LINE
  5
AD
  8
CENTER
 62
     4
 10
-0.0000000000002092
 20
7.452786504499838
 30
0.0
 11
-0.0000000000002092
 21
12.54721349549976
 31
0.0
  0
LINE
  5
AE
  8
CENTER
 62
     4
 10
-2.54721349550017
 20
-10.0000005000002
 30
0.0
 11
2.54721349549975
 21
-10.0000005000002
 31
0.0
  0
LINE
  5
AF
  8
CENTER
 62
     4
 10
-0.0000000000002101
 20
-12.54721399550016
 30
0.0
 11
-0.0000000000002101
 21
-7.452787004500238
 31
0.0
  0
LINE
  5
B0
  8
CENTER
 62
     4
 10
-10.44721359550016
 20
-13.30000050000009
 30
0.0
 11
-8.952786404500456
 21
-13.30000050000009
 31
0.0
  0
LINE
  5
B1
  8
CENTER
 62
     4
 10
-9.700000000000308
 20
-14.04721409549994
 30
0.0
 11
-9.700000000000308
 21
-12.55278690450024
 31
0.0
  0
LINE
  5
B2
  8
CENTER
 62
     4
 10
-10.44721359550016
 20
-6.700000500000299
 30
0.0
 11
-8.952786404500417
 21
-6.700000500000299
 31
0.0
  0
LINE
  5
B3
  8
CENTER
 62
     4
 10
-9.700000000000289
 20
-7.447214095500172
 30
0.0
 11
-9.700000000000289
 21
-5.952786904500426
 31
0.0
  0
LINE
  5
B4
  8
CENTER
 62
     4
 10
-10.44721359550016
 20
6.69999999999984
 30
0.0
 11
-8.952786404500444
 21
6.69999999999984
 31
0.0
  0
LINE
  5
B5
  8
CENTER
 62
     4
 10
-9.700000000000303
 20
5.952786404499982
 30
0.0
 11
-9.700000000000303
 21
7.447213595499699
 31
0.0
  0
LINE
  5
B6
  8
CENTER
 62
     4
 10
-10.44721359550016
 20
13.29999999999959
 30
0.0
 11
-8.952786404500452
 21
13.29999999999959
 31
0.0
  0
LINE
  5
B7
  8
CENTER
 62
     4
 10
-9.700000000000307
 20
12.55278640449974
 30
0.0
 11
-9.700000000000307
 21
14.04721359549945
 31
0.0
  0
LINE
  5
B8
  8
CENTER
 62
     4
 10
-4.047213595499817
 20
19.69999999999986
 30
0.0
 11
-2.55278640450002
 21
19.69999999999986
 31
0.0
  0
LINE
  5
B9
  8
CENTER
 62
     4
 10
-3.299999999999919
 20
18.95278640449997
 30
0.0
 11
-3.299999999999919
 21
20.44721359549976
 31
0.0
  0
LINE
  5
BA
  8
CENTER
 62
     4
 10
2.552786404499827
 20
19.69999999999987
 30
0.0
 11
4.047213595499615
 21
19.69999999999987
 31
0.0
  0
LINE
  5
BB
  8
CENTER
 62
     4
 10
3.299999999999721
 20
18.95278640449998
 30
0.0
 11
3.299999999999721
 21
20.44721359549976
 31
0.0
  0
LINE
  5
BC
  8
CENTER
 62
     4
 10
8.952786404500005
 20
13.29999999999961
 30
0.0
 11
10.44721359549975
 21
13.29999999999961
 31
0.0
  0
LINE
  5
BD
  8
CENTER
 62
     4
 10
9.699999999999879
 20
12.55278640449974
 30
0.0
 11
9.699999999999879
 21
14.04721359549949
 31
0.0
  0
LINE
  5
BE
  8
CENTER
 62
     4
 10
8.952786404500548
 20
6.699999999999893
 30
0.0
 11
10.44721359550016
 21
6.699999999999893
 31
0.0
  0
LINE
  5
BF
  8
CENTER
 62
     4
 10
9.700000000000355
 20
5.952786404500086
 30
0.0
 11
9.700000000000355
 21
7.4472135954997
 31
0.0
  0
LINE
  5
C0
  8
CENTER
 62
     4
 10
8.952786404499964
 20
-6.700000500000277
 30
0.0
 11
10.44721359549975
 21
-6.700000500000277
 31
0.0
  0
LINE
  5
C1
  8
CENTER
 62
     4
 10
9.699999999999857
 20
-7.447214095500171
 30
0.0
 11
9.699999999999857
 21
-5.952786904500383
 31
0.0
  0
LINE
  5
C2
  8
CENTER
 62
     4
 10
8.952786404500003
 20
-13.30000050000011
 30
0.0
 11
10.44721359549975
 21
-13.30000050000011
 31
0.0
  0
LINE
  5
C3
  8
CENTER
 62
     4
 10
9.699999999999877
 20
-14.04721409549999
 30
0.0
 11
9.699999999999877
 21
-12.55278690450024
 31
0.0
  0
LINE
  5
C4
  8
CENTER
 62
     4
 10
2.55278640449983
 20
-19.70000000000038
 30
0.0
 11
4.047213595499598
 21
-19.70000000000038
 31
0.0
  0
LINE
  5
C5
  8
CENTER
 62
     4
 10
3.299999999999714
 20
-20.44721359550026
 30
0.0
 11
3.299999999999714
 21
-18.95278640450049
 31
0.0
  0
LINE
  5
C6
  8
CENTER
 62
     4
 10
-4.047213595499782
 20
-19.70000000000038
 30
0.0
 11
-2.552786404500023
 21
-19.70000000000038
 31
0.0
  0
LINE
  5
C7
  8
CENTER
 62
     4
 10
-3.299999999999902
 20
-20.44721359550026
 30
0.0
 11
-3.299999999999902
 21
-18.9527864045005
 31
0.0
  0
LINE
  5
C8
  8
CENTER
 62
     4
 10
-8.44721359550017
 20
1.699999499999875
 30
0.0
 11
-6.952786404500419
 21
1.699999499999875
 31
0.0
  0
LINE
  5
C9
  8
CENTER
 62
     4
 10
-7.700000000000294
 20
0.9527859044999988
 30
0.0
 11
-7.700000000000294
 21
2.44721309549975
 31
0.0
  0
LINE
  5
CA
  8
CENTER
 62
     4
 10
-8.44721359550017
 20
-1.700000250000279
 30
0.0
 11
-6.952786404500428
 21
-1.700000250000279
 31
0.0
  0
LINE
  5
CB
  8
CENTER
 62
     4
 10
-7.7000000000003
 20
-2.44721384550015
 30
0.0
 11
-7.7000000000003
 21
-0.9527866545004082
 31
0.0
  0
LINE
  5
CC
  8
CENTER
 62
     4
 10
6.952786404500231
 20
-1.700000250000296
 30
0.0
 11
8.44721359549998
 21
-1.700000250000296
 31
0.0
  0
LINE
  5
CD
  8
CENTER
 62
     4
 10
7.700000000000106
 20
-2.44721384550017
 30
0.0
 11
7.700000000000106
 21
-0.9527866545004219
 31
0.0
  0
LINE
  5
CE
  8
CENTER
 62
     4
 10
6.952786404500269
 20
1.699999499999885
 30
0.0
 11
8.44721359549998
 21
1.699999499999885
 31
0.0
  0
LINE
  5
CF
  8
CENTER
 62
     4
 10
7.700000000000125
 20
0.9527859045000298
 30
0.0
 11
7.700000000000125
 21
2.447213095499741
 31
0.0
  0
POINT
  5
D0
  8
VIS
 62
     1
 10
0.0
 20
0.0
 30
0.0
  0
ATTDEF
  5
D1
  8
0
 10
0.0
 20
0.0
 30
0.0
 40
1.0
  1
Misumi
  3

  2
Company
 70
     9
  0
ATTDEF
  5
D2
  8
0
 10
0.0
 20
0.0
 30
0.0
 40
1.0
  1
HFS5-2040-150
  3

  2
NB
 70
     9
  0
ATTDEF
  5
D3
  8
0
 10
0.0
 20
0.0
 30
0.0
 40
1.0
  1
HFS5-2040, HFSB5-2040, CAF5-2040, HFSF5-2040
  3

  2
NN
 70
     9
  0
ATTDEF
  5
D4
  8
0
 10
0.0
 20
0.0
 30
0.0
 40
1.0
  1
HFS5 Series Aluminum Extrusions 20,40 Square -2 Slots-
  3

  2
NT
 70
     9
  0
ATTDEF
  5
D5
  8
0
 10
0.0
 20
0.0
 30
0.0
 40
1.0
  1
HFS5-2040-150
  3

  2
LINA
 70
     9
  0
ATTDEF
  5
D6
  8
0
 10
0.0
 20
0.0
 30
0.0
 40
1.0
  1
HFS5-2040-150
  3

  2
PN
 70
     9
  0
ATTDEF
  5
D7
  8
0
 10
0.0
 20
0.0
 30
0.0
 40
1.0
  1
HFS5-2040
  3

  2
TPS
 70
     9
  0
ATTDEF
  5
D8
  8
0
 10
0.0
 20
0.0
 30
0.0
 40
1.0
  1
A6N01SS-T5 Aluminum Alloy or 6005A-T5 Aluminum Alloy
  3

  2
MAT
 70
     9
  0
ATTDEF
  5
D9
  8
0
 10
0.0
 20
0.0
 30
0.0
 40
1.0
  1
Clear Anodize
  3

  2
ST
 70
     9
  0
ATTDEF
  5
DA
  8
0
 10
0.0
 20
0.0
 30
0.0
 40
1.0
  1
20
  3

  2
FRMW
 70
     9
  0
ATTDEF
  5
DB
  8
0
 10
0.0
 20
0.0
 30
0.0
 40
1.0
  1
40
  3

  2
FRMH
 70
     9
  0
ATTDEF
  5
DC
  8
0
 10
0.0
 20
0.0
 30
0.0
 40
1.0
  1
150
  3

  2
L
 70
     9
  0
ATTDEF
  5
DD
  8
0
 10
0.0
 20
0.0
 30
0.0
 40
1.0
  1
0.88
  3

  2
MASS
 70
     9
  0
ATTDEF
  5
DE
  8
0
 10
0.0
 20
0.0
 30
0.0
 40
1.0
  1
324
  3

  2
SA
 70
     9
  0
ATTDEF
  5
DF
  8
0
 10
0.0
 20
0.0
 30
0.0
 40
1.0
  1
1.358x10^ 4
  3

  2
LX
 70
     9
  0
ATTDEF
  5
E0
  8
0
 10
0.0
 20
0.0
 30
0.0
 40
1.0
  1
5.13x10^ 4
  3

  2
LY
 70
     9
  0
ATTDEF
  5
E1
  8
0
 10
0.0
 20
0.0
 30
0.0
 40
1.0
  1

  3

  2
ALT1
 70
     9
  0
ATTDEF
  5
E2
  8
0
 10
0.0
 20
0.0
 30
0.0
 40
1.0
  1

  3

  2
ALT2
 70
     9
  0
ATTDEF
  5
E3
  8
0
 10
0.0
 20
0.0
 30
0.0
 40
1.0
  1
 '', 'w/o SC (High Precision Cut)', '-SC', 'with SC (High Precision Cut)' 
  3

  2
ALT2ALG
 70
     9
  0
ATTDEF
  5
E4
  8
0
 10
0.0
 20
0.0
 30
0.0
 40
1.0
  1

  3

  2
ALT3
 70
     9
  0
ATTDEF
  5
E5
  8
0
 10
0.0
 20
0.0
 30
0.0
 40
1.0
  1
 '','w/o 45 Degree Cut','1','with 45 Degree Cut' 
  3

  2
ALT3ALG
 70
     9
  0
ATTDEF
  5
E6
  8
0
 10
0.0
 20
0.0
 30
0.0
 40
1.0
  1

  3

  2
CPS
 70
     9
  0
ATTDEF
  5
E7
  8
0
 10
0.0
 20
0.0
 30
0.0
 40
1.0
  1
 '','N/A' 
  3

  2
CPSALG
 70
     9
  0
ATTDEF
  5
E8
  8
0
 10
0.0
 20
0.0
 30
0.0
 40
1.0
  1

  3

  2
CDSL
 70
     9
  0
ATTDEF
  5
E9
  8
0
 10
0.0
 20
0.0
 30
0.0
 40
1.0
  1
 '','N/A' 
  3

  2
CDSLALG
 70
     9
  0
ATTDEF
  5
EA
  8
0
 10
0.0
 20
0.0
 30
0.0
 40
1.0
  1

  3

  2
CDSR
 70
     9
  0
ATTDEF
  5
EB
  8
0
 10
0.0
 20
0.0
 30
0.0
 40
1.0
  1
 '','N/A' 
  3

  2
CDSRALG
 70
     9
  0
ATTDEF
  5
EC
  8
0
 10
0.0
 20
0.0
 30
0.0
 40
1.0
  1

  3

  2
ALT3PN
 70
     9
  0
ATTDEF
  5
ED
  8
0
 10
0.0
 20
0.0
 30
0.0
 40
1.0
  1

  3

  2
ALT4
 70
     9
  0
ATTDEF
  5
EE
  8
0
 10
0.0
 20
0.0
 30
0.0
 40
1.0
  1
 '','w/o Fastening Location Wrench Access Hole Alterations','1','with Fastening Location Wrench Access Hole Alterations' 
  3

  2
ALT4ALG
 70
     9
  0
ATTDEF
  5
EF
  8
0
 10
0.0
 20
0.0
 30
0.0
 40
1.0
  1
10
  3

  2
HL
 70
     9
  0
ATTDEF
  5
F0
  8
0
 10
0.0
 20
0.0
 30
0.0
 40
1.0
  1
10
  3

  2
HR
 70
     9
  0
ATTDEF
  5
F1
  8
0
 10
0.0
 20
0.0
 30
0.0
 40
1.0
  1
20
  3

  2
J
 70
     9
  0
ATTDEF
  5
F2
  8
0
 10
0.0
 20
0.0
 30
0.0
 40
1.0
  1
20
  3

  2
K
 70
     9
  0
ATTDEF
  5
F3
  8
0
 10
0.0
 20
0.0
 30
0.0
 40
1.0
  1
7.35
  3

  2
DD4
 70
     9
  0
ATTDEF
  5
F4
  8
0
 10
0.0
 20
0.0
 30
0.0
 40
1.0
  1

  3

  2
HPS
 70
     9
  0
ATTDEF
  5
F5
  8
0
 10
0.0
 20
0.0
 30
0.0
 40
1.0
  1
 '','N/A' 
  3

  2
HPSALG
 70
     9
  0
ATTDEF
  5
F6
  8
0
 10
0.0
 20
0.0
 30
0.0
 40
1.0
  1

  3

  2
NOHL
 70
     9
  0
ATTDEF
  5
F7
  8
0
 10
0.0
 20
0.0
 30
0.0
 40
1.0
  1
 '','N/A' 
  3

  2
NOHLALG
 70
     9
  0
ATTDEF
  5
F8
  8
0
 10
0.0
 20
0.0
 30
0.0
 40
1.0
  1

  3

  2
HDL
 70
     9
  0
ATTDEF
  5
F9
  8
0
 10
0.0
 20
0.0
 30
0.0
 40
1.0
  1
 '','N/A' 
  3

  2
HDLALG
 70
     9
  0
ATTDEF
  5
FA
  8
0
 10
0.0
 20
0.0
 30
0.0
 40
1.0
  1

  3

  2
NOHR
 70
     9
  0
ATTDEF
  5
FB
  8
0
 10
0.0
 20
0.0
 30
0.0
 40
1.0
  1
 '','N/A' 
  3

  2
NOHRALG
 70
     9
  0
ATTDEF
  5
FC
  8
0
 10
0.0
 20
0.0
 30
0.0
 40
1.0
  1

  3

  2
HDR
 70
     9
  0
ATTDEF
  5
FD
  8
0
 10
0.0
 20
0.0
 30
0.0
 40
1.0
  1
 '','N/A' 
  3

  2
HDRALG
 70
     9
  0
ATTDEF
  5
FE
  8
0
 10
0.0
 20
0.0
 30
0.0
 40
1.0
  1

  3

  2
ALT41
 70
     9
  0
ATTDEF
  5
FF
  8
0
 10
0.0
 20
0.0
 30
0.0
 40
1.0
  1
 '','N/A' 
  3

  2
ALT41ALG
 70
     9
  0
ATTDEF
  5
100
  8
0
 10
0.0
 20
0.0
 30
0.0
 40
1.0
  1

  3

  2
ALT42
 70
     9
  0
ATTDEF
  5
101
  8
0
 10
0.0
 20
0.0
 30
0.0
 40
1.0
  1
 '','N/A' 
  3

  2
ALT42ALG
 70
     9
  0
ATTDEF
  5
102
  8
0
 10
0.0
 20
0.0
 30
0.0
 40
1.0
  1

  3

  2
ALT4PN
 70
     9
  0
ATTDEF
  5
103
  8
0
 10
0.0
 20
0.0
 30
0.0
 40
1.0
  1

  3

  2
ALT5H
 70
     9
  0
ATTDEF
  5
104
  8
0
 10
0.0
 20
0.0
 30
0.0
 40
1.0
  1
 '','w/o Location Specified Wrench Access Hole Alteratons (Horizontal)','1','with Location Specified Wrench Access Hole Alterato
  3

  2
ALT5HALG
 70
     9
  0
ATTDEF
  5
105
  8
0
 10
0.0
 20
0.0
 30
0.0
 40
1.0
  1
0
  3

  2
NOMH5H
 70
     9
  0
ATTDEF
  5
106
  8
0
 10
0.0
 20
0.0
 30
0.0
 40
1.0
  1
5.000
  3

  2
NOMH5HMAX
 70
     9
  0
ATTDEF
  5
107
  8
0
 10
0.0
 20
0.0
 30
0.0
 40
1.0
  1
[0]
  3

  2
NOMH5HALG
 70
     9
  0
ATTDEF
  5
108
  8
0
 10
0.0
 20
0.0
 30
0.0
 40
1.0
  1
0
  3

  2
AH
 70
     9
  0
ATTDEF
  5
109
  8
0
 10
0.0
 20
0.0
 30
0.0
 40
1.0
  1
7.000
  3

  2
AHMIN
 70
     9
  0
ATTDEF
  5
10A
  8
0
 10
0.0
 20
0.0
 30
0.0
 40
1.0
  1
152.350
  3

  2
AHMAX
 70
     9
  0
ATTDEF
  5
10B
  8
0
 10
0.0
 20
0.0
 30
0.0
 40
1.0
  1
[0]
  3

  2
AHALG
 70
     9
  0
ATTDEF
  5
10C
  8
0
 10
0.0
 20
0.0
 30
0.0
 40
1.0
  1
0
  3

  2
BH
 70
     9
  0
ATTDEF
  5
10D
  8
0
 10
0.0
 20
0.0
 30
0.0
 40
1.0
  1
10.000
  3

  2
BHMIN
 70
     9
  0
ATTDEF
  5
10E
  8
0
 10
0.0
 20
0.0
 30
0.0
 40
1.0
  1
161.700
  3

  2
BHMAX
 70
     9
  0
ATTDEF
  5
10F
  8
0
 10
0.0
 20
0.0
 30
0.0
 40
1.0
  1
[0]
  3

  2
BHALG
 70
     9
  0
ATTDEF
  5
110
  8
0
 10
0.0
 20
0.0
 30
0.0
 40
1.0
  1
0
  3

  2
CH
 70
     9
  0
ATTDEF
  5
111
  8
0
 10
0.0
 20
0.0
 30
0.0
 40
1.0
  1
10.000
  3

  2
CHMIN
 70
     9
  0
ATTDEF
  5
112
  8
0
 10
0.0
 20
0.0
 30
0.0
 40
1.0
  1
171.050
  3

  2
CHMAX
 70
     9
  0
ATTDEF
  5
113
  8
0
 10
0.0
 20
0.0
 30
0.0
 40
1.0
  1
[0]
  3

  2
CHALG
 70
     9
  0
ATTDEF
  5
114
  8
0
 10
0.0
 20
0.0
 30
0.0
 40
1.0
  1
0
  3

  2
DH
 70
     9
  0
ATTDEF
  5
115
  8
0
 10
0.0
 20
0.0
 30
0.0
 40
1.0
  1
10.000
  3

  2
DHMIN
 70
     9
  0
ATTDEF
  5
116
  8
0
 10
0.0
 20
0.0
 30
0.0
 40
1.0
  1
180.400
  3

  2
DHMAX
 70
     9
  0
ATTDEF
  5
117
  8
0
 10
0.0
 20
0.0
 30
0.0
 40
1.0
  1
[0]
  3

  2
DHALG
 70
     9
  0
ATTDEF
  5
118
  8
0
 10
0.0
 20
0.0
 30
0.0
 40
1.0
  1
0
  3

  2
EH
 70
     9
  0
ATTDEF
  5
119
  8
0
 10
0.0
 20
0.0
 30
0.0
 40
1.0
  1
10.000
  3

  2
EHMIN
 70
     9
  0
ATTDEF
  5
11A
  8
0
 10
0.0
 20
0.0
 30
0.0
 40
1.0
  1
143.000
  3

  2
EHMAX
 70
     9
  0
ATTDEF
  5
11B
  8
0
 10
0.0
 20
0.0
 30
0.0
 40
1.0
  1
[0]
  3

  2
EHALG
 70
     9
  0
ATTDEF
  5
11C
  8
0
 10
0.0
 20
0.0
 30
0.0
 40
1.0
  1

  3

  2
ALT5V
 70
     9
  0
ATTDEF
  5
11D
  8
0
 10
0.0
 20
0.0
 30
0.0
 40
1.0
  1
 '','w/o Location Specified Wrench Access Hole Alteratons (Vertical)','1','with Location Specified Wrench Access Hole Alteratons
  3

  2
ALT5VALG
 70
     9
  0
ATTDEF
  5
11E
  8
0
 10
0.0
 20
0.0
 30
0.0
 40
1.0
  1
0
  3

  2
NOMH5V
 70
     9
  0
ATTDEF
  5
11F
  8
0
 10
0.0
 20
0.0
 30
0.0
 40
1.0
  1
5.000
  3

  2
NOMH5VMAX
 70
     9
  0
ATTDEF
  5
120
  8
0
 10
0.0
 20
0.0
 30
0.0
 40
1.0
  1
[0]
  3

  2
NOMH5VALG
 70
     9
  0
ATTDEF
  5
121
  8
0
 10
0.0
 20
0.0
 30
0.0
 40
1.0
  1
0
  3

  2
AV
 70
     9
  0
ATTDEF
  5
122
  8
0
 10
0.0
 20
0.0
 30
0.0
 40
1.0
  1
7.000
  3

  2
AVMIN
 70
     9
  0
ATTDEF
  5
123
  8
0
 10
0.0
 20
0.0
 30
0.0
 40
1.0
  1
152.350
  3

  2
AVMAX
 70
     9
  0
ATTDEF
  5
124
  8
0
 10
0.0
 20
0.0
 30
0.0
 40
1.0
  1
[0]
  3

  2
AVALG
 70
     9
  0
ATTDEF
  5
125
  8
0
 10
0.0
 20
0.0
 30
0.0
 40
1.0
  1
0
  3

  2
BV
 70
     9
  0
ATTDEF
  5
126
  8
0
 10
0.0
 20
0.0
 30
0.0
 40
1.0
  1
10.000
  3

  2
BVMIN
 70
     9
  0
ATTDEF
  5
127
  8
0
 10
0.0
 20
0.0
 30
0.0
 40
1.0
  1
161.700
  3

  2
BVMAX
 70
     9
  0
ATTDEF
  5
128
  8
0
 10
0.0
 20
0.0
 30
0.0
 40
1.0
  1
[0]
  3

  2
BVALG
 70
     9
  0
ATTDEF
  5
129
  8
0
 10
0.0
 20
0.0
 30
0.0
 40
1.0
  1
0
  3

  2
CV
 70
     9
  0
ATTDEF
  5
12A
  8
0
 10
0.0
 20
0.0
 30
0.0
 40
1.0
  1
10.000
  3

  2
CVMIN
 70
     9
  0
ATTDEF
  5
12B
  8
0
 10
0.0
 20
0.0
 30
0.0
 40
1.0
  1
171.050
  3

  2
CVMAX
 70
     9
  0
ATTDEF
  5
12C
  8
0
 10
0.0
 20
0.0
 30
0.0
 40
1.0
  1
[0]
  3

  2
CVALG
 70
     9
  0
ATTDEF
  5
12D
  8
0
 10
0.0
 20
0.0
 30
0.0
 40
1.0
  1
0
  3

  2
DV
 70
     9
  0
ATTDEF
  5
12E
  8
0
 10
0.0
 20
0.0
 30
0.0
 40
1.0
  1
10.000
  3

  2
DVMIN
 70
     9
  0
ATTDEF
  5
12F
  8
0
 10
0.0
 20
0.0
 30
0.0
 40
1.0
  1
180.400
  3

  2
DVMAX
 70
     9
  0
ATTDEF
  5
130
  8
0
 10
0.0
 20
0.0
 30
0.0
 40
1.0
  1
[0]
  3

  2
DVALG
 70
     9
  0
ATTDEF
  5
131
  8
0
 10
0.0
 20
0.0
 30
0.0
 40
1.0
  1
0
  3

  2
EV
 70
     9
  0
ATTDEF
  5
132
  8
0
 10
0.0
 20
0.0
 30
0.0
 40
1.0
  1
10.000
  3

  2
EVMIN
 70
     9
  0
ATTDEF
  5
133
  8
0
 10
0.0
 20
0.0
 30
0.0
 40
1.0
  1
143.000
  3

  2
EVMAX
 70
     9
  0
ATTDEF
  5
134
  8
0
 10
0.0
 20
0.0
 30
0.0
 40
1.0
  1
[0]
  3

  2
EVALG
 70
     9
  0
ATTDEF
  5
135
  8
0
 10
0.0
 20
0.0
 30
0.0
 40
1.0
  1

  3

  2
ALT5P
 70
     9
  0
ATTDEF
  5
136
  8
0
 10
0.0
 20
0.0
 30
0.0
 40
1.0
  1
 '','w/o Location Specified Wrench Access Hole Alteratons (Crisscross)','1','with Location Specified Wrench Access Hole Alterato
  3

  2
ALT5PALG
 70
     9
  0
ATTDEF
  5
137
  8
0
 10
0.0
 20
0.0
 30
0.0
 40
1.0
  1
0
  3

  2
NOMH5P
 70
     9
  0
ATTDEF
  5
138
  8
0
 10
0.0
 20
0.0
 30
0.0
 40
1.0
  1
5.000
  3

  2
NOMH5PMAX
 70
     9
  0
ATTDEF
  5
139
  8
0
 10
0.0
 20
0.0
 30
0.0
 40
1.0
  1
[0]
  3

  2
NOMH5PALG
 70
     9
  0
ATTDEF
  5
13A
  8
0
 10
0.0
 20
0.0
 30
0.0
 40
1.0
  1
0
  3

  2
AP
 70
     9
  0
ATTDEF
  5
13B
  8
0
 10
0.0
 20
0.0
 30
0.0
 40
1.0
  1
7.000
  3

  2
APMIN
 70
     9
  0
ATTDEF
  5
13C
  8
0
 10
0.0
 20
0.0
 30
0.0
 40
1.0
  1
152.350
  3

  2
APMAX
 70
     9
  0
ATTDEF
  5
13D
  8
0
 10
0.0
 20
0.0
 30
0.0
 40
1.0
  1
[0]
  3

  2
APALG
 70
     9
  0
ATTDEF
  5
13E
  8
0
 10
0.0
 20
0.0
 30
0.0
 40
1.0
  1
0
  3

  2
BP
 70
     9
  0
ATTDEF
  5
13F
  8
0
 10
0.0
 20
0.0
 30
0.0
 40
1.0
  1
10.000
  3

  2
BPMIN
 70
     9
  0
ATTDEF
  5
140
  8
0
 10
0.0
 20
0.0
 30
0.0
 40
1.0
  1
161.700
  3

  2
BPMAX
 70
     9
  0
ATTDEF
  5
141
  8
0
 10
0.0
 20
0.0
 30
0.0
 40
1.0
  1
[0]
  3

  2
BPALG
 70
     9
  0
ATTDEF
  5
142
  8
0
 10
0.0
 20
0.0
 30
0.0
 40
1.0
  1
0
  3

  2
CP
 70
     9
  0
ATTDEF
  5
143
  8
0
 10
0.0
 20
0.0
 30
0.0
 40
1.0
  1
10.000
  3

  2
CPMIN
 70
     9
  0
ATTDEF
  5
144
  8
0
 10
0.0
 20
0.0
 30
0.0
 40
1.0
  1
171.050
  3

  2
CPMAX
 70
     9
  0
ATTDEF
  5
145
  8
0
 10
0.0
 20
0.0
 30
0.0
 40
1.0
  1
[0]
  3

  2
CPALG
 70
     9
  0
ATTDEF
  5
146
  8
0
 10
0.0
 20
0.0
 30
0.0
 40
1.0
  1
0
  3

  2
DP
 70
     9
  0
ATTDEF
  5
147
  8
0
 10
0.0
 20
0.0
 30
0.0
 40
1.0
  1
10.000
  3

  2
DPMIN
 70
     9
  0
ATTDEF
  5
148
  8
0
 10
0.0
 20
0.0
 30
0.0
 40
1.0
  1
180.400
  3

  2
DPMAX
 70
     9
  0
ATTDEF
  5
149
  8
0
 10
0.0
 20
0.0
 30
0.0
 40
1.0
  1
[0]
  3

  2
DPALG
 70
     9
  0
ATTDEF
  5
14A
  8
0
 10
0.0
 20
0.0
 30
0.0
 40
1.0
  1
0
  3

  2
EP
 70
     9
  0
ATTDEF
  5
14B
  8
0
 10
0.0
 20
0.0
 30
0.0
 40
1.0
  1
10.000
  3

  2
EPMIN
 70
     9
  0
ATTDEF
  5
14C
  8
0
 10
0.0
 20
0.0
 30
0.0
 40
1.0
  1
143.000
  3

  2
EPMAX
 70
     9
  0
ATTDEF
  5
14D
  8
0
 10
0.0
 20
0.0
 30
0.0
 40
1.0
  1
[0]
  3

  2
EPALG
 70
     9
  0
ATTDEF
  5
14E
  8
0
 10
0.0
 20
0.0
 30
0.0
 40
1.0
  1

  3

  2
ALT5HPN
 70
     9
  0
ATTDEF
  5
14F
  8
0
 10
0.0
 20
0.0
 30
0.0
 40
1.0
  1

  3

  2
ALT5VPN
 70
     9
  0
ATTDEF
  5
150
  8
0
 10
0.0
 20
0.0
 30
0.0
 40
1.0
  1

  3

  2
ALT5PPN
 70
     9
  0
ATTDEF
  5
151
  8
0
 10
0.0
 20
0.0
 30
0.0
 40
1.0
  1

  3

  2
ALT5PN
 70
     9
  0
ATTDEF
  5
152
  8
0
 10
0.0
 20
0.0
 30
0.0
 40
1.0
  1

  3

  2
ALT6V
 70
     9
  0
ATTDEF
  5
153
  8
0
 10
0.0
 20
0.0
 30
0.0
 40
1.0
  1
 '','w/o Counterbore Hole in Specified Position (Vertical)','1','with Counterbore Hole in Specified Position (Vertical)' 
  3

  2
ALT6VALG
 70
     9
  0
ATTDEF
  5
154
  8
0
 10
0.0
 20
0.0
 30
0.0
 40
1.0
  1

  3

  2
ALT6H
 70
     9
  0
ATTDEF
  5
155
  8
0
 10
0.0
 20
0.0
 30
0.0
 40
1.0
  1
 '','w/o Counterbore Hole in Specified Position (Horizontal)','1','with Counterbore Hole in Specified Position (Horizontal)' 
  3

  2
ALT6HALG
 70
     9
  0
ATTDEF
  5
156
  8
0
 10
0.0
 20
0.0
 30
0.0
 40
1.0
  1

  3

  2
Z
 70
     9
  0
ATTDEF
  5
157
  8
0
 10
0.0
 20
0.0
 30
0.0
 40
1.0
  1
 '','N/A' 
  3

  2
ZALG
 70
     9
  0
ATTDEF
  5
158
  8
0
 10
0.0
 20
0.0
 30
0.0
 40
1.0
  1
0
  3

  2
NOMH6V
 70
     9
  0
ATTDEF
  5
159
  8
0
 10
0.0
 20
0.0
 30
0.0
 40
1.0
  1
5.000
  3

  2
NOMH6VMAX
 70
     9
  0
ATTDEF
  5
15A
  8
0
 10
0.0
 20
0.0
 30
0.0
 40
1.0
  1
[0]
  3

  2
NOMH6VALG
 70
     9
  0
ATTDEF
  5
15B
  8
0
 10
0.0
 20
0.0
 30
0.0
 40
1.0
  1
0
  3

  2
NOMH6H
 70
     9
  0
ATTDEF
  5
15C
  8
0
 10
0.0
 20
0.0
 30
0.0
 40
1.0
  1
5.000
  3

  2
NOMH6HMAX
 70
     9
  0
ATTDEF
  5
15D
  8
0
 10
0.0
 20
0.0
 30
0.0
 40
1.0
  1
[0]
  3

  2
NOMH6HALG
 70
     9
  0
ATTDEF
  5
15E
  8
0
 10
0.0
 20
0.0
 30
0.0
 40
1.0
  1
13.0
  3

  2
DD6
 70
     9
  0
ATTDEF
  5
15F
  8
0
 10
0.0
 20
0.0
 30
0.0
 40
1.0
  1
19.0
  3

  2
DD16
 70
     9
  0
ATTDEF
  5
160
  8
0
 10
0.0
 20
0.0
 30
0.0
 40
1.0
  1
0
  3

  2
XA
 70
     9
  0
ATTDEF
  5
161
  8
0
 10
0.0
 20
0.0
 30
0.0
 40
1.0
  1
7.000
  3

  2
XAMIN
 70
     9
  0
ATTDEF
  5
162
  8
0
 10
0.0
 20
0.0
 30
0.0
 40
1.0
  1
164.000
  3

  2
XAMAX
 70
     9
  0
ATTDEF
  5
163
  8
0
 10
0.0
 20
0.0
 30
0.0
 40
1.0
  1
[0]
  3

  2
XAALG
 70
     9
  0
ATTDEF
  5
164
  8
0
 10
0.0
 20
0.0
 30
0.0
 40
1.0
  1
0
  3

  2
XB
 70
     9
  0
ATTDEF
  5
165
  8
0
 10
0.0
 20
0.0
 30
0.0
 40
1.0
  1
16.000
  3

  2
XBMIN
 70
     9
  0
ATTDEF
  5
166
  8
0
 10
0.0
 20
0.0
 30
0.0
 40
1.0
  1
185.000
  3

  2
XBMAX
 70
     9
  0
ATTDEF
  5
167
  8
0
 10
0.0
 20
0.0
 30
0.0
 40
1.0
  1
[0]
  3

  2
XBALG
 70
     9
  0
ATTDEF
  5
168
  8
0
 10
0.0
 20
0.0
 30
0.0
 40
1.0
  1
0
  3

  2
XC
 70
     9
  0
ATTDEF
  5
169
  8
0
 10
0.0
 20
0.0
 30
0.0
 40
1.0
  1
16.000
  3

  2
XCMIN
 70
     9
  0
ATTDEF
  5
16A
  8
0
 10
0.0
 20
0.0
 30
0.0
 40
1.0
  1
206.000
  3

  2
XCMAX
 70
     9
  0
ATTDEF
  5
16B
  8
0
 10
0.0
 20
0.0
 30
0.0
 40
1.0
  1
[0]
  3

  2
XCALG
 70
     9
  0
ATTDEF
  5
16C
  8
0
 10
0.0
 20
0.0
 30
0.0
 40
1.0
  1
0
  3

  2
XD
 70
     9
  0
ATTDEF
  5
16D
  8
0
 10
0.0
 20
0.0
 30
0.0
 40
1.0
  1
16.000
  3

  2
XDMIN
 70
     9
  0
ATTDEF
  5
16E
  8
0
 10
0.0
 20
0.0
 30
0.0
 40
1.0
  1
227.000
  3

  2
XDMAX
 70
     9
  0
ATTDEF
  5
16F
  8
0
 10
0.0
 20
0.0
 30
0.0
 40
1.0
  1
[0]
  3

  2
XDALG
 70
     9
  0
ATTDEF
  5
170
  8
0
 10
0.0
 20
0.0
 30
0.0
 40
1.0
  1
0
  3

  2
XE
 70
     9
  0
ATTDEF
  5
171
  8
0
 10
0.0
 20
0.0
 30
0.0
 40
1.0
  1
16.000
  3

  2
XEMIN
 70
     9
  0
ATTDEF
  5
172
  8
0
 10
0.0
 20
0.0
 30
0.0
 40
1.0
  1
143.000
  3

  2
XEMAX
 70
     9
  0
ATTDEF
  5
173
  8
0
 10
0.0
 20
0.0
 30
0.0
 40
1.0
  1
[0]
  3

  2
XEALG
 70
     9
  0
ATTDEF
  5
174
  8
0
 10
0.0
 20
0.0
 30
0.0
 40
1.0
  1
0
  3

  2
YA
 70
     9
  0
ATTDEF
  5
175
  8
0
 10
0.0
 20
0.0
 30
0.0
 40
1.0
  1
7.000
  3

  2
YAMIN
 70
     9
  0
ATTDEF
  5
176
  8
0
 10
0.0
 20
0.0
 30
0.0
 40
1.0
  1
164.000
  3

  2
YAMAX
 70
     9
  0
ATTDEF
  5
177
  8
0
 10
0.0
 20
0.0
 30
0.0
 40
1.0
  1
[0]
  3

  2
YAALG
 70
     9
  0
ATTDEF
  5
178
  8
0
 10
0.0
 20
0.0
 30
0.0
 40
1.0
  1
0
  3

  2
YB
 70
     9
  0
ATTDEF
  5
179
  8
0
 10
0.0
 20
0.0
 30
0.0
 40
1.0
  1
16.000
  3

  2
YBMIN
 70
     9
  0
ATTDEF
  5
17A
  8
0
 10
0.0
 20
0.0
 30
0.0
 40
1.0
  1
185.000
  3

  2
YBMAX
 70
     9
  0
ATTDEF
  5
17B
  8
0
 10
0.0
 20
0.0
 30
0.0
 40
1.0
  1
[0]
  3

  2
YBALG
 70
     9
  0
ATTDEF
  5
17C
  8
0
 10
0.0
 20
0.0
 30
0.0
 40
1.0
  1
0
  3

  2
YC
 70
     9
  0
ATTDEF
  5
17D
  8
0
 10
0.0
 20
0.0
 30
0.0
 40
1.0
  1
16.000
  3

  2
YCMIN
 70
     9
  0
ATTDEF
  5
17E
  8
0
 10
0.0
 20
0.0
 30
0.0
 40
1.0
  1
206.000
  3

  2
YCMAX
 70
     9
  0
ATTDEF
  5
17F
  8
0
 10
0.0
 20
0.0
 30
0.0
 40
1.0
  1
[0]
  3

  2
YCALG
 70
     9
  0
ATTDEF
  5
180
  8
0
 10
0.0
 20
0.0
 30
0.0
 40
1.0
  1
0
  3

  2
YD
 70
     9
  0
ATTDEF
  5
181
  8
0
 10
0.0
 20
0.0
 30
0.0
 40
1.0
  1
16.000
  3

  2
YDMIN
 70
     9
  0
ATTDEF
  5
182
  8
0
 10
0.0
 20
0.0
 30
0.0
 40
1.0
  1
227.000
  3

  2
YDMAX
 70
     9
  0
ATTDEF
  5
183
  8
0
 10
0.0
 20
0.0
 30
0.0
 40
1.0
  1
[0]
  3

  2
YDALG
 70
     9
  0
ATTDEF
  5
184
  8
0
 10
0.0
 20
0.0
 30
0.0
 40
1.0
  1
0
  3

  2
YE
 70
     9
  0
ATTDEF
  5
185
  8
0
 10
0.0
 20
0.0
 30
0.0
 40
1.0
  1
16.000
  3

  2
YEMIN
 70
     9
  0
ATTDEF
  5
186
  8
0
 10
0.0
 20
0.0
 30
0.0
 40
1.0
  1
143.000
  3

  2
YEMAX
 70
     9
  0
ATTDEF
  5
187
  8
0
 10
0.0
 20
0.0
 30
0.0
 40
1.0
  1
[0]
  3

  2
YEALG
 70
     9
  0
ATTDEF
  5
188
  8
0
 10
0.0
 20
0.0
 30
0.0
 40
1.0
  1

  3

  2
ALT6XPN
 70
     9
  0
ATTDEF
  5
189
  8
0
 10
0.0
 20
0.0
 30
0.0
 40
1.0
  1

  3

  2
ALT6YPN
 70
     9
  0
ATTDEF
  5
18A
  8
0
 10
0.0
 20
0.0
 30
0.0
 40
1.0
  1

  3

  2
ALT6PN
 70
     9
  0
ATTDEF
  5
18B
  8
0
 10
0.0
 20
0.0
 30
0.0
 40
1.0
  1

  3

  2
ALT7
 70
     9
  0
ATTDEF
  5
18C
  8
0
 10
0.0
 20
0.0
 30
0.0
 40
1.0
  1
 '','w/o M Type Hole Alteration','1','with M Type Hole Alteration' 
  3

  2
ALT7ALG
 70
     9
  0
ATTDEF
  5
18D
  8
0
 10
0.0
 20
0.0
 30
0.0
 40
1.0
  1

  3

  2
HPS7
 70
     9
  0
ATTDEF
  5
18E
  8
0
 10
0.0
 20
0.0
 30
0.0
 40
1.0
  1
 '','N/A' 
  3

  2
HPS7ALG
 70
     9
  0
ATTDEF
  5
18F
  8
0
 10
0.0
 20
0.0
 30
0.0
 40
1.0
  1

  3

  2
HDL7
 70
     9
  0
ATTDEF
  5
190
  8
0
 10
0.0
 20
0.0
 30
0.0
 40
1.0
  1
 '','N/A' 
  3

  2
HDL7ALG
 70
     9
  0
ATTDEF
  5
191
  8
0
 10
0.0
 20
0.0
 30
0.0
 40
1.0
  1

  3

  2
HDR7
 70
     9
  0
ATTDEF
  5
192
  8
0
 10
0.0
 20
0.0
 30
0.0
 40
1.0
  1
 '','N/A' 
  3

  2
HDR7ALG
 70
     9
  0
ATTDEF
  5
193
  8
0
 10
0.0
 20
0.0
 30
0.0
 40
1.0
  1
10
  3

  2
H7
 70
     9
  0
ATTDEF
  5
194
  8
0
 10
0.0
 20
0.0
 30
0.0
 40
1.0
  1
7.1
  3

  2
D7
 70
     9
  0
ATTDEF
  5
195
  8
0
 10
0.0
 20
0.0
 30
0.0
 40
1.0
  1

  3

  2
ALT7PN
 70
     9
  0
ATTDEF
  5
196
  8
0
 10
0.0
 20
0.0
 30
0.0
 40
1.0
  1

  3

  2
ALT8T
 70
     9
  0
ATTDEF
  5
197
  8
0
 10
0.0
 20
0.0
 30
0.0
 40
1.0
  1
 '','w/o L Type Hole Alteration (Top)','1','with L Type Hole Alteration (Top)' 
  3

  2
ALT8TALG
 70
     9
  0
ATTDEF
  5
198
  8
0
 10
0.0
 20
0.0
 30
0.0
 40
1.0
  1

  3

  2
ALT8B
 70
     9
  0
ATTDEF
  5
199
  8
0
 10
0.0
 20
0.0
 30
0.0
 40
1.0
  1
 '','w/o L Type Hole Alteration (Bottom)','1','with L Type Hole Alteration (Bottom)' 
  3

  2
ALT8BALG
 70
     9
  0
ATTDEF
  5
19A
  8
0
 10
0.0
 20
0.0
 30
0.0
 40
1.0
  1
0
  3

  2
HQ
 70
     9
  0
ATTDEF
  5
19B
  8
0
 10
0.0
 20
0.0
 30
0.0
 40
1.0
  1
0
  3

  2
HQALG
 70
     9
  0
ATTDEF
  5
19C
  8
0
 10
0.0
 20
0.0
 30
0.0
 40
1.0
  1
0
  3

  2
JLP
 70
     9
  0
ATTDEF
  5
19D
  8
0
 10
0.0
 20
0.0
 30
0.0
 40
1.0
  1
12.000
  3

  2
JLPMIN
 70
     9
  0
ATTDEF
  5
19E
  8
0
 10
0.0
 20
0.0
 30
0.0
 40
1.0
  1
0.000
  3

  2
JLPMAX
 70
     9
  0
ATTDEF
  5
19F
  8
0
 10
0.0
 20
0.0
 30
0.0
 40
1.0
  1
[0]
  3

  2
JLPALG
 70
     9
  0
ATTDEF
  5
1A0
  8
0
 10
0.0
 20
0.0
 30
0.0
 40
1.0
  1
0
  3

  2
KLP
 70
     9
  0
ATTDEF
  5
1A1
  8
0
 10
0.0
 20
0.0
 30
0.0
 40
1.0
  1
12.000
  3

  2
KLPMIN
 70
     9
  0
ATTDEF
  5
1A2
  8
0
 10
0.0
 20
0.0
 30
0.0
 40
1.0
  1
0.000
  3

  2
KLPMAX
 70
     9
  0
ATTDEF
  5
1A3
  8
0
 10
0.0
 20
0.0
 30
0.0
 40
1.0
  1
[0]
  3

  2
KLPALG
 70
     9
  0
ATTDEF
  5
1A4
  8
0
 10
0.0
 20
0.0
 30
0.0
 40
1.0
  1
0.000
  3

  2
L1
 70
     9
  0
ATTDEF
  5
1A5
  8
0
 10
0.0
 20
0.0
 30
0.0
 40
1.0
  1
7.1
  3

  2
D8
 70
     9
  0
ATTDEF
  5
1A6
  8
0
 10
0.0
 20
0.0
 30
0.0
 40
1.0
  1

  3

  2
ALT8PN
 70
     9
  0
ATTDEF
  5
1A7
  8
0
 10
0.0
 20
0.0
 30
0.0
 40
1.0
  1
DUMMY
  3

  2
KT
 70
     9
  0
ENDSEC
  0
EOF
