  0
SECTION
  2
HEADER
  9
$ACADVER
  1
AC1009
  9
$DWGCODEPAGE
  3
dos850
  9
$INSBASE
 10
0.0
 20
0.0
 30
0.0
  9
$EXTMIN
 10
0.0
 20
0.0
 30
0.0
  9
$EXTMAX
 10
1000.0
 20
1000.0
 30
1000.0
  9
$LIMMIN
 10
0.0
 20
0.0
  9
$LIMMAX
 10
420.0
 20
297.0
  9
$ORTHOMODE
 70
     0
  9
$REGENMODE
 70
     1
  9
$FILLMODE
 70
     1
  9
$QTEXTMODE
 70
     0
  9
$MIRRTEXT
 70
     1
  9
$DRAGMODE
 70
     2
  9
$LTSCALE
 40
1.0
  9
$OSMODE
 70
    37
  9
$ATTMODE
 70
     1
  9
$TEXTSIZE
 40
2.5
  9
$TRACEWID
 40
1.0
  9
$TEXTSTYLE
  7
STANDARD
  9
$CLAYER
  8
0
  9
$CELTYPE
  6
BYLAYER
  9
$CECOLOR
 62
   256
  9
$DIMSCALE
 40
1.0
  9
$DIMASZ
 40
2.5
  9
$DIMEXO
 40
0.625
  9
$DIMDLI
 40
3.75
  9
$DIMRND
 40
0.0
  9
$DIMDLE
 40
0.0
  9
$DIMEXE
 40
1.25
  9
$DIMTP
 40
0.0
  9
$DIMTM
 40
0.0
  9
$DIMTXT
 40
2.5
  9
$DIMCEN
 40
2.5
  9
$DIMTSZ
 40
0.0
  9
$DIMTOL
 70
     0
  9
$DIMLIM
 70
     0
  9
$DIMTIH
 70
     0
  9
$DIMTOH
 70
     0
  9
$DIMSE1
 70
     0
  9
$DIMSE2
 70
     0
  9
$DIMTAD
 70
     1
  9
$DIMZIN
 70
     8
  9
$DIMBLK
  1

  9
$DIMASO
 70
     1
  9
$DIMSHO
 70
     1
  9
$DIMPOST
  1

  9
$DIMAPOST
  1

  9
$DIMALT
 70
     0
  9
$DIMALTD
 70
     3
  9
$DIMALTF
 40
0.03937007874016
  9
$DIMLFAC
 40
1.0
  9
$DIMTOFL
 70
     1
  9
$DIMTVP
 40
0.0
  9
$DIMTIX
 70
     0
  9
$DIMSOXD
 70
     0
  9
$DIMSAH
 70
     0
  9
$DIMBLK1
  1

  9
$DIMBLK2
  1

  9
$DIMSTYLE
  2
ISO-25
  9
$DIMCLRD
 70
     0
  9
$DIMCLRE
 70
     0
  9
$DIMCLRT
 70
     0
  9
$DIMTFAC
 40
1.0
  9
$DIMGAP
 40
0.625
  9
$LUNITS
 70
     2
  9
$LUPREC
 70
     4
  9
$SKETCHINC
 40
1.0
  9
$FILLETRAD
 40
10.0
  9
$AUNITS
 70
     0
  9
$AUPREC
 70
     0
  9
$MENU
  1
.
  9
$ELEVATION
 40
0.0
  9
$PELEVATION
 40
0.0
  9
$THICKNESS
 40
0.0
  9
$LIMCHECK
 70
     0
  9
$CHAMFERA
 40
10.0
  9
$CHAMFERB
 40
10.0
  9
$SKPOLY
 70
     0
  9
$TDCREATE
 40
2456620.924710648
  9
$TDUPDATE
 40
2456620.924710648
  9
$TDINDWG
 40
0.0000000116
  9
$TDUSRTIMER
 40
0.0000000116
  9
$USRTIMER
 70
     1
  9
$ANGBASE
 50
0.0
  9
$ANGDIR
 70
     0
  9
$PDMODE
 70
     0
  9
$PDSIZE
 40
0.0
  9
$PLINEWID
 40
0.0
  9
$COORDS
 70
     1
  9
$SPLFRAME
 70
     0
  9
$SPLINETYPE
 70
     6
  9
$SPLINESEGS
 70
     8
  9
$ATTDIA
 70
     0
  9
$ATTREQ
 70
     1
  9
$HANDLING
 70
     1
  9
$HANDSEED
  5
167
  9
$SURFTAB1
 70
     6
  9
$SURFTAB2
 70
     6
  9
$SURFTYPE
 70
     6
  9
$SURFU
 70
     6
  9
$SURFV
 70
     6
  9
$UCSNAME
  2

  9
$UCSORG
 10
0.0
 20
0.0
 30
0.0
  9
$UCSXDIR
 10
1.0
 20
0.0
 30
0.0
  9
$UCSYDIR
 10
0.0
 20
1.0
 30
0.0
  9
$PUCSNAME
  2

  9
$PUCSORG
 10
0.0
 20
0.0
 30
0.0
  9
$PUCSXDIR
 10
1.0
 20
0.0
 30
0.0
  9
$PUCSYDIR
 10
0.0
 20
1.0
 30
0.0
  9
$USERI1
 70
     0
  9
$USERI2
 70
     0
  9
$USERI3
 70
     0
  9
$USERI4
 70
     0
  9
$USERI5
 70
     0
  9
$USERR1
 40
0.0
  9
$USERR2
 40
0.0
  9
$USERR3
 40
0.0
  9
$USERR4
 40
0.0
  9
$USERR5
 40
0.0
  9
$WORLDVIEW
 70
     1
  9
$SHADEDGE
 70
     3
  9
$SHADEDIF
 70
    70
  9
$TILEMODE
 70
     1
  9
$MAXACTVP
 70
    64
  9
$PLIMCHECK
 70
     0
  9
$PEXTMIN
 10
0.0
 20
0.0
 30
0.0
  9
$PEXTMAX
 10
1000.0
 20
1000.0
 30
0.0
  9
$PLIMMIN
 10
0.0
 20
0.0
  9
$PLIMMAX
 10
100.0
 20
100.0
  9
$UNITMODE
 70
     0
  9
$VISRETAIN
 70
     1
  9
$PLINEGEN
 70
     0
  9
$PSLTSCALE
 70
     1
  0
ENDSEC
  0
SECTION
  2
TABLES
  0
TABLE
  2
VPORT
 70
     1
  0
VPORT
  2
*ACTIVE
 70
     0
 10
0.0
 20
0.0
 11
1.0
 21
1.0
 12
-0.0000000000000568
 22
0.0
 13
0.0
 23
0.0
 14
10.0
 24
10.0
 15
10.0
 25
10.0
 16
0.0
 26
0.0
 36
1.0
 17
0.0
 27
0.0
 37
0.0
 40
20.97699913344814
 41
1.972972972850329
 42
50.0
 43
0.0
 44
0.0
 50
0.0
 51
0.0
 71
     0
 72
   100
 73
     1
 74
     3
 75
     0
 76
     0
 77
     0
 78
     0
  0
ENDTAB
  0
TABLE
  2
LTYPE
 70
     4
  0
LTYPE
  2
CONTINUOUS
 70
     0
  3
Solid line
 72
    65
 73
     0
 40
0.0
  0
LTYPE
  2
CNS_SOLID
 70
     0
  3

 72
    65
 73
     0
 40
0.0
  0
LTYPE
  2
CNS_DASHED
 70
     0
  3

 72
    65
 73
     2
 40
2.0
 49
1.0
 49
-1.0
  0
LTYPE
  2
CNS_CENTER
 70
     0
  3

 72
    65
 73
     4
 40
2.0
 49
0.45
 49
-0.5
 49
0.05
 49
-0.5
  0
ENDTAB
  0
TABLE
  2
LAYER
 70
     8
  0
LAYER
  2
0
 70
     0
 62
     7
  6
CONTINUOUS
  0
LAYER
  2
VIS
 70
     0
 62
     7
  6
CNS_SOLID
  0
LAYER
  2
THIN
 70
     0
 62
     7
  6
CNS_SOLID
  0
LAYER
  2
HIDDEN
 70
     0
 62
     7
  6
CNS_DASHED
  0
LAYER
  2
CENTER
 70
     0
 62
     7
  6
CNS_CENTER
  0
LAYER
  2
CENTER1
 70
     0
 62
     7
  6
CNS_CENTER
  0
LAYER
  2
THREAD
 70
     0
 62
     7
  6
CNS_SOLID
  0
LAYER
  2
ATTRIB
 70
     0
 62
     7
  6
CNS_SOLID
  0
ENDTAB
  0
TABLE
  2
STYLE
 70
     1
  0
STYLE
  2
STANDARD
 70
     0
 40
0.0
 41
1.0
 50
0.0
 71
     0
 42
2.5
  3
txt
  4

  0
ENDTAB
  0
TABLE
  2
VIEW
 70
     0
  0
ENDTAB
  0
TABLE
  2
UCS
 70
     0
  0
ENDTAB
  0
TABLE
  2
APPID
 70
     1
  0
APPID
  2
ACAD
 70
     0
  0
ENDTAB
  0
TABLE
  2
DIMSTYLE
 70
     1
  0
DIMSTYLE
  2
ISO-25
 70
     0
  3

  4

  5

  6

  7

 40
1.0
 41
2.5
 42
0.625
 43
3.75
 44
1.25
 45
0.0
 46
0.0
 47
0.0
 48
0.0
140
2.5
141
2.5
142
0.0
143
0.03937007874016
144
1.0
145
0.0
146
1.0
147
0.625
 71
     0
 72
     0
 73
     0
 74
     0
 75
     0
 76
     0
 77
     1
 78
     8
170
     0
171
     3
172
     1
173
     0
174
     0
175
     0
176
     0
177
     0
178
     0
  0
ENDTAB
  0
ENDSEC
  0
SECTION
  2
BLOCKS
  0
BLOCK
  8
0
  2
$MODEL_SPACE
 70
     0
 10
0.0
 20
0.0
 30
0.0
  3
$MODEL_SPACE
  1

  0
ENDBLK
  5
21
  8
0
  0
BLOCK
 67
     1
  8
0
  2
$PAPER_SPACE
 70
     0
 10
0.0
 20
0.0
 30
0.0
  3
$PAPER_SPACE
  1

  0
ENDBLK
  5
1D
 67
     1
  8
0
  0
ENDSEC
  0
SECTION
  2
ENTITIES
  0
LINE
  5
34
  8
VIS
 62
     1
 10
-9.999999999999931
 20
8.99999999999994
 30
0.0
 11
-9.999999999999931
 21
3.29999995000008
 31
0.0
  0
ARC
  5
35
  8
VIS
 62
     1
 10
-8.999999999999863
 20
8.999999999999885
 30
0.0
 40
1.000000000000066
 50
90.0
 51
180.0
  0
LINE
  5
36
  8
VIS
 62
     1
 10
-3.299999999999894
 20
9.99999999999983
 30
0.0
 11
-8.999999999999879
 21
9.99999999999995
 31
0.0
  0
ARC
  5
37
  8
VIS
 62
     1
 10
-3.299999999999823
 20
9.699999999999916
 30
0.0
 40
0.2999999999999132
 50
0.0
 51
90.0
  0
LINE
  5
38
  8
VIS
 62
     1
 10
-2.9999999999999
 20
8.00000000000006
 30
0.0
 11
-2.99999999999991
 21
9.699999999999871
 31
0.0
  0
LINE
  5
39
  8
VIS
 62
     1
 10
-5.9999999999999
 20
7.99999999999994
 30
0.0
 11
-2.9999999999999
 21
8.00000000000006
 31
0.0
  0
LINE
  5
3A
  8
VIS
 62
     1
 10
-5.9999999999999
 20
7.0606434999998
 30
0.0
 11
-5.9999999999999
 21
7.99999999999994
 31
0.0
  0
LINE
  5
3B
  8
VIS
 62
     1
 10
-2.93935654999992
 20
3.99999999999994
 30
0.0
 11
-5.999999999999899
 21
7.060643499999799
 31
0.0
  0
LINE
  5
3C
  8
VIS
 62
     1
 10
-0.5196281172708005
 20
4.00000000000006
 30
0.0
 11
-2.93935654999992
 21
3.99999999999994
 31
0.0
  0
LINE
  5
3D
  8
VIS
 62
     1
 10
-0.0000064374999341
 20
3.699996283307629
 30
0.0
 11
-0.5196281172708005
 21
4.00000000000006
 31
0.0
  0
LINE
  5
3E
  8
VIS
 62
     1
 10
0.5196152422707381
 20
3.99999999999994
 30
0.0
 11
-0.0000064374999341
 21
3.699996283307629
 31
0.0
  0
LINE
  5
3F
  8
VIS
 62
     1
 10
2.93933080000003
 20
3.99999999999994
 30
0.0
 11
0.5196152422707381
 21
3.99999999999994
 31
0.0
  0
LINE
  5
40
  8
VIS
 62
     1
 10
6.00000000000001
 20
7.06066899999979
 30
0.0
 11
2.939330800000031
 21
3.999999999999941
 31
0.0
  0
LINE
  5
41
  8
VIS
 62
     1
 10
6.00000000000001
 20
7.99999999999994
 30
0.0
 11
6.00000000000001
 21
7.06066899999979
 31
0.0
  0
LINE
  5
42
  8
VIS
 62
     1
 10
3.00000000000007
 20
7.99999999999994
 30
0.0
 11
6.00000000000001
 21
7.99999999999994
 31
0.0
  0
LINE
  5
43
  8
VIS
 62
     1
 10
3.00000000000007
 20
9.70000000000009
 30
0.0
 11
3.00000000000007
 21
7.99999999999994
 31
0.0
  0
ARC
  5
44
  8
VIS
 62
     1
 10
3.299999890502459
 20
9.700000109497548
 30
0.0
 40
0.2999998905024081
 50
89.99998863677963
 51
180.0000209130979
  0
LINE
  5
45
  8
VIS
 62
     1
 10
8.99999999999995
 20
9.99999999999995
 30
0.0
 11
3.29999995000012
 21
9.99999999999995
 31
0.0
  0
ARC
  5
46
  8
VIS
 62
     1
 10
8.999999999999959
 20
8.999999999999988
 30
0.0
 40
0.9999999999999609
 50
0.0
 51
90.0
  0
LINE
  5
47
  8
VIS
 62
     1
 10
9.99999999999992
 20
3.29999995000008
 30
0.0
 11
9.99999999999992
 21
8.99999999999994
 31
0.0
  0
ARC
  5
48
  8
VIS
 62
     1
 10
9.700000109497109
 20
3.299999890502736
 30
0.0
 40
0.2999998905028161
 50
269.9999790875678
 51
0.0000113587195756
  0
LINE
  5
49
  8
VIS
 62
     1
 10
8.000000000000011
 20
2.99999999999994
 30
0.0
 11
9.699999999999911
 21
2.99999999999994
 31
0.0
  0
LINE
  5
4A
  8
VIS
 62
     1
 10
8.000000000000011
 20
5.99999999999994
 30
0.0
 11
8.000000000000011
 21
2.99999999999994
 31
0.0
  0
LINE
  5
4B
  8
VIS
 62
     1
 10
7.06065100000865
 20
5.99999999999994
 30
0.0
 11
8.000000000000011
 21
5.99999999999994
 31
0.0
  0
LINE
  5
4C
  8
VIS
 62
     1
 10
4.0000000000001
 20
2.93934010000003
 30
0.0
 11
7.06065100000865
 21
5.99999999999994
 31
0.0
  0
LINE
  5
4D
  8
VIS
 62
     1
 10
4.0000000000001
 20
0.5196281172706735
 30
0.0
 11
4.0000000000001
 21
2.93934010000003
 31
0.0
  0
LINE
  5
4E
  8
VIS
 62
     1
 10
3.699996283307633
 20
0.0000064374998451
 30
0.0
 11
4.0000000000001
 21
0.5196281172706736
 31
0.0
  0
LINE
  5
4F
  8
VIS
 62
     1
 10
4.00000000000012
 20
-0.5196152422710174
 30
0.0
 11
3.699996283307633
 21
0.0000064374998452
 31
0.0
  0
LINE
  5
50
  8
VIS
 62
     1
 10
4.0000000000001
 20
-2.93934819999999
 30
0.0
 11
4.00000000000012
 21
-0.5196152422710174
 31
0.0
  0
LINE
  5
51
  8
VIS
 62
     1
 10
7.060643500026979
 20
-5.99999999999994
 30
0.0
 11
4.0000000000001
 21
-2.93934819999999
 31
0.0
  0
LINE
  5
52
  8
VIS
 62
     1
 10
8.000000000000011
 20
-5.99999999999994
 30
0.0
 11
7.060643500026979
 21
-5.99999999999994
 31
0.0
  0
LINE
  5
53
  8
VIS
 62
     1
 10
8.000000000000011
 20
-2.99999999999995
 30
0.0
 11
8.000000000000011
 21
-5.99999999999994
 31
0.0
  0
LINE
  5
54
  8
VIS
 62
     1
 10
9.699999999999911
 20
-2.99999999999995
 30
0.0
 11
8.000000000000011
 21
-2.99999999999995
 31
0.0
  0
ARC
  5
55
  8
VIS
 62
     1
 10
9.700000109497312
 20
-3.299999890502544
 30
0.0
 40
0.2999998905026141
 50
0.0000886412803993
 51
90.00002091247086
  0
LINE
  5
56
  8
VIS
 62
     1
 10
9.99999999999992
 20
-8.99999999999994
 30
0.0
 11
9.99999999999992
 21
-3.29999994999997
 31
0.0
  0
ARC
  5
57
  8
VIS
 62
     1
 10
8.999999999999952
 20
-8.999999999999984
 30
0.0
 40
0.9999999999999663
 50
270.0
 51
360.0
  0
LINE
  5
58
  8
VIS
 62
     1
 10
3.29999995000012
 20
-9.99999999999995
 30
0.0
 11
8.99999999999995
 21
-9.99999999999995
 31
0.0
  0
ARC
  5
59
  8
VIS
 62
     1
 10
3.29999989050263
 20
-9.700000109497376
 30
0.0
 40
0.2999998905025803
 50
179.9999790869021
 51
270.0000113631876
  0
LINE
  5
5A
  8
VIS
 62
     1
 10
3.00000000000007
 20
-7.99999999999995
 30
0.0
 11
3.00000000000007
 21
-9.69999999999999
 31
0.0
  0
LINE
  5
5B
  8
VIS
 62
     1
 10
6.00000000000001
 20
-7.99999999999995
 30
0.0
 11
3.00000000000007
 21
-7.99999999999995
 31
0.0
  0
LINE
  5
5C
  8
VIS
 62
     1
 10
6.000000000000011
 20
-7.060676999998335
 30
0.0
 11
6.00000000000001
 21
-7.99999999999995
 31
0.0
  0
LINE
  5
5D
  8
VIS
 62
     1
 10
2.93932269999929
 20
-4.00000000000006
 30
0.0
 11
6.000000000000011
 21
-7.060676999998334
 31
0.0
  0
LINE
  5
5E
  8
VIS
 62
     1
 10
0.519628117270614
 20
-4.00000000000006
 30
0.0
 11
2.93932269999929
 21
-4.00000000000006
 31
0.0
  0
LINE
  5
5F
  8
VIS
 62
     1
 10
0.0000064374999482
 20
-3.699996283307617
 30
0.0
 11
0.519628117270614
 21
-4.00000000000006
 31
0.0
  0
LINE
  5
60
  8
VIS
 62
     1
 10
-0.5196152422707168
 20
-4.00000000000006
 30
0.0
 11
0.0000064374999481
 21
-3.699996283307617
 31
0.0
  0
LINE
  5
61
  8
VIS
 62
     1
 10
-2.93934889999965
 20
-4.00000000000006
 30
0.0
 11
-0.5196152422707168
 21
-4.00000000000006
 31
0.0
  0
LINE
  5
62
  8
VIS
 62
     1
 10
-5.9999999999999
 20
-7.060651499998964
 30
0.0
 11
-2.93934889999965
 21
-4.00000000000006
 31
0.0
  0
LINE
  5
63
  8
VIS
 62
     1
 10
-5.9999999999999
 20
-7.99999999999995
 30
0.0
 11
-5.9999999999999
 21
-7.060651499998964
 31
0.0
  0
LINE
  5
64
  8
VIS
 62
     1
 10
-2.99999999999991
 20
-7.99999999999995
 30
0.0
 11
-5.9999999999999
 21
-7.99999999999995
 31
0.0
  0
LINE
  5
65
  8
VIS
 62
     1
 10
-2.99999999999991
 20
-9.69999999999999
 30
0.0
 11
-2.99999999999991
 21
-7.99999999999995
 31
0.0
  0
ARC
  5
66
  8
VIS
 62
     1
 10
-3.299999890502369
 20
-9.700000109497479
 30
0.0
 40
0.2999998905024773
 50
269.9999886368044
 51
0.0000209130978988
  0
LINE
  5
67
  8
VIS
 62
     1
 10
-8.999999999999901
 20
-9.99999999999995
 30
0.0
 11
-3.299999949999901
 21
-9.99999999999995
 31
0.0
  0
ARC
  5
68
  8
VIS
 62
     1
 10
-8.999999999999863
 20
-8.999999999999881
 30
0.0
 40
1.000000000000068
 50
180.0
 51
270.0
  0
LINE
  5
69
  8
VIS
 62
     1
 10
-9.999999999999931
 20
-3.29999994999997
 30
0.0
 11
-9.999999999999931
 21
-8.99999999999994
 31
0.0
  0
ARC
  5
6A
  8
VIS
 62
     1
 10
-9.700000109497282
 20
-3.299999890502584
 30
0.0
 40
0.299999890502654
 50
89.99997908753289
 51
180.0000113265874
  0
LINE
  5
6B
  8
VIS
 62
     1
 10
-7.99999999999991
 20
-2.99999999999995
 30
0.0
 11
-9.6999999999999
 21
-2.99999999999995
 31
0.0
  0
LINE
  5
6C
  8
VIS
 62
     1
 10
-7.99999999999991
 20
-5.99999999999994
 30
0.0
 11
-7.99999999999991
 21
-2.99999999999995
 31
0.0
  0
LINE
  5
6D
  8
VIS
 62
     1
 10
-7.060669500002126
 20
-5.99999999999994
 30
0.0
 11
-7.99999999999991
 21
-5.99999999999994
 31
0.0
  0
LINE
  5
6E
  8
VIS
 62
     1
 10
-3.9999999999999
 20
-2.93933724999994
 30
0.0
 11
-7.060669500002126
 21
-5.99999999999994
 31
0.0
  0
LINE
  5
6F
  8
VIS
 62
     1
 10
-3.99999999999988
 20
-0.519628117270473
 30
0.0
 11
-3.9999999999999
 21
-2.93933724999994
 31
0.0
  0
LINE
  5
70
  8
VIS
 62
     1
 10
-3.699996283307641
 20
-0.0000064374999623
 30
0.0
 11
-3.99999999999988
 21
-0.519628117270473
 31
0.0
  0
LINE
  5
71
  8
VIS
 62
     1
 10
-3.9999999999999
 20
0.5196152422705831
 30
0.0
 11
-3.699996283307641
 21
-0.0000064374999623
 31
0.0
  0
LINE
  5
72
  8
VIS
 62
     1
 10
-3.99999999999993
 20
2.93932965002256
 30
0.0
 11
-3.9999999999999
 21
0.5196152422705831
 31
0.0
  0
LINE
  5
73
  8
VIS
 62
     1
 10
-7.06067699999342
 20
5.99999999999994
 30
0.0
 11
-3.99999999999993
 21
2.93932965002256
 31
0.0
  0
LINE
  5
74
  8
VIS
 62
     1
 10
-7.99999999999991
 20
5.99999999999994
 30
0.0
 11
-7.06067699999342
 21
5.99999999999994
 31
0.0
  0
LINE
  5
75
  8
VIS
 62
     1
 10
-7.99999999999991
 20
2.99999999999994
 30
0.0
 11
-7.99999999999991
 21
5.99999999999994
 31
0.0
  0
LINE
  5
76
  8
VIS
 62
     1
 10
-9.6999999999999
 20
2.99999999999994
 30
0.0
 11
-7.99999999999991
 21
2.99999999999994
 31
0.0
  0
ARC
  5
77
  8
VIS
 62
     1
 10
-9.700000109497083
 20
3.299999890502774
 30
0.0
 40
0.2999998905028539
 50
179.9999886412804
 51
270.0000209124291
  0
CIRCLE
  5
78
  8
VIS
 62
     1
 10
0.0000000000000001
 20
0.0
 30
0.0
 40
2.1
  0
LINE
  5
79
  8
CENTER
 62
     4
 10
-2.382842712474618
 20
0.0
 30
0.0
 11
2.382842712474618
 21
0.0
 31
0.0
  0
LINE
  5
7A
  8
CENTER
 62
     4
 10
-0.0000000000000001
 20
-2.382842712474618
 30
0.0
 11
-0.0000000000000001
 21
2.382842712474618
 31
0.0
  0
LINE
  5
7B
  8
CENTER
 62
     4
 10
-3.882842712474357
 20
9.699999999999914
 30
0.0
 11
-2.717157287525292
 21
9.699999999999914
 31
0.0
  0
LINE
  5
7C
  8
CENTER
 62
     4
 10
-3.299999999999824
 20
9.117157287525382
 30
0.0
 11
-3.299999999999824
 21
10.28284271247445
 31
0.0
  0
LINE
  5
7D
  8
CENTER
 62
     4
 10
2.717157287525434
 20
9.700000109497548
 30
0.0
 11
3.882842493479485
 21
9.700000109497548
 31
0.0
  0
LINE
  5
7E
  8
CENTER
 62
     4
 10
3.299999890502459
 20
9.117157506520522
 30
0.0
 11
3.299999890502459
 21
10.28284271247457
 31
0.0
  0
LINE
  5
7F
  8
CENTER
 62
     4
 10
7.717157287525382
 20
8.999999999999988
 30
0.0
 11
10.28284271247454
 21
8.999999999999988
 31
0.0
  0
LINE
  5
80
  8
CENTER
 62
     4
 10
8.999999999999959
 20
7.71715728752541
 30
0.0
 11
8.999999999999959
 21
10.28284271247457
 31
0.0
  0
LINE
  5
81
  8
CENTER
 62
     4
 10
9.117157506519673
 20
3.299999890502738
 30
0.0
 11
10.28284271247454
 21
3.299999890502738
 31
0.0
  0
LINE
  5
82
  8
CENTER
 62
     4
 10
9.700000109497108
 20
2.717157287525302
 30
0.0
 11
9.700000109497108
 21
3.882842493480173
 31
0.0
  0
LINE
  5
83
  8
CENTER
 62
     4
 10
9.11715750652008
 20
-3.299999890502544
 30
0.0
 11
10.28284271247454
 21
-3.299999890502544
 31
0.0
  0
LINE
  5
84
  8
CENTER
 62
     4
 10
9.700000109497312
 20
-3.882842493479775
 30
0.0
 11
9.700000109497312
 21
-2.717157287525312
 31
0.0
  0
LINE
  5
85
  8
CENTER
 62
     4
 10
7.717157287525374
 20
-8.999999999999986
 30
0.0
 11
10.28284271247454
 21
-8.999999999999986
 31
0.0
  0
LINE
  5
86
  8
CENTER
 62
     4
 10
8.999999999999956
 20
-10.28284271247457
 30
0.0
 11
8.999999999999956
 21
-7.717157287525405
 31
0.0
  0
LINE
  5
87
  8
CENTER
 62
     4
 10
2.717157287525434
 20
-9.700000109497378
 30
0.0
 11
3.882842493479827
 21
-9.700000109497378
 31
0.0
  0
LINE
  5
88
  8
CENTER
 62
     4
 10
3.29999989050263
 20
-10.28284271247457
 30
0.0
 11
3.29999989050263
 21
-9.117157506520181
 31
0.0
  0
LINE
  5
89
  8
CENTER
 62
     4
 10
-3.882842493479465
 20
-9.700000109497479
 30
0.0
 11
-2.717157287525274
 21
-9.700000109497479
 31
0.0
  0
LINE
  5
8A
  8
CENTER
 62
     4
 10
-3.299999890502369
 20
-10.28284271247457
 30
0.0
 11
-3.299999890502369
 21
-9.117157506520384
 31
0.0
  0
LINE
  5
8B
  8
CENTER
 62
     4
 10
-10.28284271247456
 20
-3.299999890502583
 30
0.0
 11
-9.117157506520012
 21
-3.299999890502583
 31
0.0
  0
LINE
  5
8C
  8
CENTER
 62
     4
 10
-9.700000109497283
 20
-3.882842493479854
 30
0.0
 11
-9.700000109497283
 21
-2.717157287525312
 31
0.0
  0
LINE
  5
8D
  8
CENTER
 62
     4
 10
-10.28284271247456
 20
3.299999890502776
 30
0.0
 11
-9.117157506519607
 21
3.299999890502776
 31
0.0
  0
LINE
  5
8E
  8
CENTER
 62
     4
 10
-9.700000109497081
 20
2.717157287525303
 30
0.0
 11
-9.700000109497081
 21
3.882842493480249
 31
0.0
  0
POINT
  5
8F
  8
VIS
 62
     1
 10
0.0
 20
0.0
 30
0.0
  0
ATTDEF
  5
90
  8
0
 10
0.0
 20
0.0
 30
0.0
 40
1.0
  1
Misumi
  3

  2
Company
 70
     9
  0
ATTDEF
  5
91
  8
0
 10
0.0
 20
0.0
 30
0.0
 40
1.0
  1
HFS5-2020-150
  3

  2
NB
 70
     9
  0
ATTDEF
  5
92
  8
0
 10
0.0
 20
0.0
 30
0.0
 40
1.0
  1
HFS5-2020, HFSB5-2020, CAF5-2020, HFSY5-2020, HFSF5-2020, HFSFB5-2020, HFST5-2020, HFSTB5-2020, HFSH5-2020, HFSC5-2020
  3

  2
NN
 70
     9
  0
ATTDEF
  5
93
  8
0
 10
0.0
 20
0.0
 30
0.0
 40
1.0
  1
HFS5 Series Aluminum Extrusions 20 Square -1 Slot-
  3

  2
NT
 70
     9
  0
ATTDEF
  5
94
  8
0
 10
0.0
 20
0.0
 30
0.0
 40
1.0
  1
HFS5-2020-150
  3

  2
LINA
 70
     9
  0
ATTDEF
  5
95
  8
0
 10
0.0
 20
0.0
 30
0.0
 40
1.0
  1
HFS5-2020-150
  3

  2
PN
 70
     9
  0
ATTDEF
  5
96
  8
0
 10
0.0
 20
0.0
 30
0.0
 40
1.0
  1
HFS5-2020
  3

  2
TPS
 70
     9
  0
ATTDEF
  5
97
  8
0
 10
0.0
 20
0.0
 30
0.0
 40
1.0
  1
A6N01SS-T5 Aluminum Alloy or 6005A-T5 Aluminum Alloy
  3

  2
MAT
 70
     9
  0
ATTDEF
  5
98
  8
0
 10
0.0
 20
0.0
 30
0.0
 40
1.0
  1
Clear Anodize
  3

  2
ST
 70
     9
  0
ATTDEF
  5
99
  8
0
 10
0.0
 20
0.0
 30
0.0
 40
1.0
  1
20
  3

  2
FRMW
 70
     9
  0
ATTDEF
  5
9A
  8
0
 10
0.0
 20
0.0
 30
0.0
 40
1.0
  1
20
  3

  2
FRMH
 70
     9
  0
ATTDEF
  5
9B
  8
0
 10
0.0
 20
0.0
 30
0.0
 40
1.0
  1
150
  3

  2
L
 70
     9
  0
ATTDEF
  5
9C
  8
0
 10
0.0
 20
0.0
 30
0.0
 40
1.0
  1
0.5
  3

  2
MASS
 70
     9
  0
ATTDEF
  5
9D
  8
0
 10
0.0
 20
0.0
 30
0.0
 40
1.0
  1
183
  3

  2
SA
 70
     9
  0
ATTDEF
  5
9E
  8
0
 10
0.0
 20
0.0
 30
0.0
 40
1.0
  1
0.742x10^ 4
  3

  2
LX
 70
     9
  0
ATTDEF
  5
9F
  8
0
 10
0.0
 20
0.0
 30
0.0
 40
1.0
  1
0.742x10^ 4
  3

  2
LY
 70
     9
  0
ATTDEF
  5
A0
  8
0
 10
0.0
 20
0.0
 30
0.0
 40
1.0
  1

  3

  2
ALT1
 70
     9
  0
ATTDEF
  5
A1
  8
0
 10
0.0
 20
0.0
 30
0.0
 40
1.0
  1

  3

  2
ALT2
 70
     9
  0
ATTDEF
  5
A2
  8
0
 10
0.0
 20
0.0
 30
0.0
 40
1.0
  1
 '', 'w/o SC (High Precision Cut)', '-SC', 'with SC (High Precision Cut)' 
  3

  2
ALT2ALG
 70
     9
  0
ATTDEF
  5
A3
  8
0
 10
0.0
 20
0.0
 30
0.0
 40
1.0
  1

  3

  2
ALT3
 70
     9
  0
ATTDEF
  5
A4
  8
0
 10
0.0
 20
0.0
 30
0.0
 40
1.0
  1
 '','w/o 45 Degree Cut','1','with 45 Degree Cut' 
  3

  2
ALT3ALG
 70
     9
  0
ATTDEF
  5
A5
  8
0
 10
0.0
 20
0.0
 30
0.0
 40
1.0
  1

  3

  2
CPS
 70
     9
  0
ATTDEF
  5
A6
  8
0
 10
0.0
 20
0.0
 30
0.0
 40
1.0
  1
 '','N/A' 
  3

  2
CPSALG
 70
     9
  0
ATTDEF
  5
A7
  8
0
 10
0.0
 20
0.0
 30
0.0
 40
1.0
  1

  3

  2
CDSL
 70
     9
  0
ATTDEF
  5
A8
  8
0
 10
0.0
 20
0.0
 30
0.0
 40
1.0
  1
 '','N/A' 
  3

  2
CDSLALG
 70
     9
  0
ATTDEF
  5
A9
  8
0
 10
0.0
 20
0.0
 30
0.0
 40
1.0
  1

  3

  2
CDSR
 70
     9
  0
ATTDEF
  5
AA
  8
0
 10
0.0
 20
0.0
 30
0.0
 40
1.0
  1
 '','N/A' 
  3

  2
CDSRALG
 70
     9
  0
ATTDEF
  5
AB
  8
0
 10
0.0
 20
0.0
 30
0.0
 40
1.0
  1

  3

  2
ALT3PN
 70
     9
  0
ATTDEF
  5
AC
  8
0
 10
0.0
 20
0.0
 30
0.0
 40
1.0
  1

  3

  2
ALT4
 70
     9
  0
ATTDEF
  5
AD
  8
0
 10
0.0
 20
0.0
 30
0.0
 40
1.0
  1
 '','w/o Fastening Location Wrench Access Hole Alterations','1','with Fastening Location Wrench Access Hole Alterations' 
  3

  2
ALT4ALG
 70
     9
  0
ATTDEF
  5
AE
  8
0
 10
0.0
 20
0.0
 30
0.0
 40
1.0
  1
10
  3

  2
HL
 70
     9
  0
ATTDEF
  5
AF
  8
0
 10
0.0
 20
0.0
 30
0.0
 40
1.0
  1
10
  3

  2
HR
 70
     9
  0
ATTDEF
  5
B0
  8
0
 10
0.0
 20
0.0
 30
0.0
 40
1.0
  1
20
  3

  2
J
 70
     9
  0
ATTDEF
  5
B1
  8
0
 10
0.0
 20
0.0
 30
0.0
 40
1.0
  1
20
  3

  2
K
 70
     9
  0
ATTDEF
  5
B2
  8
0
 10
0.0
 20
0.0
 30
0.0
 40
1.0
  1
7.35
  3

  2
DD4
 70
     9
  0
ATTDEF
  5
B3
  8
0
 10
0.0
 20
0.0
 30
0.0
 40
1.0
  1

  3

  2
HPS
 70
     9
  0
ATTDEF
  5
B4
  8
0
 10
0.0
 20
0.0
 30
0.0
 40
1.0
  1
 '','N/A' 
  3

  2
HPSALG
 70
     9
  0
ATTDEF
  5
B5
  8
0
 10
0.0
 20
0.0
 30
0.0
 40
1.0
  1

  3

  2
NOHL
 70
     9
  0
ATTDEF
  5
B6
  8
0
 10
0.0
 20
0.0
 30
0.0
 40
1.0
  1
 '','N/A' 
  3

  2
NOHLALG
 70
     9
  0
ATTDEF
  5
B7
  8
0
 10
0.0
 20
0.0
 30
0.0
 40
1.0
  1

  3

  2
HDL
 70
     9
  0
ATTDEF
  5
B8
  8
0
 10
0.0
 20
0.0
 30
0.0
 40
1.0
  1
 '','N/A' 
  3

  2
HDLALG
 70
     9
  0
ATTDEF
  5
B9
  8
0
 10
0.0
 20
0.0
 30
0.0
 40
1.0
  1

  3

  2
NOHR
 70
     9
  0
ATTDEF
  5
BA
  8
0
 10
0.0
 20
0.0
 30
0.0
 40
1.0
  1
 '','N/A' 
  3

  2
NOHRALG
 70
     9
  0
ATTDEF
  5
BB
  8
0
 10
0.0
 20
0.0
 30
0.0
 40
1.0
  1

  3

  2
HDR
 70
     9
  0
ATTDEF
  5
BC
  8
0
 10
0.0
 20
0.0
 30
0.0
 40
1.0
  1
 '','N/A' 
  3

  2
HDRALG
 70
     9
  0
ATTDEF
  5
BD
  8
0
 10
0.0
 20
0.0
 30
0.0
 40
1.0
  1

  3

  2
ALT41
 70
     9
  0
ATTDEF
  5
BE
  8
0
 10
0.0
 20
0.0
 30
0.0
 40
1.0
  1
 '','N/A' 
  3

  2
ALT41ALG
 70
     9
  0
ATTDEF
  5
BF
  8
0
 10
0.0
 20
0.0
 30
0.0
 40
1.0
  1

  3

  2
ALT42
 70
     9
  0
ATTDEF
  5
C0
  8
0
 10
0.0
 20
0.0
 30
0.0
 40
1.0
  1
 '','N/A' 
  3

  2
ALT42ALG
 70
     9
  0
ATTDEF
  5
C1
  8
0
 10
0.0
 20
0.0
 30
0.0
 40
1.0
  1

  3

  2
ALT4PN
 70
     9
  0
ATTDEF
  5
C2
  8
0
 10
0.0
 20
0.0
 30
0.0
 40
1.0
  1

  3

  2
ALT5H
 70
     9
  0
ATTDEF
  5
C3
  8
0
 10
0.0
 20
0.0
 30
0.0
 40
1.0
  1
 '','w/o Location Specified Wrench Access Hole Alteratons (Horizontal)','1','with Location Specified Wrench Access Hole Alterato
  3

  2
ALT5HALG
 70
     9
  0
ATTDEF
  5
C4
  8
0
 10
0.0
 20
0.0
 30
0.0
 40
1.0
  1
0
  3

  2
NOMH5H
 70
     9
  0
ATTDEF
  5
C5
  8
0
 10
0.0
 20
0.0
 30
0.0
 40
1.0
  1
5.000
  3

  2
NOMH5HMAX
 70
     9
  0
ATTDEF
  5
C6
  8
0
 10
0.0
 20
0.0
 30
0.0
 40
1.0
  1
[0]
  3

  2
NOMH5HALG
 70
     9
  0
ATTDEF
  5
C7
  8
0
 10
0.0
 20
0.0
 30
0.0
 40
1.0
  1
0
  3

  2
AH
 70
     9
  0
ATTDEF
  5
C8
  8
0
 10
0.0
 20
0.0
 30
0.0
 40
1.0
  1
7.000
  3

  2
AHMIN
 70
     9
  0
ATTDEF
  5
C9
  8
0
 10
0.0
 20
0.0
 30
0.0
 40
1.0
  1
152.350
  3

  2
AHMAX
 70
     9
  0
ATTDEF
  5
CA
  8
0
 10
0.0
 20
0.0
 30
0.0
 40
1.0
  1
[0]
  3

  2
AHALG
 70
     9
  0
ATTDEF
  5
CB
  8
0
 10
0.0
 20
0.0
 30
0.0
 40
1.0
  1
0
  3

  2
BH
 70
     9
  0
ATTDEF
  5
CC
  8
0
 10
0.0
 20
0.0
 30
0.0
 40
1.0
  1
10.000
  3

  2
BHMIN
 70
     9
  0
ATTDEF
  5
CD
  8
0
 10
0.0
 20
0.0
 30
0.0
 40
1.0
  1
161.700
  3

  2
BHMAX
 70
     9
  0
ATTDEF
  5
CE
  8
0
 10
0.0
 20
0.0
 30
0.0
 40
1.0
  1
[0]
  3

  2
BHALG
 70
     9
  0
ATTDEF
  5
CF
  8
0
 10
0.0
 20
0.0
 30
0.0
 40
1.0
  1
0
  3

  2
CH
 70
     9
  0
ATTDEF
  5
D0
  8
0
 10
0.0
 20
0.0
 30
0.0
 40
1.0
  1
10.000
  3

  2
CHMIN
 70
     9
  0
ATTDEF
  5
D1
  8
0
 10
0.0
 20
0.0
 30
0.0
 40
1.0
  1
171.050
  3

  2
CHMAX
 70
     9
  0
ATTDEF
  5
D2
  8
0
 10
0.0
 20
0.0
 30
0.0
 40
1.0
  1
[0]
  3

  2
CHALG
 70
     9
  0
ATTDEF
  5
D3
  8
0
 10
0.0
 20
0.0
 30
0.0
 40
1.0
  1
0
  3

  2
DH
 70
     9
  0
ATTDEF
  5
D4
  8
0
 10
0.0
 20
0.0
 30
0.0
 40
1.0
  1
10.000
  3

  2
DHMIN
 70
     9
  0
ATTDEF
  5
D5
  8
0
 10
0.0
 20
0.0
 30
0.0
 40
1.0
  1
180.400
  3

  2
DHMAX
 70
     9
  0
ATTDEF
  5
D6
  8
0
 10
0.0
 20
0.0
 30
0.0
 40
1.0
  1
[0]
  3

  2
DHALG
 70
     9
  0
ATTDEF
  5
D7
  8
0
 10
0.0
 20
0.0
 30
0.0
 40
1.0
  1
0
  3

  2
EH
 70
     9
  0
ATTDEF
  5
D8
  8
0
 10
0.0
 20
0.0
 30
0.0
 40
1.0
  1
10.000
  3

  2
EHMIN
 70
     9
  0
ATTDEF
  5
D9
  8
0
 10
0.0
 20
0.0
 30
0.0
 40
1.0
  1
143.000
  3

  2
EHMAX
 70
     9
  0
ATTDEF
  5
DA
  8
0
 10
0.0
 20
0.0
 30
0.0
 40
1.0
  1
[0]
  3

  2
EHALG
 70
     9
  0
ATTDEF
  5
DB
  8
0
 10
0.0
 20
0.0
 30
0.0
 40
1.0
  1

  3

  2
ALT5V
 70
     9
  0
ATTDEF
  5
DC
  8
0
 10
0.0
 20
0.0
 30
0.0
 40
1.0
  1
 '','w/o Location Specified Wrench Access Hole Alteratons (Vertical)','1','with Location Specified Wrench Access Hole Alteratons
  3

  2
ALT5VALG
 70
     9
  0
ATTDEF
  5
DD
  8
0
 10
0.0
 20
0.0
 30
0.0
 40
1.0
  1
0
  3

  2
NOMH5V
 70
     9
  0
ATTDEF
  5
DE
  8
0
 10
0.0
 20
0.0
 30
0.0
 40
1.0
  1
5.000
  3

  2
NOMH5VMAX
 70
     9
  0
ATTDEF
  5
DF
  8
0
 10
0.0
 20
0.0
 30
0.0
 40
1.0
  1
[0]
  3

  2
NOMH5VALG
 70
     9
  0
ATTDEF
  5
E0
  8
0
 10
0.0
 20
0.0
 30
0.0
 40
1.0
  1
0
  3

  2
AV
 70
     9
  0
ATTDEF
  5
E1
  8
0
 10
0.0
 20
0.0
 30
0.0
 40
1.0
  1
7.000
  3

  2
AVMIN
 70
     9
  0
ATTDEF
  5
E2
  8
0
 10
0.0
 20
0.0
 30
0.0
 40
1.0
  1
152.350
  3

  2
AVMAX
 70
     9
  0
ATTDEF
  5
E3
  8
0
 10
0.0
 20
0.0
 30
0.0
 40
1.0
  1
[0]
  3

  2
AVALG
 70
     9
  0
ATTDEF
  5
E4
  8
0
 10
0.0
 20
0.0
 30
0.0
 40
1.0
  1
0
  3

  2
BV
 70
     9
  0
ATTDEF
  5
E5
  8
0
 10
0.0
 20
0.0
 30
0.0
 40
1.0
  1
10.000
  3

  2
BVMIN
 70
     9
  0
ATTDEF
  5
E6
  8
0
 10
0.0
 20
0.0
 30
0.0
 40
1.0
  1
161.700
  3

  2
BVMAX
 70
     9
  0
ATTDEF
  5
E7
  8
0
 10
0.0
 20
0.0
 30
0.0
 40
1.0
  1
[0]
  3

  2
BVALG
 70
     9
  0
ATTDEF
  5
E8
  8
0
 10
0.0
 20
0.0
 30
0.0
 40
1.0
  1
0
  3

  2
CV
 70
     9
  0
ATTDEF
  5
E9
  8
0
 10
0.0
 20
0.0
 30
0.0
 40
1.0
  1
10.000
  3

  2
CVMIN
 70
     9
  0
ATTDEF
  5
EA
  8
0
 10
0.0
 20
0.0
 30
0.0
 40
1.0
  1
171.050
  3

  2
CVMAX
 70
     9
  0
ATTDEF
  5
EB
  8
0
 10
0.0
 20
0.0
 30
0.0
 40
1.0
  1
[0]
  3

  2
CVALG
 70
     9
  0
ATTDEF
  5
EC
  8
0
 10
0.0
 20
0.0
 30
0.0
 40
1.0
  1
0
  3

  2
DV
 70
     9
  0
ATTDEF
  5
ED
  8
0
 10
0.0
 20
0.0
 30
0.0
 40
1.0
  1
10.000
  3

  2
DVMIN
 70
     9
  0
ATTDEF
  5
EE
  8
0
 10
0.0
 20
0.0
 30
0.0
 40
1.0
  1
180.400
  3

  2
DVMAX
 70
     9
  0
ATTDEF
  5
EF
  8
0
 10
0.0
 20
0.0
 30
0.0
 40
1.0
  1
[0]
  3

  2
DVALG
 70
     9
  0
ATTDEF
  5
F0
  8
0
 10
0.0
 20
0.0
 30
0.0
 40
1.0
  1
0
  3

  2
EV
 70
     9
  0
ATTDEF
  5
F1
  8
0
 10
0.0
 20
0.0
 30
0.0
 40
1.0
  1
10.000
  3

  2
EVMIN
 70
     9
  0
ATTDEF
  5
F2
  8
0
 10
0.0
 20
0.0
 30
0.0
 40
1.0
  1
143.000
  3

  2
EVMAX
 70
     9
  0
ATTDEF
  5
F3
  8
0
 10
0.0
 20
0.0
 30
0.0
 40
1.0
  1
[0]
  3

  2
EVALG
 70
     9
  0
ATTDEF
  5
F4
  8
0
 10
0.0
 20
0.0
 30
0.0
 40
1.0
  1

  3

  2
ALT5P
 70
     9
  0
ATTDEF
  5
F5
  8
0
 10
0.0
 20
0.0
 30
0.0
 40
1.0
  1
 '','w/o Location Specified Wrench Access Hole Alteratons (Crisscross)','1','with Location Specified Wrench Access Hole Alterato
  3

  2
ALT5PALG
 70
     9
  0
ATTDEF
  5
F6
  8
0
 10
0.0
 20
0.0
 30
0.0
 40
1.0
  1
0
  3

  2
NOMH5P
 70
     9
  0
ATTDEF
  5
F7
  8
0
 10
0.0
 20
0.0
 30
0.0
 40
1.0
  1
5.000
  3

  2
NOMH5PMAX
 70
     9
  0
ATTDEF
  5
F8
  8
0
 10
0.0
 20
0.0
 30
0.0
 40
1.0
  1
[0]
  3

  2
NOMH5PALG
 70
     9
  0
ATTDEF
  5
F9
  8
0
 10
0.0
 20
0.0
 30
0.0
 40
1.0
  1
0
  3

  2
AP
 70
     9
  0
ATTDEF
  5
FA
  8
0
 10
0.0
 20
0.0
 30
0.0
 40
1.0
  1
7.000
  3

  2
APMIN
 70
     9
  0
ATTDEF
  5
FB
  8
0
 10
0.0
 20
0.0
 30
0.0
 40
1.0
  1
152.350
  3

  2
APMAX
 70
     9
  0
ATTDEF
  5
FC
  8
0
 10
0.0
 20
0.0
 30
0.0
 40
1.0
  1
[0]
  3

  2
APALG
 70
     9
  0
ATTDEF
  5
FD
  8
0
 10
0.0
 20
0.0
 30
0.0
 40
1.0
  1
0
  3

  2
BP
 70
     9
  0
ATTDEF
  5
FE
  8
0
 10
0.0
 20
0.0
 30
0.0
 40
1.0
  1
10.000
  3

  2
BPMIN
 70
     9
  0
ATTDEF
  5
FF
  8
0
 10
0.0
 20
0.0
 30
0.0
 40
1.0
  1
161.700
  3

  2
BPMAX
 70
     9
  0
ATTDEF
  5
100
  8
0
 10
0.0
 20
0.0
 30
0.0
 40
1.0
  1
[0]
  3

  2
BPALG
 70
     9
  0
ATTDEF
  5
101
  8
0
 10
0.0
 20
0.0
 30
0.0
 40
1.0
  1
0
  3

  2
CP
 70
     9
  0
ATTDEF
  5
102
  8
0
 10
0.0
 20
0.0
 30
0.0
 40
1.0
  1
10.000
  3

  2
CPMIN
 70
     9
  0
ATTDEF
  5
103
  8
0
 10
0.0
 20
0.0
 30
0.0
 40
1.0
  1
171.050
  3

  2
CPMAX
 70
     9
  0
ATTDEF
  5
104
  8
0
 10
0.0
 20
0.0
 30
0.0
 40
1.0
  1
[0]
  3

  2
CPALG
 70
     9
  0
ATTDEF
  5
105
  8
0
 10
0.0
 20
0.0
 30
0.0
 40
1.0
  1
0
  3

  2
DP
 70
     9
  0
ATTDEF
  5
106
  8
0
 10
0.0
 20
0.0
 30
0.0
 40
1.0
  1
10.000
  3

  2
DPMIN
 70
     9
  0
ATTDEF
  5
107
  8
0
 10
0.0
 20
0.0
 30
0.0
 40
1.0
  1
180.400
  3

  2
DPMAX
 70
     9
  0
ATTDEF
  5
108
  8
0
 10
0.0
 20
0.0
 30
0.0
 40
1.0
  1
[0]
  3

  2
DPALG
 70
     9
  0
ATTDEF
  5
109
  8
0
 10
0.0
 20
0.0
 30
0.0
 40
1.0
  1
0
  3

  2
EP
 70
     9
  0
ATTDEF
  5
10A
  8
0
 10
0.0
 20
0.0
 30
0.0
 40
1.0
  1
10.000
  3

  2
EPMIN
 70
     9
  0
ATTDEF
  5
10B
  8
0
 10
0.0
 20
0.0
 30
0.0
 40
1.0
  1
143.000
  3

  2
EPMAX
 70
     9
  0
ATTDEF
  5
10C
  8
0
 10
0.0
 20
0.0
 30
0.0
 40
1.0
  1
[0]
  3

  2
EPALG
 70
     9
  0
ATTDEF
  5
10D
  8
0
 10
0.0
 20
0.0
 30
0.0
 40
1.0
  1

  3

  2
ALT5HPN
 70
     9
  0
ATTDEF
  5
10E
  8
0
 10
0.0
 20
0.0
 30
0.0
 40
1.0
  1

  3

  2
ALT5VPN
 70
     9
  0
ATTDEF
  5
10F
  8
0
 10
0.0
 20
0.0
 30
0.0
 40
1.0
  1

  3

  2
ALT5PPN
 70
     9
  0
ATTDEF
  5
110
  8
0
 10
0.0
 20
0.0
 30
0.0
 40
1.0
  1

  3

  2
ALT5PN
 70
     9
  0
ATTDEF
  5
111
  8
0
 10
0.0
 20
0.0
 30
0.0
 40
1.0
  1

  3

  2
ALT6V
 70
     9
  0
ATTDEF
  5
112
  8
0
 10
0.0
 20
0.0
 30
0.0
 40
1.0
  1
 '','w/o Counterbore Hole in Specified Position (Vertical)','1','with Counterbore Hole in Specified Position (Vertical)' 
  3

  2
ALT6VALG
 70
     9
  0
ATTDEF
  5
113
  8
0
 10
0.0
 20
0.0
 30
0.0
 40
1.0
  1

  3

  2
ALT6H
 70
     9
  0
ATTDEF
  5
114
  8
0
 10
0.0
 20
0.0
 30
0.0
 40
1.0
  1
 '','w/o Counterbore Hole in Specified Position (Horizontal)','1','with Counterbore Hole in Specified Position (Horizontal)' 
  3

  2
ALT6HALG
 70
     9
  0
ATTDEF
  5
115
  8
0
 10
0.0
 20
0.0
 30
0.0
 40
1.0
  1

  3

  2
Z
 70
     9
  0
ATTDEF
  5
116
  8
0
 10
0.0
 20
0.0
 30
0.0
 40
1.0
  1
 '','N/A' 
  3

  2
ZALG
 70
     9
  0
ATTDEF
  5
117
  8
0
 10
0.0
 20
0.0
 30
0.0
 40
1.0
  1
0
  3

  2
NOMH6V
 70
     9
  0
ATTDEF
  5
118
  8
0
 10
0.0
 20
0.0
 30
0.0
 40
1.0
  1
5.000
  3

  2
NOMH6VMAX
 70
     9
  0
ATTDEF
  5
119
  8
0
 10
0.0
 20
0.0
 30
0.0
 40
1.0
  1
[0]
  3

  2
NOMH6VALG
 70
     9
  0
ATTDEF
  5
11A
  8
0
 10
0.0
 20
0.0
 30
0.0
 40
1.0
  1
0
  3

  2
NOMH6H
 70
     9
  0
ATTDEF
  5
11B
  8
0
 10
0.0
 20
0.0
 30
0.0
 40
1.0
  1
5.000
  3

  2
NOMH6HMAX
 70
     9
  0
ATTDEF
  5
11C
  8
0
 10
0.0
 20
0.0
 30
0.0
 40
1.0
  1
[0]
  3

  2
NOMH6HALG
 70
     9
  0
ATTDEF
  5
11D
  8
0
 10
0.0
 20
0.0
 30
0.0
 40
1.0
  1
13.0
  3

  2
DD6
 70
     9
  0
ATTDEF
  5
11E
  8
0
 10
0.0
 20
0.0
 30
0.0
 40
1.0
  1
19.0
  3

  2
DD16
 70
     9
  0
ATTDEF
  5
11F
  8
0
 10
0.0
 20
0.0
 30
0.0
 40
1.0
  1
0
  3

  2
XA
 70
     9
  0
ATTDEF
  5
120
  8
0
 10
0.0
 20
0.0
 30
0.0
 40
1.0
  1
7.000
  3

  2
XAMIN
 70
     9
  0
ATTDEF
  5
121
  8
0
 10
0.0
 20
0.0
 30
0.0
 40
1.0
  1
164.000
  3

  2
XAMAX
 70
     9
  0
ATTDEF
  5
122
  8
0
 10
0.0
 20
0.0
 30
0.0
 40
1.0
  1
[0]
  3

  2
XAALG
 70
     9
  0
ATTDEF
  5
123
  8
0
 10
0.0
 20
0.0
 30
0.0
 40
1.0
  1
0
  3

  2
XB
 70
     9
  0
ATTDEF
  5
124
  8
0
 10
0.0
 20
0.0
 30
0.0
 40
1.0
  1
16.000
  3

  2
XBMIN
 70
     9
  0
ATTDEF
  5
125
  8
0
 10
0.0
 20
0.0
 30
0.0
 40
1.0
  1
185.000
  3

  2
XBMAX
 70
     9
  0
ATTDEF
  5
126
  8
0
 10
0.0
 20
0.0
 30
0.0
 40
1.0
  1
[0]
  3

  2
XBALG
 70
     9
  0
ATTDEF
  5
127
  8
0
 10
0.0
 20
0.0
 30
0.0
 40
1.0
  1
0
  3

  2
XC
 70
     9
  0
ATTDEF
  5
128
  8
0
 10
0.0
 20
0.0
 30
0.0
 40
1.0
  1
16.000
  3

  2
XCMIN
 70
     9
  0
ATTDEF
  5
129
  8
0
 10
0.0
 20
0.0
 30
0.0
 40
1.0
  1
206.000
  3

  2
XCMAX
 70
     9
  0
ATTDEF
  5
12A
  8
0
 10
0.0
 20
0.0
 30
0.0
 40
1.0
  1
[0]
  3

  2
XCALG
 70
     9
  0
ATTDEF
  5
12B
  8
0
 10
0.0
 20
0.0
 30
0.0
 40
1.0
  1
0
  3

  2
XD
 70
     9
  0
ATTDEF
  5
12C
  8
0
 10
0.0
 20
0.0
 30
0.0
 40
1.0
  1
16.000
  3

  2
XDMIN
 70
     9
  0
ATTDEF
  5
12D
  8
0
 10
0.0
 20
0.0
 30
0.0
 40
1.0
  1
227.000
  3

  2
XDMAX
 70
     9
  0
ATTDEF
  5
12E
  8
0
 10
0.0
 20
0.0
 30
0.0
 40
1.0
  1
[0]
  3

  2
XDALG
 70
     9
  0
ATTDEF
  5
12F
  8
0
 10
0.0
 20
0.0
 30
0.0
 40
1.0
  1
0
  3

  2
XE
 70
     9
  0
ATTDEF
  5
130
  8
0
 10
0.0
 20
0.0
 30
0.0
 40
1.0
  1
16.000
  3

  2
XEMIN
 70
     9
  0
ATTDEF
  5
131
  8
0
 10
0.0
 20
0.0
 30
0.0
 40
1.0
  1
143.000
  3

  2
XEMAX
 70
     9
  0
ATTDEF
  5
132
  8
0
 10
0.0
 20
0.0
 30
0.0
 40
1.0
  1
[0]
  3

  2
XEALG
 70
     9
  0
ATTDEF
  5
133
  8
0
 10
0.0
 20
0.0
 30
0.0
 40
1.0
  1
0
  3

  2
YA
 70
     9
  0
ATTDEF
  5
134
  8
0
 10
0.0
 20
0.0
 30
0.0
 40
1.0
  1
7.000
  3

  2
YAMIN
 70
     9
  0
ATTDEF
  5
135
  8
0
 10
0.0
 20
0.0
 30
0.0
 40
1.0
  1
164.000
  3

  2
YAMAX
 70
     9
  0
ATTDEF
  5
136
  8
0
 10
0.0
 20
0.0
 30
0.0
 40
1.0
  1
[0]
  3

  2
YAALG
 70
     9
  0
ATTDEF
  5
137
  8
0
 10
0.0
 20
0.0
 30
0.0
 40
1.0
  1
0
  3

  2
YB
 70
     9
  0
ATTDEF
  5
138
  8
0
 10
0.0
 20
0.0
 30
0.0
 40
1.0
  1
16.000
  3

  2
YBMIN
 70
     9
  0
ATTDEF
  5
139
  8
0
 10
0.0
 20
0.0
 30
0.0
 40
1.0
  1
185.000
  3

  2
YBMAX
 70
     9
  0
ATTDEF
  5
13A
  8
0
 10
0.0
 20
0.0
 30
0.0
 40
1.0
  1
[0]
  3

  2
YBALG
 70
     9
  0
ATTDEF
  5
13B
  8
0
 10
0.0
 20
0.0
 30
0.0
 40
1.0
  1
0
  3

  2
YC
 70
     9
  0
ATTDEF
  5
13C
  8
0
 10
0.0
 20
0.0
 30
0.0
 40
1.0
  1
16.000
  3

  2
YCMIN
 70
     9
  0
ATTDEF
  5
13D
  8
0
 10
0.0
 20
0.0
 30
0.0
 40
1.0
  1
206.000
  3

  2
YCMAX
 70
     9
  0
ATTDEF
  5
13E
  8
0
 10
0.0
 20
0.0
 30
0.0
 40
1.0
  1
[0]
  3

  2
YCALG
 70
     9
  0
ATTDEF
  5
13F
  8
0
 10
0.0
 20
0.0
 30
0.0
 40
1.0
  1
0
  3

  2
YD
 70
     9
  0
ATTDEF
  5
140
  8
0
 10
0.0
 20
0.0
 30
0.0
 40
1.0
  1
16.000
  3

  2
YDMIN
 70
     9
  0
ATTDEF
  5
141
  8
0
 10
0.0
 20
0.0
 30
0.0
 40
1.0
  1
227.000
  3

  2
YDMAX
 70
     9
  0
ATTDEF
  5
142
  8
0
 10
0.0
 20
0.0
 30
0.0
 40
1.0
  1
[0]
  3

  2
YDALG
 70
     9
  0
ATTDEF
  5
143
  8
0
 10
0.0
 20
0.0
 30
0.0
 40
1.0
  1
0
  3

  2
YE
 70
     9
  0
ATTDEF
  5
144
  8
0
 10
0.0
 20
0.0
 30
0.0
 40
1.0
  1
16.000
  3

  2
YEMIN
 70
     9
  0
ATTDEF
  5
145
  8
0
 10
0.0
 20
0.0
 30
0.0
 40
1.0
  1
143.000
  3

  2
YEMAX
 70
     9
  0
ATTDEF
  5
146
  8
0
 10
0.0
 20
0.0
 30
0.0
 40
1.0
  1
[0]
  3

  2
YEALG
 70
     9
  0
ATTDEF
  5
147
  8
0
 10
0.0
 20
0.0
 30
0.0
 40
1.0
  1

  3

  2
ALT6XPN
 70
     9
  0
ATTDEF
  5
148
  8
0
 10
0.0
 20
0.0
 30
0.0
 40
1.0
  1

  3

  2
ALT6YPN
 70
     9
  0
ATTDEF
  5
149
  8
0
 10
0.0
 20
0.0
 30
0.0
 40
1.0
  1

  3

  2
ALT6PN
 70
     9
  0
ATTDEF
  5
14A
  8
0
 10
0.0
 20
0.0
 30
0.0
 40
1.0
  1

  3

  2
ALT7
 70
     9
  0
ATTDEF
  5
14B
  8
0
 10
0.0
 20
0.0
 30
0.0
 40
1.0
  1
 '','w/o M Type Hole Alteration','1','with M Type Hole Alteration' 
  3

  2
ALT7ALG
 70
     9
  0
ATTDEF
  5
14C
  8
0
 10
0.0
 20
0.0
 30
0.0
 40
1.0
  1

  3

  2
HPS7
 70
     9
  0
ATTDEF
  5
14D
  8
0
 10
0.0
 20
0.0
 30
0.0
 40
1.0
  1
 '','N/A' 
  3

  2
HPS7ALG
 70
     9
  0
ATTDEF
  5
14E
  8
0
 10
0.0
 20
0.0
 30
0.0
 40
1.0
  1

  3

  2
HDL7
 70
     9
  0
ATTDEF
  5
14F
  8
0
 10
0.0
 20
0.0
 30
0.0
 40
1.0
  1
 '','N/A' 
  3

  2
HDL7ALG
 70
     9
  0
ATTDEF
  5
150
  8
0
 10
0.0
 20
0.0
 30
0.0
 40
1.0
  1

  3

  2
HDR7
 70
     9
  0
ATTDEF
  5
151
  8
0
 10
0.0
 20
0.0
 30
0.0
 40
1.0
  1
 '','N/A' 
  3

  2
HDR7ALG
 70
     9
  0
ATTDEF
  5
152
  8
0
 10
0.0
 20
0.0
 30
0.0
 40
1.0
  1
10
  3

  2
H7
 70
     9
  0
ATTDEF
  5
153
  8
0
 10
0.0
 20
0.0
 30
0.0
 40
1.0
  1
7.1
  3

  2
D7
 70
     9
  0
ATTDEF
  5
154
  8
0
 10
0.0
 20
0.0
 30
0.0
 40
1.0
  1

  3

  2
ALT7PN
 70
     9
  0
ATTDEF
  5
155
  8
0
 10
0.0
 20
0.0
 30
0.0
 40
1.0
  1

  3

  2
ALT8T
 70
     9
  0
ATTDEF
  5
156
  8
0
 10
0.0
 20
0.0
 30
0.0
 40
1.0
  1
 '','w/o L Type Hole Alteration (Top)','1','with L Type Hole Alteration (Top)' 
  3

  2
ALT8TALG
 70
     9
  0
ATTDEF
  5
157
  8
0
 10
0.0
 20
0.0
 30
0.0
 40
1.0
  1
0
  3

  2
HQ
 70
     9
  0
ATTDEF
  5
158
  8
0
 10
0.0
 20
0.0
 30
0.0
 40
1.0
  1
0
  3

  2
HQALG
 70
     9
  0
ATTDEF
  5
159
  8
0
 10
0.0
 20
0.0
 30
0.0
 40
1.0
  1
0
  3

  2
JLP
 70
     9
  0
ATTDEF
  5
15A
  8
0
 10
0.0
 20
0.0
 30
0.0
 40
1.0
  1
12.000
  3

  2
JLPMIN
 70
     9
  0
ATTDEF
  5
15B
  8
0
 10
0.0
 20
0.0
 30
0.0
 40
1.0
  1
0.000
  3

  2
JLPMAX
 70
     9
  0
ATTDEF
  5
15C
  8
0
 10
0.0
 20
0.0
 30
0.0
 40
1.0
  1
[0]
  3

  2
JLPALG
 70
     9
  0
ATTDEF
  5
15D
  8
0
 10
0.0
 20
0.0
 30
0.0
 40
1.0
  1
0.000
  3

  2
L1
 70
     9
  0
ATTDEF
  5
15E
  8
0
 10
0.0
 20
0.0
 30
0.0
 40
1.0
  1
7.1
  3

  2
D8
 70
     9
  0
ATTDEF
  5
15F
  8
0
 10
0.0
 20
0.0
 30
0.0
 40
1.0
  1

  3

  2
ALT8PN
 70
     9
  0
ATTDEF
  5
160
  8
0
 10
0.0
 20
0.0
 30
0.0
 40
1.0
  1
DUMMY
  3

  2
KT
 70
     9
  0
ENDSEC
  0
EOF
